M48
;GenerationSoftware,Autodesk,EAGLE,9.2.2*%
;CreationDate,2018-11-07T08:33:49Z*%
FMAT,2
ICI,OFF
METRIC,TZ,000.000
T7C0.813
T6C1.000
T5C1.016
T4C1.100
T3C1.270
T2C1.300
T1C3.000
%
G90
M71
T1
X65000Y60000
X5000Y5000
X5000Y60000
X65000Y5000
T2
X20320Y15240
X20320Y20240
T3
X5080Y33020
X5080Y48260
X58420Y33020
X67310Y48260
X67310Y33020
X38100Y48260
X38100Y33020
X58737Y22860
X58420Y48260
T4
X12700Y5080
X12700Y7620
X12700Y10160
T5
X50800Y10160
X50800Y7620
X58420Y7620
X58420Y10160
X5080Y17780
X20320Y5080
X22860Y5080
X30480Y5080
X33020Y5080
X40640Y5080
X43180Y5080
X38810Y60960
X36270Y60960
X33730Y60960
X31190Y60960
X7620Y22860
X10160Y17780
X58420Y5080
X50800Y5080
T6
X27940Y53340
X25400Y53340
X22860Y53340
X20320Y53340
X17780Y53340
X15240Y53340
X38100Y53340
X30480Y12700
X33020Y12700
X35560Y12700
X38100Y12700
X40640Y12700
X43180Y12700
X43180Y20320
X40640Y20320
X38100Y20320
X35560Y20320
X33020Y20320
X30480Y20320
X15240Y27940
X17780Y27940
X20320Y27940
X22860Y27940
X25400Y27940
X27940Y27940
X30480Y27940
X33020Y27940
X35560Y27940
X38100Y27940
X40640Y27940
X43180Y27940
X45720Y27940
X48260Y27940
X50800Y27940
X53340Y27940
X58420Y27940
X60960Y27940
X60960Y53340
X58420Y53340
X55880Y53340
X53340Y53340
X50800Y53340
X48260Y53340
X45720Y53340
X43180Y53340
X40640Y53340
X55880Y27940
X35560Y53340
X33020Y53340
X30480Y53340
T7
X48260Y17780
X48260Y20320
X58420Y17780
X58420Y20320
X53340Y17780
X53340Y20320
X63500Y17780
X60960Y35560
X63500Y20320
X60960Y30480
M30