G04 EAGLE Gerber RS-274X export*
G75*
%MOMM*%
%FSLAX34Y34*%
%LPD*%
%INTop Copper*%
%IPPOS*%
%AMOC8*
5,1,8,0,0,1.08239X$1,22.5*%
G01*
%ADD10C,2.540000*%
%ADD11P,1.732040X8X112.500000*%
%ADD12C,1.524000*%
%ADD13P,1.732040X8X292.500000*%
%ADD14C,1.650000*%
%ADD15C,1.500000*%
%ADD16C,1.270000*%
%ADD17C,1.905000*%

G36*
X153517Y9384D02*
X153517Y9384D01*
X153616Y9398D01*
X153627Y9403D01*
X153639Y9405D01*
X153725Y9456D01*
X153814Y9505D01*
X153822Y9514D01*
X153832Y9520D01*
X153895Y9597D01*
X153961Y9673D01*
X153966Y9685D01*
X153973Y9694D01*
X154005Y9789D01*
X154041Y9883D01*
X154041Y9895D01*
X154045Y9906D01*
X154042Y10007D01*
X154043Y10107D01*
X154039Y10119D01*
X154038Y10131D01*
X154001Y10223D01*
X153966Y10318D01*
X153959Y10328D01*
X153954Y10338D01*
X153886Y10413D01*
X153821Y10489D01*
X153810Y10496D01*
X153803Y10504D01*
X153762Y10525D01*
X153660Y10586D01*
X151556Y11458D01*
X147983Y15031D01*
X146049Y19699D01*
X146049Y39420D01*
X146033Y39507D01*
X146024Y39596D01*
X146014Y39617D01*
X146010Y39640D01*
X145964Y39717D01*
X145925Y39797D01*
X145908Y39813D01*
X145895Y39834D01*
X145826Y39890D01*
X145762Y39951D01*
X145740Y39960D01*
X145721Y39975D01*
X145637Y40003D01*
X145555Y40038D01*
X145531Y40039D01*
X145509Y40047D01*
X145420Y40044D01*
X145331Y40048D01*
X145308Y40041D01*
X145284Y40040D01*
X145202Y40007D01*
X145117Y39979D01*
X145096Y39964D01*
X145077Y39956D01*
X145039Y39922D01*
X144967Y39868D01*
X143521Y38422D01*
X138154Y36199D01*
X115846Y36199D01*
X110479Y38422D01*
X106372Y42529D01*
X104149Y47896D01*
X104149Y53704D01*
X106372Y59071D01*
X110353Y63052D01*
X110390Y63106D01*
X110436Y63153D01*
X110454Y63197D01*
X110481Y63236D01*
X110497Y63299D01*
X110523Y63360D01*
X110525Y63407D01*
X110537Y63453D01*
X110530Y63518D01*
X110533Y63584D01*
X110519Y63629D01*
X110514Y63676D01*
X110485Y63735D01*
X110464Y63798D01*
X110432Y63842D01*
X110414Y63877D01*
X110386Y63904D01*
X110353Y63948D01*
X106372Y67929D01*
X104149Y73296D01*
X104149Y79104D01*
X106372Y84471D01*
X110353Y88452D01*
X110390Y88506D01*
X110436Y88553D01*
X110454Y88597D01*
X110481Y88636D01*
X110497Y88699D01*
X110523Y88760D01*
X110525Y88807D01*
X110537Y88853D01*
X110530Y88918D01*
X110533Y88984D01*
X110519Y89029D01*
X110514Y89076D01*
X110485Y89135D01*
X110464Y89198D01*
X110432Y89242D01*
X110414Y89277D01*
X110386Y89304D01*
X110353Y89348D01*
X106372Y93329D01*
X104149Y98696D01*
X104149Y104504D01*
X106372Y109871D01*
X110479Y113978D01*
X115846Y116201D01*
X138154Y116201D01*
X143521Y113978D01*
X144967Y112532D01*
X145040Y112481D01*
X145109Y112425D01*
X145131Y112417D01*
X145151Y112404D01*
X145237Y112382D01*
X145321Y112353D01*
X145345Y112354D01*
X145368Y112348D01*
X145457Y112357D01*
X145546Y112360D01*
X145568Y112369D01*
X145591Y112371D01*
X145671Y112411D01*
X145753Y112444D01*
X145771Y112460D01*
X145792Y112471D01*
X145853Y112535D01*
X145919Y112596D01*
X145930Y112617D01*
X145946Y112634D01*
X145981Y112716D01*
X146022Y112795D01*
X146025Y112821D01*
X146034Y112841D01*
X146036Y112891D01*
X146049Y112980D01*
X146049Y235776D01*
X146042Y235818D01*
X146044Y235861D01*
X146022Y235928D01*
X146010Y235997D01*
X145988Y236034D01*
X145975Y236074D01*
X145937Y236125D01*
X145935Y236131D01*
X145923Y236144D01*
X145921Y236147D01*
X145895Y236190D01*
X145879Y236204D01*
X145863Y236225D01*
X119408Y262681D01*
X117474Y267349D01*
X117474Y288276D01*
X119408Y292944D01*
X347489Y521026D01*
X347527Y521080D01*
X347572Y521128D01*
X347590Y521171D01*
X347617Y521210D01*
X347634Y521274D01*
X347659Y521334D01*
X347662Y521382D01*
X347673Y521427D01*
X347667Y521493D01*
X347669Y521559D01*
X347655Y521604D01*
X347650Y521651D01*
X347621Y521709D01*
X347601Y521772D01*
X347568Y521816D01*
X347551Y521852D01*
X347522Y521879D01*
X347489Y521923D01*
X343858Y525554D01*
X343486Y526452D01*
X343438Y526527D01*
X343396Y526605D01*
X343378Y526621D01*
X343365Y526641D01*
X343294Y526694D01*
X343227Y526753D01*
X343204Y526762D01*
X343185Y526776D01*
X343100Y526801D01*
X343017Y526833D01*
X342993Y526833D01*
X342970Y526840D01*
X342882Y526834D01*
X342793Y526835D01*
X342770Y526826D01*
X342747Y526825D01*
X342665Y526788D01*
X342582Y526758D01*
X342564Y526743D01*
X342542Y526733D01*
X342478Y526671D01*
X342411Y526613D01*
X342397Y526590D01*
X342382Y526576D01*
X342361Y526530D01*
X342314Y526452D01*
X341942Y525554D01*
X338046Y521658D01*
X332955Y519549D01*
X327445Y519549D01*
X322354Y521658D01*
X318458Y525554D01*
X316349Y530645D01*
X316349Y536155D01*
X318458Y541246D01*
X322354Y545142D01*
X327445Y547251D01*
X332955Y547251D01*
X338046Y545142D01*
X341942Y541246D01*
X342314Y540348D01*
X342362Y540273D01*
X342405Y540195D01*
X342422Y540179D01*
X342435Y540159D01*
X342506Y540105D01*
X342573Y540047D01*
X342596Y540038D01*
X342615Y540024D01*
X342700Y539999D01*
X342783Y539967D01*
X342807Y539967D01*
X342830Y539960D01*
X342919Y539966D01*
X343007Y539965D01*
X343030Y539974D01*
X343053Y539975D01*
X343135Y540012D01*
X343218Y540042D01*
X343237Y540057D01*
X343258Y540067D01*
X343322Y540130D01*
X343389Y540187D01*
X343403Y540210D01*
X343418Y540224D01*
X343439Y540270D01*
X343486Y540348D01*
X343858Y541246D01*
X347754Y545142D01*
X352845Y547251D01*
X358355Y547251D01*
X363446Y545142D01*
X367342Y541246D01*
X367714Y540348D01*
X367762Y540273D01*
X367805Y540195D01*
X367822Y540179D01*
X367835Y540159D01*
X367906Y540105D01*
X367973Y540047D01*
X367996Y540038D01*
X368015Y540024D01*
X368100Y539999D01*
X368183Y539967D01*
X368207Y539967D01*
X368230Y539960D01*
X368319Y539966D01*
X368407Y539965D01*
X368430Y539974D01*
X368453Y539975D01*
X368535Y540012D01*
X368618Y540042D01*
X368637Y540057D01*
X368658Y540067D01*
X368722Y540130D01*
X368789Y540187D01*
X368803Y540210D01*
X368818Y540224D01*
X368839Y540270D01*
X368886Y540348D01*
X369258Y541246D01*
X373154Y545142D01*
X378245Y547251D01*
X383755Y547251D01*
X388846Y545142D01*
X392742Y541246D01*
X393114Y540348D01*
X393162Y540273D01*
X393205Y540195D01*
X393222Y540179D01*
X393235Y540159D01*
X393306Y540105D01*
X393373Y540047D01*
X393396Y540038D01*
X393415Y540024D01*
X393500Y539999D01*
X393583Y539967D01*
X393607Y539967D01*
X393630Y539960D01*
X393719Y539966D01*
X393807Y539965D01*
X393830Y539974D01*
X393853Y539975D01*
X393935Y540012D01*
X394018Y540042D01*
X394037Y540057D01*
X394058Y540067D01*
X394122Y540130D01*
X394189Y540187D01*
X394203Y540210D01*
X394218Y540224D01*
X394239Y540270D01*
X394286Y540348D01*
X394658Y541246D01*
X398554Y545142D01*
X403645Y547251D01*
X409155Y547251D01*
X414246Y545142D01*
X418142Y541246D01*
X418514Y540348D01*
X418562Y540273D01*
X418605Y540195D01*
X418622Y540179D01*
X418635Y540159D01*
X418706Y540105D01*
X418773Y540047D01*
X418796Y540038D01*
X418815Y540024D01*
X418900Y539999D01*
X418983Y539967D01*
X419007Y539967D01*
X419030Y539960D01*
X419119Y539966D01*
X419207Y539965D01*
X419230Y539974D01*
X419253Y539975D01*
X419335Y540012D01*
X419418Y540042D01*
X419437Y540057D01*
X419458Y540067D01*
X419522Y540130D01*
X419589Y540187D01*
X419603Y540210D01*
X419618Y540224D01*
X419639Y540270D01*
X419686Y540348D01*
X420058Y541246D01*
X423954Y545142D01*
X429045Y547251D01*
X434555Y547251D01*
X439646Y545142D01*
X443542Y541246D01*
X443914Y540348D01*
X443962Y540273D01*
X444005Y540195D01*
X444022Y540179D01*
X444035Y540159D01*
X444106Y540105D01*
X444173Y540047D01*
X444196Y540038D01*
X444215Y540024D01*
X444300Y539999D01*
X444383Y539967D01*
X444407Y539967D01*
X444430Y539960D01*
X444519Y539966D01*
X444607Y539965D01*
X444630Y539974D01*
X444653Y539975D01*
X444735Y540012D01*
X444818Y540042D01*
X444837Y540057D01*
X444858Y540067D01*
X444922Y540130D01*
X444989Y540187D01*
X445003Y540210D01*
X445018Y540224D01*
X445039Y540270D01*
X445086Y540348D01*
X445458Y541246D01*
X449354Y545142D01*
X454445Y547251D01*
X459955Y547251D01*
X465046Y545142D01*
X468942Y541246D01*
X469314Y540348D01*
X469362Y540273D01*
X469405Y540195D01*
X469422Y540179D01*
X469435Y540159D01*
X469506Y540105D01*
X469573Y540047D01*
X469596Y540038D01*
X469615Y540024D01*
X469700Y539999D01*
X469783Y539967D01*
X469807Y539967D01*
X469830Y539960D01*
X469919Y539966D01*
X470007Y539965D01*
X470030Y539974D01*
X470053Y539975D01*
X470135Y540012D01*
X470218Y540042D01*
X470237Y540057D01*
X470258Y540067D01*
X470322Y540130D01*
X470389Y540187D01*
X470403Y540210D01*
X470418Y540224D01*
X470439Y540270D01*
X470486Y540348D01*
X470858Y541246D01*
X474754Y545142D01*
X479845Y547251D01*
X485355Y547251D01*
X490446Y545142D01*
X494342Y541246D01*
X494714Y540348D01*
X494762Y540273D01*
X494805Y540195D01*
X494822Y540179D01*
X494835Y540159D01*
X494906Y540105D01*
X494973Y540047D01*
X494996Y540038D01*
X495015Y540024D01*
X495100Y539999D01*
X495183Y539967D01*
X495207Y539967D01*
X495230Y539960D01*
X495319Y539966D01*
X495407Y539965D01*
X495430Y539974D01*
X495453Y539975D01*
X495535Y540012D01*
X495618Y540042D01*
X495637Y540057D01*
X495658Y540067D01*
X495722Y540130D01*
X495789Y540187D01*
X495803Y540210D01*
X495818Y540224D01*
X495839Y540270D01*
X495886Y540348D01*
X496258Y541246D01*
X500154Y545142D01*
X505245Y547251D01*
X510755Y547251D01*
X515846Y545142D01*
X519742Y541246D01*
X520114Y540348D01*
X520162Y540273D01*
X520205Y540195D01*
X520222Y540179D01*
X520235Y540159D01*
X520306Y540105D01*
X520373Y540047D01*
X520396Y540038D01*
X520415Y540024D01*
X520500Y539999D01*
X520583Y539967D01*
X520607Y539967D01*
X520630Y539960D01*
X520719Y539966D01*
X520807Y539965D01*
X520830Y539974D01*
X520853Y539975D01*
X520935Y540012D01*
X521018Y540042D01*
X521037Y540057D01*
X521058Y540067D01*
X521122Y540130D01*
X521189Y540187D01*
X521203Y540210D01*
X521218Y540224D01*
X521239Y540270D01*
X521286Y540348D01*
X521658Y541246D01*
X525554Y545142D01*
X530645Y547251D01*
X536155Y547251D01*
X541246Y545142D01*
X545142Y541246D01*
X545514Y540348D01*
X545562Y540273D01*
X545605Y540195D01*
X545622Y540179D01*
X545635Y540159D01*
X545706Y540105D01*
X545773Y540047D01*
X545796Y540038D01*
X545815Y540024D01*
X545900Y539999D01*
X545983Y539967D01*
X546007Y539967D01*
X546030Y539960D01*
X546119Y539966D01*
X546207Y539965D01*
X546230Y539974D01*
X546253Y539975D01*
X546335Y540012D01*
X546418Y540042D01*
X546437Y540057D01*
X546458Y540067D01*
X546522Y540130D01*
X546589Y540187D01*
X546603Y540210D01*
X546618Y540224D01*
X546639Y540270D01*
X546686Y540348D01*
X547058Y541246D01*
X550954Y545142D01*
X556045Y547251D01*
X561555Y547251D01*
X566646Y545142D01*
X570542Y541246D01*
X570914Y540348D01*
X570962Y540273D01*
X571005Y540195D01*
X571022Y540179D01*
X571035Y540159D01*
X571106Y540105D01*
X571173Y540047D01*
X571196Y540038D01*
X571215Y540024D01*
X571300Y539999D01*
X571383Y539967D01*
X571407Y539967D01*
X571430Y539960D01*
X571519Y539966D01*
X571607Y539965D01*
X571630Y539974D01*
X571653Y539975D01*
X571735Y540012D01*
X571818Y540042D01*
X571837Y540057D01*
X571858Y540067D01*
X571922Y540130D01*
X571989Y540187D01*
X572003Y540210D01*
X572018Y540224D01*
X572039Y540270D01*
X572086Y540348D01*
X572458Y541246D01*
X576354Y545142D01*
X581445Y547251D01*
X586955Y547251D01*
X592046Y545142D01*
X595942Y541246D01*
X596314Y540348D01*
X596362Y540273D01*
X596405Y540195D01*
X596422Y540179D01*
X596435Y540159D01*
X596506Y540105D01*
X596573Y540047D01*
X596596Y540038D01*
X596615Y540024D01*
X596700Y539999D01*
X596783Y539967D01*
X596807Y539967D01*
X596830Y539960D01*
X596919Y539966D01*
X597007Y539965D01*
X597030Y539974D01*
X597053Y539975D01*
X597135Y540012D01*
X597218Y540042D01*
X597237Y540057D01*
X597258Y540067D01*
X597322Y540130D01*
X597389Y540187D01*
X597403Y540210D01*
X597418Y540224D01*
X597439Y540270D01*
X597486Y540348D01*
X597858Y541246D01*
X601754Y545142D01*
X605627Y546746D01*
X605692Y546788D01*
X605762Y546822D01*
X605786Y546848D01*
X605816Y546867D01*
X605862Y546929D01*
X605915Y546986D01*
X605929Y547018D01*
X605951Y547047D01*
X605973Y547121D01*
X606003Y547192D01*
X606004Y547228D01*
X606015Y547262D01*
X606009Y547339D01*
X606013Y547416D01*
X606002Y547450D01*
X606000Y547486D01*
X605968Y547556D01*
X605944Y547630D01*
X605920Y547662D01*
X605908Y547690D01*
X605875Y547724D01*
X605833Y547781D01*
X556900Y596713D01*
X556865Y596738D01*
X556836Y596769D01*
X556774Y596801D01*
X556716Y596842D01*
X556675Y596852D01*
X556637Y596872D01*
X556547Y596885D01*
X556498Y596898D01*
X556478Y596895D01*
X556451Y596899D01*
X401541Y596899D01*
X401488Y596890D01*
X401434Y596890D01*
X401378Y596870D01*
X401320Y596860D01*
X401274Y596832D01*
X401223Y596814D01*
X401178Y596775D01*
X401127Y596745D01*
X401093Y596703D01*
X401052Y596668D01*
X401015Y596607D01*
X400986Y596571D01*
X400976Y596542D01*
X400955Y596508D01*
X399944Y594066D01*
X396014Y590136D01*
X390879Y588009D01*
X385321Y588009D01*
X380186Y590136D01*
X376256Y594066D01*
X375986Y594719D01*
X375938Y594793D01*
X375896Y594872D01*
X375878Y594887D01*
X375865Y594907D01*
X375794Y594961D01*
X375727Y595020D01*
X375704Y595028D01*
X375686Y595042D01*
X375600Y595068D01*
X375517Y595099D01*
X375493Y595099D01*
X375470Y595106D01*
X375382Y595100D01*
X375293Y595101D01*
X375270Y595093D01*
X375247Y595091D01*
X375166Y595055D01*
X375082Y595024D01*
X375063Y595009D01*
X375042Y594999D01*
X374979Y594937D01*
X374911Y594879D01*
X374897Y594857D01*
X374882Y594842D01*
X374861Y594796D01*
X374814Y594719D01*
X374544Y594066D01*
X370614Y590136D01*
X365479Y588009D01*
X359921Y588009D01*
X354786Y590136D01*
X350856Y594066D01*
X350586Y594719D01*
X350538Y594793D01*
X350496Y594872D01*
X350478Y594887D01*
X350465Y594907D01*
X350394Y594961D01*
X350327Y595020D01*
X350304Y595028D01*
X350286Y595042D01*
X350200Y595068D01*
X350117Y595099D01*
X350093Y595099D01*
X350070Y595106D01*
X349982Y595100D01*
X349893Y595101D01*
X349870Y595093D01*
X349847Y595091D01*
X349766Y595055D01*
X349682Y595024D01*
X349663Y595009D01*
X349642Y594999D01*
X349579Y594937D01*
X349511Y594879D01*
X349497Y594857D01*
X349482Y594842D01*
X349461Y594796D01*
X349414Y594719D01*
X349144Y594066D01*
X345214Y590136D01*
X340079Y588009D01*
X334521Y588009D01*
X329386Y590136D01*
X325456Y594066D01*
X323329Y599201D01*
X323329Y619999D01*
X325456Y625134D01*
X329386Y629064D01*
X334521Y631191D01*
X340079Y631191D01*
X345214Y629064D01*
X349144Y625134D01*
X349414Y624481D01*
X349462Y624406D01*
X349505Y624328D01*
X349522Y624313D01*
X349535Y624293D01*
X349606Y624239D01*
X349673Y624180D01*
X349696Y624172D01*
X349715Y624158D01*
X349800Y624132D01*
X349883Y624101D01*
X349907Y624101D01*
X349930Y624094D01*
X350019Y624100D01*
X350107Y624099D01*
X350130Y624107D01*
X350153Y624109D01*
X350235Y624145D01*
X350318Y624176D01*
X350337Y624191D01*
X350358Y624201D01*
X350422Y624263D01*
X350489Y624321D01*
X350503Y624343D01*
X350518Y624358D01*
X350539Y624404D01*
X350586Y624481D01*
X350856Y625134D01*
X354786Y629064D01*
X359921Y631191D01*
X365479Y631191D01*
X370614Y629064D01*
X374544Y625134D01*
X374814Y624481D01*
X374862Y624406D01*
X374905Y624328D01*
X374922Y624313D01*
X374935Y624293D01*
X375006Y624239D01*
X375073Y624180D01*
X375096Y624172D01*
X375115Y624158D01*
X375200Y624132D01*
X375283Y624101D01*
X375307Y624101D01*
X375330Y624094D01*
X375419Y624100D01*
X375507Y624099D01*
X375530Y624107D01*
X375553Y624109D01*
X375635Y624145D01*
X375718Y624176D01*
X375737Y624191D01*
X375758Y624201D01*
X375822Y624263D01*
X375889Y624321D01*
X375903Y624343D01*
X375918Y624358D01*
X375939Y624404D01*
X375986Y624481D01*
X376256Y625134D01*
X380186Y629064D01*
X385321Y631191D01*
X390879Y631191D01*
X396014Y629064D01*
X399944Y625134D01*
X400955Y622692D01*
X400984Y622647D01*
X401005Y622597D01*
X401044Y622553D01*
X401076Y622503D01*
X401120Y622471D01*
X401156Y622431D01*
X401209Y622404D01*
X401256Y622369D01*
X401308Y622353D01*
X401356Y622328D01*
X401426Y622318D01*
X401471Y622305D01*
X401501Y622307D01*
X401541Y622301D01*
X564501Y622301D01*
X569169Y620367D01*
X599552Y589985D01*
X599625Y589934D01*
X599694Y589878D01*
X599716Y589871D01*
X599736Y589857D01*
X599822Y589835D01*
X599906Y589806D01*
X599930Y589807D01*
X599953Y589801D01*
X600042Y589810D01*
X600131Y589813D01*
X600153Y589822D01*
X600176Y589824D01*
X600256Y589864D01*
X600338Y589897D01*
X600356Y589913D01*
X600377Y589924D01*
X600438Y589988D01*
X600504Y590049D01*
X600515Y590070D01*
X600531Y590087D01*
X600566Y590169D01*
X600607Y590248D01*
X600610Y590274D01*
X600619Y590294D01*
X600621Y590344D01*
X600634Y590434D01*
X600634Y640000D01*
X600623Y640065D01*
X600621Y640131D01*
X600603Y640174D01*
X600595Y640221D01*
X600561Y640278D01*
X600536Y640338D01*
X600505Y640373D01*
X600480Y640414D01*
X600429Y640456D01*
X600385Y640504D01*
X600343Y640526D01*
X600306Y640555D01*
X600244Y640576D01*
X600185Y640607D01*
X600131Y640615D01*
X600094Y640627D01*
X600054Y640626D01*
X600000Y640634D01*
X100000Y640634D01*
X99935Y640623D01*
X99869Y640621D01*
X99826Y640603D01*
X99779Y640595D01*
X99722Y640561D01*
X99662Y640536D01*
X99627Y640505D01*
X99586Y640480D01*
X99545Y640429D01*
X99496Y640385D01*
X99474Y640343D01*
X99445Y640306D01*
X99424Y640244D01*
X99393Y640185D01*
X99385Y640131D01*
X99373Y640094D01*
X99374Y640054D01*
X99366Y640000D01*
X99366Y580263D01*
X69737Y550634D01*
X10000Y550634D01*
X9935Y550623D01*
X9869Y550621D01*
X9826Y550603D01*
X9779Y550595D01*
X9722Y550561D01*
X9662Y550536D01*
X9627Y550505D01*
X9586Y550480D01*
X9545Y550429D01*
X9496Y550385D01*
X9474Y550343D01*
X9445Y550306D01*
X9424Y550244D01*
X9393Y550185D01*
X9385Y550131D01*
X9373Y550094D01*
X9374Y550054D01*
X9366Y550000D01*
X9366Y100000D01*
X9377Y99935D01*
X9379Y99869D01*
X9397Y99826D01*
X9405Y99779D01*
X9439Y99722D01*
X9464Y99662D01*
X9495Y99627D01*
X9520Y99586D01*
X9571Y99545D01*
X9615Y99496D01*
X9657Y99474D01*
X9694Y99445D01*
X9756Y99424D01*
X9815Y99393D01*
X9869Y99385D01*
X9906Y99373D01*
X9946Y99374D01*
X10000Y99366D01*
X69737Y99366D01*
X99366Y69737D01*
X99366Y10000D01*
X99377Y9935D01*
X99379Y9869D01*
X99397Y9826D01*
X99405Y9779D01*
X99439Y9722D01*
X99464Y9662D01*
X99495Y9627D01*
X99520Y9586D01*
X99571Y9545D01*
X99615Y9496D01*
X99657Y9474D01*
X99694Y9445D01*
X99756Y9424D01*
X99815Y9393D01*
X99869Y9385D01*
X99906Y9373D01*
X99946Y9374D01*
X100000Y9366D01*
X153418Y9366D01*
X153517Y9384D01*
G37*
G36*
X570639Y63506D02*
X570639Y63506D01*
X570670Y63504D01*
X570785Y63532D01*
X570830Y63540D01*
X570839Y63546D01*
X570852Y63549D01*
X573801Y64771D01*
X580123Y64771D01*
X580172Y64779D01*
X580277Y64790D01*
X580310Y64804D01*
X580344Y64810D01*
X580411Y64850D01*
X580482Y64882D01*
X580507Y64907D01*
X580538Y64925D01*
X580586Y64985D01*
X580642Y65039D01*
X580657Y65071D01*
X580679Y65099D01*
X580704Y65172D01*
X580737Y65243D01*
X580740Y65278D01*
X580751Y65311D01*
X580749Y65389D01*
X580755Y65466D01*
X580745Y65500D01*
X580744Y65536D01*
X580715Y65607D01*
X580694Y65682D01*
X580673Y65711D01*
X580660Y65743D01*
X580608Y65801D01*
X580562Y65863D01*
X580532Y65883D01*
X580509Y65909D01*
X580439Y65945D01*
X580375Y65987D01*
X580340Y65995D01*
X580309Y66012D01*
X580204Y66027D01*
X580156Y66038D01*
X580140Y66037D01*
X580124Y66039D01*
X575780Y66039D01*
X574201Y66289D01*
X572680Y66784D01*
X571255Y67510D01*
X569961Y68450D01*
X568830Y69581D01*
X567890Y70875D01*
X567164Y72300D01*
X566669Y73821D01*
X566494Y74931D01*
X583565Y74931D01*
X583630Y74942D01*
X583695Y74944D01*
X583739Y74962D01*
X583786Y74970D01*
X583842Y75004D01*
X583903Y75029D01*
X583938Y75060D01*
X583979Y75085D01*
X584020Y75136D01*
X584069Y75180D01*
X584091Y75222D01*
X584120Y75259D01*
X584141Y75321D01*
X584171Y75380D01*
X584180Y75434D01*
X584192Y75471D01*
X584191Y75511D01*
X584199Y75565D01*
X584199Y76201D01*
X584835Y76201D01*
X584900Y76213D01*
X584965Y76214D01*
X585009Y76232D01*
X585056Y76241D01*
X585113Y76274D01*
X585173Y76299D01*
X585208Y76331D01*
X585249Y76355D01*
X585290Y76406D01*
X585339Y76450D01*
X585361Y76492D01*
X585390Y76529D01*
X585411Y76591D01*
X585442Y76650D01*
X585450Y76704D01*
X585462Y76741D01*
X585461Y76781D01*
X585469Y76835D01*
X585469Y86361D01*
X592620Y86361D01*
X594199Y86111D01*
X595720Y85616D01*
X597145Y84890D01*
X598439Y83950D01*
X598992Y83398D01*
X599065Y83347D01*
X599134Y83291D01*
X599156Y83283D01*
X599176Y83270D01*
X599262Y83248D01*
X599346Y83219D01*
X599370Y83220D01*
X599393Y83214D01*
X599482Y83223D01*
X599571Y83226D01*
X599593Y83235D01*
X599616Y83237D01*
X599696Y83277D01*
X599778Y83310D01*
X599796Y83326D01*
X599817Y83337D01*
X599878Y83401D01*
X599944Y83461D01*
X599955Y83482D01*
X599971Y83500D01*
X600006Y83582D01*
X600047Y83661D01*
X600050Y83687D01*
X600059Y83706D01*
X600061Y83757D01*
X600074Y83846D01*
X600074Y88948D01*
X600061Y89024D01*
X600055Y89101D01*
X600041Y89134D01*
X600035Y89169D01*
X599995Y89236D01*
X599963Y89306D01*
X599939Y89331D01*
X599920Y89362D01*
X599860Y89411D01*
X599806Y89466D01*
X599774Y89481D01*
X599746Y89503D01*
X599673Y89528D01*
X599603Y89561D01*
X599567Y89564D01*
X599534Y89575D01*
X599456Y89573D01*
X599379Y89579D01*
X599340Y89570D01*
X599309Y89569D01*
X599266Y89551D01*
X599197Y89534D01*
X594599Y87629D01*
X573801Y87629D01*
X568666Y89756D01*
X564736Y93686D01*
X562609Y98821D01*
X562609Y104379D01*
X564736Y109514D01*
X568666Y113444D01*
X571108Y114455D01*
X571153Y114484D01*
X571203Y114505D01*
X571247Y114544D01*
X571297Y114576D01*
X571329Y114620D01*
X571369Y114656D01*
X571396Y114709D01*
X571431Y114756D01*
X571447Y114808D01*
X571472Y114856D01*
X571482Y114926D01*
X571495Y114971D01*
X571493Y115001D01*
X571499Y115041D01*
X571499Y169942D01*
X571492Y169983D01*
X571494Y170026D01*
X571472Y170093D01*
X571460Y170162D01*
X571438Y170199D01*
X571425Y170239D01*
X571371Y170312D01*
X571345Y170356D01*
X571329Y170369D01*
X571313Y170390D01*
X569848Y171855D01*
X569848Y183745D01*
X578255Y192152D01*
X578809Y192152D01*
X578897Y192168D01*
X578985Y192177D01*
X579006Y192187D01*
X579030Y192191D01*
X579106Y192237D01*
X579186Y192276D01*
X579202Y192293D01*
X579223Y192306D01*
X579279Y192375D01*
X579340Y192439D01*
X579349Y192461D01*
X579364Y192480D01*
X579393Y192564D01*
X579427Y192646D01*
X579429Y192670D01*
X579436Y192692D01*
X579433Y192781D01*
X579437Y192870D01*
X579430Y192893D01*
X579429Y192917D01*
X579396Y192999D01*
X579369Y193084D01*
X579353Y193105D01*
X579345Y193124D01*
X579311Y193162D01*
X579257Y193234D01*
X573658Y198833D01*
X573658Y201931D01*
X583565Y201931D01*
X583630Y201942D01*
X583695Y201944D01*
X583739Y201962D01*
X583786Y201970D01*
X583842Y202004D01*
X583903Y202029D01*
X583938Y202060D01*
X583979Y202085D01*
X584020Y202136D01*
X584069Y202180D01*
X584091Y202222D01*
X584120Y202259D01*
X584141Y202321D01*
X584171Y202380D01*
X584180Y202434D01*
X584192Y202471D01*
X584191Y202511D01*
X584199Y202565D01*
X584199Y203835D01*
X584187Y203900D01*
X584186Y203965D01*
X584168Y204009D01*
X584159Y204056D01*
X584126Y204113D01*
X584101Y204173D01*
X584069Y204208D01*
X584045Y204249D01*
X583994Y204290D01*
X583950Y204339D01*
X583908Y204361D01*
X583871Y204390D01*
X583809Y204411D01*
X583750Y204442D01*
X583696Y204450D01*
X583659Y204462D01*
X583619Y204461D01*
X583565Y204469D01*
X573658Y204469D01*
X573658Y207567D01*
X579727Y213635D01*
X579771Y213698D01*
X579822Y213757D01*
X579835Y213790D01*
X579855Y213819D01*
X579874Y213894D01*
X579902Y213967D01*
X579902Y214002D01*
X579911Y214036D01*
X579903Y214113D01*
X579903Y214191D01*
X579891Y214224D01*
X579888Y214260D01*
X579853Y214329D01*
X579827Y214402D01*
X579804Y214429D01*
X579788Y214461D01*
X579732Y214514D01*
X579682Y214573D01*
X579647Y214594D01*
X579625Y214615D01*
X579582Y214633D01*
X579521Y214669D01*
X578382Y215141D01*
X573916Y219607D01*
X571499Y225442D01*
X571499Y231758D01*
X573916Y237593D01*
X578382Y242059D01*
X584217Y244476D01*
X585026Y244476D01*
X585068Y244483D01*
X585111Y244481D01*
X585178Y244503D01*
X585247Y244515D01*
X585284Y244537D01*
X585324Y244550D01*
X585397Y244604D01*
X585440Y244630D01*
X585454Y244646D01*
X585475Y244662D01*
X605833Y265019D01*
X605877Y265083D01*
X605928Y265141D01*
X605941Y265174D01*
X605961Y265204D01*
X605980Y265278D01*
X606008Y265351D01*
X606008Y265386D01*
X606017Y265421D01*
X606009Y265498D01*
X606009Y265575D01*
X605997Y265609D01*
X605994Y265644D01*
X605959Y265713D01*
X605933Y265786D01*
X605910Y265813D01*
X605894Y265845D01*
X605838Y265898D01*
X605788Y265957D01*
X605753Y265978D01*
X605731Y265999D01*
X605688Y266017D01*
X605627Y266054D01*
X601754Y267658D01*
X597858Y271554D01*
X597486Y272452D01*
X597438Y272527D01*
X597395Y272605D01*
X597378Y272621D01*
X597365Y272641D01*
X597294Y272695D01*
X597227Y272753D01*
X597204Y272762D01*
X597185Y272776D01*
X597100Y272801D01*
X597017Y272833D01*
X596993Y272833D01*
X596970Y272840D01*
X596881Y272834D01*
X596793Y272835D01*
X596770Y272826D01*
X596747Y272825D01*
X596665Y272788D01*
X596582Y272758D01*
X596563Y272743D01*
X596542Y272733D01*
X596478Y272670D01*
X596411Y272613D01*
X596397Y272590D01*
X596382Y272576D01*
X596361Y272530D01*
X596314Y272452D01*
X595942Y271554D01*
X592046Y267658D01*
X586955Y265549D01*
X581445Y265549D01*
X576354Y267658D01*
X572458Y271554D01*
X572086Y272452D01*
X572038Y272527D01*
X571995Y272605D01*
X571978Y272621D01*
X571965Y272641D01*
X571894Y272695D01*
X571827Y272753D01*
X571804Y272762D01*
X571785Y272776D01*
X571700Y272801D01*
X571617Y272833D01*
X571593Y272833D01*
X571570Y272840D01*
X571481Y272834D01*
X571393Y272835D01*
X571370Y272826D01*
X571347Y272825D01*
X571265Y272788D01*
X571182Y272758D01*
X571163Y272743D01*
X571142Y272733D01*
X571078Y272670D01*
X571011Y272613D01*
X570997Y272590D01*
X570982Y272576D01*
X570961Y272530D01*
X570914Y272452D01*
X570542Y271554D01*
X566646Y267658D01*
X561555Y265549D01*
X556045Y265549D01*
X550954Y267658D01*
X547058Y271554D01*
X546686Y272452D01*
X546638Y272527D01*
X546595Y272605D01*
X546578Y272621D01*
X546565Y272641D01*
X546494Y272695D01*
X546427Y272753D01*
X546404Y272762D01*
X546385Y272776D01*
X546300Y272801D01*
X546217Y272833D01*
X546193Y272833D01*
X546170Y272840D01*
X546081Y272834D01*
X545993Y272835D01*
X545970Y272826D01*
X545947Y272825D01*
X545865Y272788D01*
X545782Y272758D01*
X545763Y272743D01*
X545742Y272733D01*
X545678Y272670D01*
X545611Y272613D01*
X545597Y272590D01*
X545582Y272576D01*
X545561Y272530D01*
X545514Y272452D01*
X545142Y271554D01*
X541246Y267658D01*
X536155Y265549D01*
X530645Y265549D01*
X525554Y267658D01*
X521658Y271554D01*
X521286Y272452D01*
X521238Y272527D01*
X521195Y272605D01*
X521178Y272621D01*
X521165Y272641D01*
X521094Y272695D01*
X521027Y272753D01*
X521004Y272762D01*
X520985Y272776D01*
X520900Y272801D01*
X520817Y272833D01*
X520793Y272833D01*
X520770Y272840D01*
X520681Y272834D01*
X520593Y272835D01*
X520570Y272826D01*
X520547Y272825D01*
X520465Y272788D01*
X520382Y272758D01*
X520363Y272743D01*
X520342Y272733D01*
X520278Y272670D01*
X520211Y272613D01*
X520197Y272590D01*
X520182Y272576D01*
X520161Y272530D01*
X520114Y272452D01*
X519742Y271554D01*
X515846Y267658D01*
X510755Y265549D01*
X505245Y265549D01*
X500154Y267658D01*
X496258Y271554D01*
X494149Y276645D01*
X494149Y282155D01*
X496258Y287246D01*
X500154Y291142D01*
X505245Y293251D01*
X510755Y293251D01*
X515846Y291142D01*
X519742Y287246D01*
X520114Y286348D01*
X520162Y286273D01*
X520204Y286195D01*
X520222Y286179D01*
X520235Y286159D01*
X520306Y286106D01*
X520373Y286047D01*
X520396Y286038D01*
X520415Y286024D01*
X520500Y285999D01*
X520583Y285967D01*
X520607Y285967D01*
X520630Y285960D01*
X520718Y285966D01*
X520807Y285965D01*
X520830Y285974D01*
X520853Y285975D01*
X520935Y286012D01*
X521018Y286042D01*
X521036Y286057D01*
X521058Y286067D01*
X521122Y286129D01*
X521189Y286187D01*
X521203Y286210D01*
X521218Y286224D01*
X521239Y286270D01*
X521286Y286348D01*
X521658Y287246D01*
X525554Y291142D01*
X530645Y293251D01*
X536155Y293251D01*
X541246Y291142D01*
X545142Y287246D01*
X545514Y286348D01*
X545562Y286273D01*
X545604Y286195D01*
X545622Y286179D01*
X545635Y286159D01*
X545706Y286106D01*
X545773Y286047D01*
X545796Y286038D01*
X545815Y286024D01*
X545900Y285999D01*
X545983Y285967D01*
X546007Y285967D01*
X546030Y285960D01*
X546118Y285966D01*
X546207Y285965D01*
X546230Y285974D01*
X546253Y285975D01*
X546335Y286012D01*
X546418Y286042D01*
X546436Y286057D01*
X546458Y286067D01*
X546522Y286129D01*
X546589Y286187D01*
X546603Y286210D01*
X546618Y286224D01*
X546639Y286270D01*
X546686Y286348D01*
X547058Y287246D01*
X550954Y291142D01*
X556045Y293251D01*
X561555Y293251D01*
X566646Y291142D01*
X570542Y287246D01*
X570914Y286348D01*
X570962Y286273D01*
X571004Y286195D01*
X571022Y286179D01*
X571035Y286159D01*
X571106Y286106D01*
X571173Y286047D01*
X571196Y286038D01*
X571215Y286024D01*
X571300Y285999D01*
X571383Y285967D01*
X571407Y285967D01*
X571430Y285960D01*
X571518Y285966D01*
X571607Y285965D01*
X571630Y285974D01*
X571653Y285975D01*
X571735Y286012D01*
X571818Y286042D01*
X571836Y286057D01*
X571858Y286067D01*
X571922Y286129D01*
X571989Y286187D01*
X572003Y286210D01*
X572018Y286224D01*
X572039Y286270D01*
X572086Y286348D01*
X572458Y287246D01*
X576354Y291142D01*
X581445Y293251D01*
X586955Y293251D01*
X592046Y291142D01*
X595817Y287371D01*
X595890Y287321D01*
X595959Y287264D01*
X595981Y287257D01*
X596001Y287243D01*
X596087Y287221D01*
X596171Y287193D01*
X596195Y287193D01*
X596218Y287187D01*
X596307Y287197D01*
X596396Y287199D01*
X596418Y287208D01*
X596441Y287211D01*
X596521Y287250D01*
X596603Y287283D01*
X596621Y287299D01*
X596642Y287310D01*
X596703Y287375D01*
X596769Y287435D01*
X596780Y287456D01*
X596796Y287473D01*
X596831Y287555D01*
X596872Y287634D01*
X596875Y287661D01*
X596884Y287680D01*
X596886Y287730D01*
X596899Y287820D01*
X596899Y296942D01*
X596892Y296983D01*
X596894Y297026D01*
X596872Y297093D01*
X596860Y297162D01*
X596838Y297199D01*
X596825Y297239D01*
X596771Y297312D01*
X596745Y297356D01*
X596729Y297369D01*
X596713Y297390D01*
X595248Y298855D01*
X595248Y310745D01*
X603655Y319152D01*
X615545Y319152D01*
X618042Y316655D01*
X618115Y316604D01*
X618184Y316548D01*
X618206Y316540D01*
X618226Y316527D01*
X618312Y316505D01*
X618396Y316476D01*
X618420Y316477D01*
X618443Y316471D01*
X618532Y316480D01*
X618621Y316483D01*
X618643Y316492D01*
X618666Y316494D01*
X618746Y316534D01*
X618828Y316567D01*
X618846Y316583D01*
X618867Y316593D01*
X618928Y316658D01*
X618994Y316718D01*
X619005Y316740D01*
X619021Y316757D01*
X619056Y316839D01*
X619097Y316918D01*
X619100Y316944D01*
X619109Y316963D01*
X619111Y317014D01*
X619124Y317103D01*
X619124Y343297D01*
X619108Y343384D01*
X619099Y343473D01*
X619089Y343494D01*
X619085Y343518D01*
X619039Y343594D01*
X619000Y343674D01*
X618983Y343690D01*
X618970Y343711D01*
X618901Y343767D01*
X618837Y343828D01*
X618815Y343837D01*
X618796Y343852D01*
X618712Y343881D01*
X618630Y343915D01*
X618606Y343916D01*
X618584Y343924D01*
X618495Y343921D01*
X618406Y343925D01*
X618383Y343918D01*
X618359Y343917D01*
X618277Y343884D01*
X618192Y343857D01*
X618171Y343841D01*
X618152Y343833D01*
X618114Y343799D01*
X618042Y343745D01*
X615545Y341248D01*
X603655Y341248D01*
X595248Y349655D01*
X595248Y361545D01*
X603655Y369952D01*
X607506Y369952D01*
X607593Y369968D01*
X607682Y369977D01*
X607703Y369987D01*
X607726Y369991D01*
X607803Y370037D01*
X607883Y370076D01*
X607899Y370093D01*
X607920Y370106D01*
X607976Y370175D01*
X608037Y370239D01*
X608046Y370261D01*
X608061Y370280D01*
X608089Y370364D01*
X608124Y370446D01*
X608125Y370470D01*
X608133Y370492D01*
X608130Y370581D01*
X608134Y370670D01*
X608127Y370693D01*
X608126Y370717D01*
X608093Y370799D01*
X608066Y370884D01*
X608050Y370905D01*
X608042Y370924D01*
X608008Y370962D01*
X607954Y371034D01*
X480700Y498288D01*
X480665Y498313D01*
X480636Y498344D01*
X480574Y498376D01*
X480516Y498417D01*
X480475Y498427D01*
X480437Y498447D01*
X480347Y498460D01*
X480298Y498473D01*
X480278Y498470D01*
X480251Y498474D01*
X429274Y498474D01*
X424606Y500408D01*
X421033Y503981D01*
X419686Y507232D01*
X419638Y507307D01*
X419596Y507385D01*
X419578Y507401D01*
X419565Y507421D01*
X419494Y507475D01*
X419427Y507533D01*
X419404Y507542D01*
X419385Y507556D01*
X419300Y507581D01*
X419217Y507613D01*
X419193Y507613D01*
X419170Y507620D01*
X419082Y507614D01*
X418993Y507615D01*
X418970Y507607D01*
X418947Y507605D01*
X418865Y507568D01*
X418782Y507538D01*
X418764Y507523D01*
X418742Y507513D01*
X418679Y507451D01*
X418611Y507393D01*
X418597Y507370D01*
X418582Y507356D01*
X418561Y507310D01*
X418514Y507232D01*
X417167Y503981D01*
X413594Y500408D01*
X408926Y498474D01*
X361124Y498474D01*
X361082Y498467D01*
X361039Y498469D01*
X360972Y498447D01*
X360903Y498435D01*
X360866Y498413D01*
X360826Y498400D01*
X360753Y498346D01*
X360710Y498320D01*
X360696Y498304D01*
X360675Y498288D01*
X156167Y293781D01*
X156123Y293717D01*
X156072Y293659D01*
X156059Y293626D01*
X156039Y293596D01*
X156020Y293521D01*
X155992Y293449D01*
X155992Y293414D01*
X155983Y293379D01*
X155991Y293302D01*
X155991Y293225D01*
X156003Y293191D01*
X156006Y293156D01*
X156041Y293087D01*
X156067Y293014D01*
X156090Y292987D01*
X156106Y292955D01*
X156162Y292902D01*
X156212Y292843D01*
X156247Y292822D01*
X156269Y292801D01*
X156312Y292783D01*
X156373Y292746D01*
X160246Y291142D01*
X164142Y287246D01*
X164514Y286348D01*
X164562Y286273D01*
X164604Y286195D01*
X164622Y286179D01*
X164635Y286159D01*
X164706Y286106D01*
X164773Y286047D01*
X164796Y286038D01*
X164815Y286024D01*
X164900Y285999D01*
X164983Y285967D01*
X165007Y285967D01*
X165030Y285960D01*
X165118Y285966D01*
X165207Y285965D01*
X165230Y285974D01*
X165253Y285975D01*
X165335Y286012D01*
X165418Y286042D01*
X165436Y286057D01*
X165458Y286067D01*
X165522Y286129D01*
X165589Y286187D01*
X165603Y286210D01*
X165618Y286224D01*
X165639Y286270D01*
X165686Y286348D01*
X166058Y287246D01*
X169954Y291142D01*
X175045Y293251D01*
X180555Y293251D01*
X185646Y291142D01*
X189542Y287246D01*
X189914Y286348D01*
X189962Y286273D01*
X190004Y286195D01*
X190022Y286179D01*
X190035Y286159D01*
X190106Y286106D01*
X190173Y286047D01*
X190196Y286038D01*
X190215Y286024D01*
X190300Y285999D01*
X190383Y285967D01*
X190407Y285967D01*
X190430Y285960D01*
X190518Y285966D01*
X190607Y285965D01*
X190630Y285974D01*
X190653Y285975D01*
X190735Y286012D01*
X190818Y286042D01*
X190836Y286057D01*
X190858Y286067D01*
X190922Y286129D01*
X190989Y286187D01*
X191003Y286210D01*
X191018Y286224D01*
X191039Y286270D01*
X191086Y286348D01*
X191458Y287246D01*
X195354Y291142D01*
X200445Y293251D01*
X205955Y293251D01*
X211046Y291142D01*
X214942Y287246D01*
X215314Y286348D01*
X215362Y286273D01*
X215404Y286195D01*
X215422Y286179D01*
X215435Y286159D01*
X215506Y286106D01*
X215573Y286047D01*
X215596Y286038D01*
X215615Y286024D01*
X215700Y285999D01*
X215783Y285967D01*
X215807Y285967D01*
X215830Y285960D01*
X215918Y285966D01*
X216007Y285965D01*
X216030Y285974D01*
X216053Y285975D01*
X216135Y286012D01*
X216218Y286042D01*
X216236Y286057D01*
X216258Y286067D01*
X216322Y286129D01*
X216389Y286187D01*
X216403Y286210D01*
X216418Y286224D01*
X216439Y286270D01*
X216486Y286348D01*
X216858Y287246D01*
X220754Y291142D01*
X225845Y293251D01*
X231355Y293251D01*
X236446Y291142D01*
X240342Y287246D01*
X240714Y286348D01*
X240762Y286273D01*
X240804Y286195D01*
X240822Y286179D01*
X240835Y286159D01*
X240906Y286106D01*
X240973Y286047D01*
X240996Y286038D01*
X241015Y286024D01*
X241100Y285999D01*
X241183Y285967D01*
X241207Y285967D01*
X241230Y285960D01*
X241318Y285966D01*
X241407Y285965D01*
X241430Y285974D01*
X241453Y285975D01*
X241535Y286012D01*
X241618Y286042D01*
X241636Y286057D01*
X241658Y286067D01*
X241722Y286129D01*
X241789Y286187D01*
X241803Y286210D01*
X241818Y286224D01*
X241839Y286270D01*
X241886Y286348D01*
X242258Y287246D01*
X246154Y291142D01*
X251245Y293251D01*
X256755Y293251D01*
X261846Y291142D01*
X265742Y287246D01*
X266114Y286348D01*
X266162Y286273D01*
X266204Y286195D01*
X266222Y286179D01*
X266235Y286159D01*
X266306Y286106D01*
X266373Y286047D01*
X266396Y286038D01*
X266415Y286024D01*
X266500Y285999D01*
X266583Y285967D01*
X266607Y285967D01*
X266630Y285960D01*
X266718Y285966D01*
X266807Y285965D01*
X266830Y285974D01*
X266853Y285975D01*
X266935Y286012D01*
X267018Y286042D01*
X267036Y286057D01*
X267058Y286067D01*
X267122Y286129D01*
X267189Y286187D01*
X267203Y286210D01*
X267218Y286224D01*
X267239Y286270D01*
X267286Y286348D01*
X267658Y287246D01*
X271554Y291142D01*
X276645Y293251D01*
X282155Y293251D01*
X287246Y291142D01*
X291142Y287246D01*
X291514Y286348D01*
X291562Y286273D01*
X291604Y286195D01*
X291622Y286179D01*
X291635Y286159D01*
X291706Y286106D01*
X291773Y286047D01*
X291796Y286038D01*
X291815Y286024D01*
X291900Y285999D01*
X291983Y285967D01*
X292007Y285967D01*
X292030Y285960D01*
X292118Y285966D01*
X292207Y285965D01*
X292230Y285974D01*
X292253Y285975D01*
X292335Y286012D01*
X292418Y286042D01*
X292436Y286057D01*
X292458Y286067D01*
X292522Y286129D01*
X292589Y286187D01*
X292603Y286210D01*
X292618Y286224D01*
X292639Y286270D01*
X292686Y286348D01*
X293058Y287246D01*
X296954Y291142D01*
X302045Y293251D01*
X307555Y293251D01*
X312646Y291142D01*
X316542Y287246D01*
X316914Y286348D01*
X316962Y286273D01*
X317004Y286195D01*
X317022Y286179D01*
X317035Y286159D01*
X317106Y286106D01*
X317173Y286047D01*
X317196Y286038D01*
X317215Y286024D01*
X317300Y285999D01*
X317383Y285967D01*
X317407Y285967D01*
X317430Y285960D01*
X317518Y285966D01*
X317607Y285965D01*
X317630Y285974D01*
X317653Y285975D01*
X317735Y286012D01*
X317818Y286042D01*
X317836Y286057D01*
X317858Y286067D01*
X317922Y286129D01*
X317989Y286187D01*
X318003Y286210D01*
X318018Y286224D01*
X318039Y286270D01*
X318086Y286348D01*
X318458Y287246D01*
X322354Y291142D01*
X327445Y293251D01*
X332955Y293251D01*
X338046Y291142D01*
X341942Y287246D01*
X342314Y286348D01*
X342362Y286273D01*
X342404Y286195D01*
X342422Y286179D01*
X342435Y286159D01*
X342506Y286106D01*
X342573Y286047D01*
X342596Y286038D01*
X342615Y286024D01*
X342700Y285999D01*
X342783Y285967D01*
X342807Y285967D01*
X342830Y285960D01*
X342918Y285966D01*
X343007Y285965D01*
X343030Y285974D01*
X343053Y285975D01*
X343135Y286012D01*
X343218Y286042D01*
X343236Y286057D01*
X343258Y286067D01*
X343322Y286129D01*
X343389Y286187D01*
X343403Y286210D01*
X343418Y286224D01*
X343439Y286270D01*
X343486Y286348D01*
X343858Y287246D01*
X347754Y291142D01*
X352845Y293251D01*
X358355Y293251D01*
X363446Y291142D01*
X367342Y287246D01*
X367714Y286348D01*
X367762Y286273D01*
X367804Y286195D01*
X367822Y286179D01*
X367835Y286159D01*
X367906Y286106D01*
X367973Y286047D01*
X367996Y286038D01*
X368015Y286024D01*
X368100Y285999D01*
X368183Y285967D01*
X368207Y285967D01*
X368230Y285960D01*
X368318Y285966D01*
X368407Y285965D01*
X368430Y285974D01*
X368453Y285975D01*
X368535Y286012D01*
X368618Y286042D01*
X368636Y286057D01*
X368658Y286067D01*
X368722Y286129D01*
X368789Y286187D01*
X368803Y286210D01*
X368818Y286224D01*
X368839Y286270D01*
X368886Y286348D01*
X369258Y287246D01*
X373154Y291142D01*
X378245Y293251D01*
X383755Y293251D01*
X388846Y291142D01*
X392742Y287246D01*
X393114Y286348D01*
X393162Y286273D01*
X393204Y286195D01*
X393222Y286179D01*
X393235Y286159D01*
X393306Y286106D01*
X393373Y286047D01*
X393396Y286038D01*
X393415Y286024D01*
X393500Y285999D01*
X393583Y285967D01*
X393607Y285967D01*
X393630Y285960D01*
X393718Y285966D01*
X393807Y285965D01*
X393830Y285974D01*
X393853Y285975D01*
X393935Y286012D01*
X394018Y286042D01*
X394036Y286057D01*
X394058Y286067D01*
X394122Y286129D01*
X394189Y286187D01*
X394203Y286210D01*
X394218Y286224D01*
X394239Y286270D01*
X394286Y286348D01*
X394658Y287246D01*
X398554Y291142D01*
X403645Y293251D01*
X409155Y293251D01*
X414246Y291142D01*
X418142Y287246D01*
X418514Y286348D01*
X418562Y286273D01*
X418604Y286195D01*
X418622Y286179D01*
X418635Y286159D01*
X418706Y286106D01*
X418773Y286047D01*
X418796Y286038D01*
X418815Y286024D01*
X418900Y285999D01*
X418983Y285967D01*
X419007Y285967D01*
X419030Y285960D01*
X419118Y285966D01*
X419207Y285965D01*
X419230Y285974D01*
X419253Y285975D01*
X419335Y286012D01*
X419418Y286042D01*
X419436Y286057D01*
X419458Y286067D01*
X419522Y286129D01*
X419589Y286187D01*
X419603Y286210D01*
X419618Y286224D01*
X419639Y286270D01*
X419686Y286348D01*
X420058Y287246D01*
X423954Y291142D01*
X429045Y293251D01*
X434555Y293251D01*
X439646Y291142D01*
X443542Y287246D01*
X443914Y286348D01*
X443962Y286273D01*
X444004Y286195D01*
X444022Y286179D01*
X444035Y286159D01*
X444106Y286106D01*
X444173Y286047D01*
X444196Y286038D01*
X444215Y286024D01*
X444300Y285999D01*
X444383Y285967D01*
X444407Y285967D01*
X444430Y285960D01*
X444518Y285966D01*
X444607Y285965D01*
X444630Y285974D01*
X444653Y285975D01*
X444735Y286012D01*
X444818Y286042D01*
X444836Y286057D01*
X444858Y286067D01*
X444922Y286129D01*
X444989Y286187D01*
X445003Y286210D01*
X445018Y286224D01*
X445039Y286270D01*
X445086Y286348D01*
X445458Y287246D01*
X449354Y291142D01*
X454445Y293251D01*
X459955Y293251D01*
X465046Y291142D01*
X468942Y287246D01*
X471051Y282155D01*
X471051Y276645D01*
X468942Y271554D01*
X465046Y267658D01*
X459955Y265549D01*
X454445Y265549D01*
X449354Y267658D01*
X445458Y271554D01*
X445086Y272452D01*
X445038Y272527D01*
X444995Y272605D01*
X444978Y272621D01*
X444965Y272641D01*
X444894Y272695D01*
X444827Y272753D01*
X444804Y272762D01*
X444785Y272776D01*
X444700Y272801D01*
X444617Y272833D01*
X444593Y272833D01*
X444570Y272840D01*
X444481Y272834D01*
X444393Y272835D01*
X444370Y272826D01*
X444347Y272825D01*
X444265Y272788D01*
X444182Y272758D01*
X444163Y272743D01*
X444142Y272733D01*
X444078Y272670D01*
X444011Y272613D01*
X443997Y272590D01*
X443982Y272576D01*
X443961Y272530D01*
X443914Y272452D01*
X443542Y271554D01*
X439646Y267658D01*
X434555Y265549D01*
X429045Y265549D01*
X423954Y267658D01*
X420058Y271554D01*
X419686Y272452D01*
X419638Y272527D01*
X419595Y272605D01*
X419578Y272621D01*
X419565Y272641D01*
X419494Y272695D01*
X419427Y272753D01*
X419404Y272762D01*
X419385Y272776D01*
X419300Y272801D01*
X419217Y272833D01*
X419193Y272833D01*
X419170Y272840D01*
X419081Y272834D01*
X418993Y272835D01*
X418970Y272826D01*
X418947Y272825D01*
X418865Y272788D01*
X418782Y272758D01*
X418763Y272743D01*
X418742Y272733D01*
X418678Y272670D01*
X418611Y272613D01*
X418597Y272590D01*
X418582Y272576D01*
X418561Y272530D01*
X418514Y272452D01*
X418142Y271554D01*
X414246Y267658D01*
X409155Y265549D01*
X403645Y265549D01*
X398554Y267658D01*
X394783Y271429D01*
X394710Y271479D01*
X394641Y271536D01*
X394619Y271543D01*
X394599Y271557D01*
X394513Y271579D01*
X394429Y271607D01*
X394405Y271607D01*
X394382Y271613D01*
X394293Y271603D01*
X394204Y271601D01*
X394182Y271592D01*
X394159Y271589D01*
X394079Y271550D01*
X393997Y271517D01*
X393979Y271501D01*
X393958Y271490D01*
X393897Y271425D01*
X393831Y271365D01*
X393820Y271344D01*
X393804Y271327D01*
X393769Y271245D01*
X393728Y271166D01*
X393725Y271139D01*
X393716Y271120D01*
X393714Y271070D01*
X393701Y270980D01*
X393701Y211620D01*
X393717Y211532D01*
X393726Y211444D01*
X393736Y211422D01*
X393740Y211399D01*
X393786Y211322D01*
X393825Y211243D01*
X393842Y211226D01*
X393855Y211206D01*
X393924Y211150D01*
X393988Y211089D01*
X394010Y211079D01*
X394029Y211064D01*
X394113Y211036D01*
X394195Y211001D01*
X394219Y211000D01*
X394241Y210993D01*
X394330Y210995D01*
X394419Y210991D01*
X394442Y210998D01*
X394466Y210999D01*
X394548Y211032D01*
X394633Y211060D01*
X394654Y211076D01*
X394673Y211083D01*
X394711Y211117D01*
X394783Y211171D01*
X398554Y214942D01*
X403645Y217051D01*
X409155Y217051D01*
X414246Y214942D01*
X418142Y211046D01*
X418514Y210148D01*
X418543Y210103D01*
X418550Y210085D01*
X418564Y210070D01*
X418605Y209995D01*
X418622Y209979D01*
X418635Y209959D01*
X418706Y209905D01*
X418773Y209847D01*
X418796Y209838D01*
X418815Y209824D01*
X418900Y209799D01*
X418983Y209767D01*
X419007Y209767D01*
X419030Y209760D01*
X419119Y209766D01*
X419207Y209765D01*
X419230Y209774D01*
X419253Y209775D01*
X419335Y209812D01*
X419418Y209842D01*
X419437Y209857D01*
X419458Y209867D01*
X419522Y209930D01*
X419589Y209987D01*
X419603Y210010D01*
X419618Y210024D01*
X419639Y210070D01*
X419663Y210109D01*
X419669Y210117D01*
X419671Y210123D01*
X419686Y210148D01*
X420058Y211046D01*
X423954Y214942D01*
X429045Y217051D01*
X434555Y217051D01*
X439646Y214942D01*
X443542Y211046D01*
X444644Y208386D01*
X444660Y208360D01*
X444670Y208331D01*
X444740Y208236D01*
X444765Y208197D01*
X444774Y208191D01*
X444781Y208180D01*
X461130Y191831D01*
X464792Y188169D01*
X466726Y183501D01*
X466726Y180343D01*
X466744Y180244D01*
X466758Y180145D01*
X466763Y180134D01*
X466765Y180123D01*
X466817Y180036D01*
X466865Y179947D01*
X466873Y179940D01*
X466880Y179929D01*
X466958Y179866D01*
X467033Y179800D01*
X467045Y179795D01*
X467054Y179788D01*
X467149Y179756D01*
X467243Y179720D01*
X467255Y179720D01*
X467266Y179716D01*
X467366Y179719D01*
X467467Y179718D01*
X467479Y179722D01*
X467491Y179723D01*
X467583Y179760D01*
X467678Y179795D01*
X467687Y179803D01*
X467698Y179807D01*
X467773Y179875D01*
X467849Y179940D01*
X467856Y179951D01*
X467864Y179958D01*
X467885Y179999D01*
X467946Y180101D01*
X468200Y180714D01*
X468207Y180744D01*
X468221Y180771D01*
X468238Y180889D01*
X468248Y180933D01*
X468246Y180944D01*
X468248Y180957D01*
X468248Y183745D01*
X476655Y192152D01*
X477209Y192152D01*
X477297Y192168D01*
X477385Y192177D01*
X477406Y192187D01*
X477430Y192191D01*
X477506Y192237D01*
X477586Y192276D01*
X477602Y192293D01*
X477623Y192306D01*
X477679Y192375D01*
X477740Y192439D01*
X477749Y192461D01*
X477764Y192480D01*
X477793Y192564D01*
X477827Y192646D01*
X477829Y192670D01*
X477836Y192692D01*
X477833Y192781D01*
X477837Y192870D01*
X477830Y192893D01*
X477829Y192917D01*
X477796Y192999D01*
X477769Y193084D01*
X477753Y193105D01*
X477745Y193124D01*
X477711Y193162D01*
X477657Y193234D01*
X472058Y198833D01*
X472058Y201931D01*
X481965Y201931D01*
X482030Y201942D01*
X482095Y201944D01*
X482139Y201962D01*
X482186Y201970D01*
X482242Y202004D01*
X482303Y202029D01*
X482338Y202060D01*
X482379Y202085D01*
X482420Y202136D01*
X482469Y202180D01*
X482491Y202222D01*
X482520Y202259D01*
X482541Y202321D01*
X482571Y202380D01*
X482580Y202434D01*
X482592Y202471D01*
X482591Y202511D01*
X482599Y202565D01*
X482599Y203201D01*
X482601Y203201D01*
X482601Y202565D01*
X482613Y202500D01*
X482614Y202434D01*
X482632Y202391D01*
X482641Y202344D01*
X482674Y202287D01*
X482699Y202227D01*
X482731Y202192D01*
X482755Y202151D01*
X482806Y202110D01*
X482850Y202061D01*
X482892Y202039D01*
X482929Y202010D01*
X482991Y201989D01*
X483050Y201958D01*
X483104Y201950D01*
X483141Y201938D01*
X483181Y201939D01*
X483235Y201931D01*
X493142Y201931D01*
X493142Y198833D01*
X487543Y193234D01*
X487492Y193161D01*
X487436Y193092D01*
X487428Y193070D01*
X487415Y193050D01*
X487392Y192964D01*
X487364Y192880D01*
X487365Y192856D01*
X487359Y192833D01*
X487368Y192744D01*
X487371Y192655D01*
X487379Y192633D01*
X487382Y192610D01*
X487421Y192530D01*
X487455Y192448D01*
X487471Y192430D01*
X487481Y192409D01*
X487546Y192348D01*
X487606Y192282D01*
X487627Y192271D01*
X487645Y192255D01*
X487727Y192220D01*
X487806Y192179D01*
X487832Y192176D01*
X487851Y192167D01*
X487902Y192165D01*
X487991Y192152D01*
X488545Y192152D01*
X496952Y183745D01*
X496952Y171855D01*
X492312Y167215D01*
X492287Y167180D01*
X492256Y167152D01*
X492224Y167089D01*
X492183Y167031D01*
X492173Y166990D01*
X492153Y166952D01*
X492140Y166862D01*
X492127Y166814D01*
X492130Y166793D01*
X492126Y166767D01*
X492126Y114252D01*
X492139Y114176D01*
X492145Y114099D01*
X492159Y114066D01*
X492165Y114031D01*
X492205Y113965D01*
X492237Y113894D01*
X492261Y113869D01*
X492280Y113838D01*
X492340Y113789D01*
X492394Y113734D01*
X492426Y113719D01*
X492454Y113697D01*
X492527Y113672D01*
X492597Y113639D01*
X492633Y113636D01*
X492666Y113625D01*
X492744Y113627D01*
X492821Y113621D01*
X492860Y113630D01*
X492891Y113631D01*
X492934Y113649D01*
X493003Y113666D01*
X497601Y115571D01*
X503746Y115571D01*
X503788Y115578D01*
X503831Y115576D01*
X503898Y115598D01*
X503967Y115610D01*
X504004Y115632D01*
X504044Y115645D01*
X504117Y115699D01*
X504160Y115725D01*
X504174Y115741D01*
X504195Y115757D01*
X520513Y132075D01*
X520538Y132110D01*
X520569Y132139D01*
X520601Y132201D01*
X520642Y132259D01*
X520652Y132300D01*
X520672Y132338D01*
X520685Y132428D01*
X520698Y132477D01*
X520695Y132497D01*
X520699Y132524D01*
X520699Y169942D01*
X520692Y169983D01*
X520694Y170026D01*
X520672Y170093D01*
X520660Y170162D01*
X520638Y170199D01*
X520625Y170239D01*
X520571Y170312D01*
X520545Y170356D01*
X520529Y170369D01*
X520513Y170390D01*
X519048Y171855D01*
X519048Y183745D01*
X527455Y192152D01*
X528009Y192152D01*
X528097Y192168D01*
X528185Y192177D01*
X528206Y192187D01*
X528230Y192191D01*
X528306Y192237D01*
X528386Y192276D01*
X528402Y192293D01*
X528423Y192306D01*
X528479Y192375D01*
X528540Y192439D01*
X528549Y192461D01*
X528564Y192480D01*
X528593Y192564D01*
X528627Y192646D01*
X528629Y192670D01*
X528636Y192692D01*
X528633Y192781D01*
X528637Y192870D01*
X528630Y192893D01*
X528629Y192917D01*
X528596Y192999D01*
X528569Y193084D01*
X528553Y193105D01*
X528545Y193124D01*
X528511Y193162D01*
X528457Y193234D01*
X522858Y198833D01*
X522858Y201931D01*
X532765Y201931D01*
X532830Y201942D01*
X532895Y201944D01*
X532939Y201962D01*
X532986Y201970D01*
X533042Y202004D01*
X533103Y202029D01*
X533138Y202060D01*
X533179Y202085D01*
X533220Y202136D01*
X533269Y202180D01*
X533291Y202222D01*
X533320Y202259D01*
X533341Y202321D01*
X533371Y202380D01*
X533380Y202434D01*
X533392Y202471D01*
X533391Y202511D01*
X533399Y202565D01*
X533399Y203201D01*
X533401Y203201D01*
X533401Y202565D01*
X533413Y202500D01*
X533414Y202434D01*
X533432Y202391D01*
X533441Y202344D01*
X533474Y202287D01*
X533499Y202227D01*
X533531Y202192D01*
X533555Y202151D01*
X533606Y202110D01*
X533650Y202061D01*
X533692Y202039D01*
X533729Y202010D01*
X533791Y201989D01*
X533850Y201958D01*
X533904Y201950D01*
X533941Y201938D01*
X533981Y201939D01*
X534035Y201931D01*
X543942Y201931D01*
X543942Y198833D01*
X538343Y193234D01*
X538292Y193161D01*
X538236Y193092D01*
X538228Y193070D01*
X538215Y193050D01*
X538192Y192964D01*
X538164Y192880D01*
X538165Y192856D01*
X538159Y192833D01*
X538168Y192744D01*
X538171Y192655D01*
X538179Y192633D01*
X538182Y192610D01*
X538221Y192530D01*
X538255Y192448D01*
X538271Y192430D01*
X538281Y192409D01*
X538346Y192348D01*
X538406Y192282D01*
X538427Y192271D01*
X538445Y192255D01*
X538527Y192220D01*
X538606Y192179D01*
X538632Y192176D01*
X538651Y192167D01*
X538702Y192165D01*
X538791Y192152D01*
X539345Y192152D01*
X547752Y183745D01*
X547752Y171855D01*
X546287Y170390D01*
X546262Y170355D01*
X546231Y170327D01*
X546199Y170264D01*
X546158Y170206D01*
X546148Y170165D01*
X546128Y170127D01*
X546115Y170037D01*
X546102Y169989D01*
X546105Y169968D01*
X546101Y169942D01*
X546101Y124474D01*
X544167Y119806D01*
X529641Y105280D01*
X529611Y105235D01*
X529572Y105197D01*
X529547Y105144D01*
X529513Y105096D01*
X529500Y105043D01*
X529477Y104994D01*
X529472Y104935D01*
X529457Y104878D01*
X529463Y104824D01*
X529459Y104770D01*
X529476Y104701D01*
X529481Y104655D01*
X529494Y104628D01*
X529504Y104589D01*
X529591Y104379D01*
X529591Y98821D01*
X527464Y93686D01*
X523534Y89756D01*
X518399Y87629D01*
X497601Y87629D01*
X493003Y89534D01*
X492927Y89550D01*
X492854Y89575D01*
X492818Y89574D01*
X492783Y89582D01*
X492707Y89571D01*
X492629Y89569D01*
X492597Y89555D01*
X492561Y89550D01*
X492493Y89513D01*
X492422Y89484D01*
X492395Y89460D01*
X492364Y89443D01*
X492313Y89385D01*
X492256Y89333D01*
X492240Y89301D01*
X492216Y89275D01*
X492189Y89202D01*
X492153Y89133D01*
X492147Y89093D01*
X492137Y89065D01*
X492136Y89018D01*
X492126Y88948D01*
X492126Y83846D01*
X492141Y83759D01*
X492151Y83670D01*
X492161Y83649D01*
X492165Y83626D01*
X492211Y83549D01*
X492250Y83469D01*
X492267Y83453D01*
X492280Y83432D01*
X492349Y83376D01*
X492413Y83315D01*
X492435Y83306D01*
X492454Y83291D01*
X492538Y83262D01*
X492620Y83228D01*
X492644Y83227D01*
X492666Y83219D01*
X492755Y83222D01*
X492844Y83218D01*
X492867Y83225D01*
X492891Y83226D01*
X492973Y83259D01*
X493058Y83286D01*
X493079Y83302D01*
X493098Y83310D01*
X493136Y83344D01*
X493208Y83398D01*
X493761Y83950D01*
X495055Y84890D01*
X496480Y85616D01*
X498001Y86111D01*
X499580Y86361D01*
X506731Y86361D01*
X506731Y76835D01*
X506742Y76770D01*
X506744Y76705D01*
X506762Y76661D01*
X506770Y76614D01*
X506804Y76558D01*
X506829Y76497D01*
X506860Y76462D01*
X506885Y76421D01*
X506936Y76380D01*
X506980Y76331D01*
X507022Y76309D01*
X507059Y76280D01*
X507121Y76259D01*
X507180Y76229D01*
X507234Y76220D01*
X507271Y76208D01*
X507311Y76209D01*
X507365Y76201D01*
X508001Y76201D01*
X508001Y75565D01*
X508013Y75500D01*
X508014Y75434D01*
X508032Y75391D01*
X508041Y75344D01*
X508074Y75287D01*
X508099Y75227D01*
X508131Y75192D01*
X508155Y75151D01*
X508206Y75110D01*
X508250Y75061D01*
X508292Y75039D01*
X508329Y75010D01*
X508391Y74989D01*
X508450Y74958D01*
X508504Y74950D01*
X508541Y74938D01*
X508581Y74939D01*
X508635Y74931D01*
X525706Y74931D01*
X525531Y73821D01*
X525036Y72300D01*
X524310Y70875D01*
X523370Y69581D01*
X522239Y68450D01*
X520945Y67510D01*
X519520Y66784D01*
X517999Y66289D01*
X516420Y66039D01*
X512076Y66039D01*
X512042Y66033D01*
X512006Y66035D01*
X511932Y66013D01*
X511856Y66000D01*
X511825Y65982D01*
X511791Y65972D01*
X511729Y65925D01*
X511662Y65885D01*
X511640Y65858D01*
X511612Y65837D01*
X511570Y65772D01*
X511521Y65711D01*
X511510Y65678D01*
X511491Y65648D01*
X511474Y65572D01*
X511449Y65499D01*
X511450Y65463D01*
X511443Y65429D01*
X511454Y65352D01*
X511456Y65274D01*
X511469Y65242D01*
X511474Y65207D01*
X511511Y65138D01*
X511540Y65067D01*
X511564Y65040D01*
X511581Y65009D01*
X511639Y64958D01*
X511691Y64901D01*
X511723Y64885D01*
X511749Y64862D01*
X511847Y64821D01*
X511891Y64798D01*
X511907Y64796D01*
X511923Y64790D01*
X511972Y64786D01*
X512077Y64771D01*
X518399Y64771D01*
X521348Y63549D01*
X521378Y63542D01*
X521406Y63528D01*
X521523Y63511D01*
X521568Y63501D01*
X521578Y63503D01*
X521591Y63501D01*
X570609Y63501D01*
X570639Y63506D01*
G37*
G36*
X190624Y34939D02*
X190624Y34939D01*
X190701Y34945D01*
X190734Y34959D01*
X190769Y34965D01*
X190836Y35005D01*
X190906Y35037D01*
X190931Y35061D01*
X190962Y35080D01*
X191011Y35140D01*
X191066Y35194D01*
X191081Y35226D01*
X191103Y35254D01*
X191128Y35327D01*
X191161Y35397D01*
X191164Y35433D01*
X191175Y35466D01*
X191173Y35544D01*
X191179Y35621D01*
X191170Y35660D01*
X191169Y35691D01*
X191151Y35734D01*
X191134Y35803D01*
X189229Y40401D01*
X189229Y61199D01*
X191356Y66334D01*
X195286Y70264D01*
X200421Y72391D01*
X205979Y72391D01*
X211114Y70264D01*
X215044Y66334D01*
X217171Y61199D01*
X217171Y40401D01*
X215266Y35803D01*
X215249Y35727D01*
X215225Y35654D01*
X215226Y35618D01*
X215218Y35583D01*
X215229Y35507D01*
X215231Y35429D01*
X215245Y35397D01*
X215250Y35361D01*
X215287Y35293D01*
X215316Y35222D01*
X215340Y35195D01*
X215356Y35164D01*
X215415Y35113D01*
X215467Y35056D01*
X215499Y35040D01*
X215525Y35016D01*
X215598Y34989D01*
X215667Y34953D01*
X215707Y34947D01*
X215735Y34937D01*
X215782Y34936D01*
X215852Y34926D01*
X220954Y34926D01*
X221041Y34941D01*
X221130Y34951D01*
X221151Y34961D01*
X221174Y34965D01*
X221251Y35011D01*
X221331Y35050D01*
X221347Y35067D01*
X221368Y35080D01*
X221424Y35149D01*
X221485Y35213D01*
X221494Y35235D01*
X221509Y35254D01*
X221538Y35338D01*
X221572Y35420D01*
X221573Y35444D01*
X221581Y35466D01*
X221578Y35555D01*
X221582Y35644D01*
X221575Y35667D01*
X221574Y35691D01*
X221541Y35773D01*
X221514Y35858D01*
X221498Y35879D01*
X221490Y35898D01*
X221456Y35936D01*
X221402Y36008D01*
X220850Y36561D01*
X219910Y37855D01*
X219184Y39280D01*
X218689Y40801D01*
X218439Y42380D01*
X218439Y49531D01*
X227965Y49531D01*
X228030Y49542D01*
X228095Y49544D01*
X228139Y49562D01*
X228186Y49570D01*
X228242Y49604D01*
X228303Y49629D01*
X228338Y49660D01*
X228379Y49685D01*
X228420Y49736D01*
X228469Y49780D01*
X228491Y49822D01*
X228520Y49859D01*
X228541Y49921D01*
X228571Y49980D01*
X228580Y50034D01*
X228592Y50071D01*
X228591Y50111D01*
X228599Y50165D01*
X228599Y50801D01*
X228601Y50801D01*
X228601Y50165D01*
X228613Y50100D01*
X228614Y50034D01*
X228632Y49991D01*
X228641Y49944D01*
X228674Y49887D01*
X228699Y49827D01*
X228731Y49792D01*
X228755Y49751D01*
X228806Y49710D01*
X228850Y49661D01*
X228892Y49639D01*
X228929Y49610D01*
X228991Y49589D01*
X229050Y49558D01*
X229104Y49550D01*
X229141Y49538D01*
X229181Y49539D01*
X229235Y49531D01*
X238761Y49531D01*
X238761Y42380D01*
X238511Y40801D01*
X238016Y39280D01*
X237290Y37855D01*
X236350Y36561D01*
X235798Y36008D01*
X235747Y35935D01*
X235691Y35866D01*
X235683Y35844D01*
X235670Y35824D01*
X235648Y35738D01*
X235619Y35654D01*
X235620Y35630D01*
X235614Y35607D01*
X235623Y35518D01*
X235626Y35429D01*
X235635Y35407D01*
X235637Y35384D01*
X235677Y35304D01*
X235710Y35222D01*
X235726Y35204D01*
X235737Y35183D01*
X235801Y35122D01*
X235861Y35056D01*
X235882Y35045D01*
X235900Y35029D01*
X235982Y34994D01*
X236061Y34953D01*
X236087Y34950D01*
X236106Y34941D01*
X236157Y34939D01*
X236246Y34926D01*
X292148Y34926D01*
X292224Y34939D01*
X292301Y34945D01*
X292334Y34959D01*
X292369Y34965D01*
X292436Y35005D01*
X292506Y35037D01*
X292531Y35061D01*
X292562Y35080D01*
X292611Y35140D01*
X292666Y35194D01*
X292681Y35226D01*
X292703Y35254D01*
X292728Y35327D01*
X292761Y35397D01*
X292764Y35433D01*
X292775Y35466D01*
X292773Y35544D01*
X292779Y35621D01*
X292770Y35660D01*
X292769Y35691D01*
X292751Y35734D01*
X292734Y35803D01*
X290829Y40401D01*
X290829Y61199D01*
X292051Y64148D01*
X292058Y64178D01*
X292072Y64206D01*
X292089Y64323D01*
X292099Y64368D01*
X292097Y64378D01*
X292099Y64391D01*
X292099Y66026D01*
X294033Y70694D01*
X297695Y74356D01*
X314138Y90800D01*
X314163Y90835D01*
X314194Y90864D01*
X314226Y90926D01*
X314267Y90984D01*
X314277Y91025D01*
X314297Y91063D01*
X314310Y91153D01*
X314323Y91202D01*
X314320Y91222D01*
X314324Y91249D01*
X314324Y115405D01*
X314309Y115493D01*
X314299Y115581D01*
X314289Y115603D01*
X314285Y115626D01*
X314239Y115703D01*
X314200Y115783D01*
X314183Y115799D01*
X314170Y115819D01*
X314101Y115875D01*
X314037Y115936D01*
X314015Y115946D01*
X313996Y115961D01*
X313912Y115989D01*
X313830Y116024D01*
X313806Y116025D01*
X313784Y116032D01*
X313695Y116030D01*
X313606Y116034D01*
X313583Y116027D01*
X313559Y116026D01*
X313477Y115992D01*
X313392Y115965D01*
X313371Y115949D01*
X313352Y115942D01*
X313314Y115908D01*
X313242Y115854D01*
X312646Y115258D01*
X307555Y113149D01*
X302045Y113149D01*
X296954Y115258D01*
X293058Y119154D01*
X290949Y124245D01*
X290949Y129755D01*
X293058Y134846D01*
X296954Y138742D01*
X302045Y140851D01*
X307555Y140851D01*
X312646Y138742D01*
X316542Y134846D01*
X316914Y133948D01*
X316962Y133873D01*
X317004Y133795D01*
X317022Y133779D01*
X317035Y133759D01*
X317106Y133706D01*
X317173Y133647D01*
X317196Y133638D01*
X317215Y133624D01*
X317300Y133599D01*
X317383Y133567D01*
X317407Y133567D01*
X317430Y133560D01*
X317518Y133566D01*
X317607Y133565D01*
X317630Y133574D01*
X317653Y133575D01*
X317735Y133612D01*
X317818Y133642D01*
X317836Y133657D01*
X317858Y133667D01*
X317922Y133729D01*
X317989Y133787D01*
X318003Y133810D01*
X318018Y133824D01*
X318039Y133870D01*
X318086Y133948D01*
X318458Y134846D01*
X322354Y138742D01*
X327445Y140851D01*
X332955Y140851D01*
X338046Y138742D01*
X341942Y134846D01*
X342314Y133948D01*
X342362Y133873D01*
X342404Y133795D01*
X342422Y133779D01*
X342435Y133759D01*
X342506Y133706D01*
X342573Y133647D01*
X342596Y133638D01*
X342615Y133624D01*
X342700Y133599D01*
X342783Y133567D01*
X342807Y133567D01*
X342830Y133560D01*
X342918Y133566D01*
X343007Y133565D01*
X343030Y133574D01*
X343053Y133575D01*
X343135Y133612D01*
X343218Y133642D01*
X343236Y133657D01*
X343258Y133667D01*
X343322Y133729D01*
X343389Y133787D01*
X343403Y133810D01*
X343418Y133824D01*
X343439Y133870D01*
X343486Y133948D01*
X343858Y134846D01*
X347754Y138742D01*
X352845Y140851D01*
X358355Y140851D01*
X363446Y138742D01*
X367342Y134846D01*
X367714Y133948D01*
X367762Y133873D01*
X367804Y133795D01*
X367822Y133779D01*
X367835Y133759D01*
X367906Y133706D01*
X367973Y133647D01*
X367996Y133638D01*
X368015Y133624D01*
X368100Y133599D01*
X368183Y133567D01*
X368207Y133567D01*
X368230Y133560D01*
X368318Y133566D01*
X368407Y133565D01*
X368430Y133574D01*
X368453Y133575D01*
X368535Y133612D01*
X368618Y133642D01*
X368636Y133657D01*
X368658Y133667D01*
X368722Y133729D01*
X368789Y133787D01*
X368803Y133810D01*
X368818Y133824D01*
X368839Y133870D01*
X368886Y133948D01*
X369258Y134846D01*
X373154Y138742D01*
X378245Y140851D01*
X383755Y140851D01*
X388846Y138742D01*
X392742Y134846D01*
X393114Y133948D01*
X393162Y133873D01*
X393204Y133795D01*
X393222Y133779D01*
X393235Y133759D01*
X393306Y133706D01*
X393373Y133647D01*
X393396Y133638D01*
X393415Y133624D01*
X393500Y133599D01*
X393583Y133567D01*
X393607Y133567D01*
X393630Y133560D01*
X393718Y133566D01*
X393807Y133565D01*
X393830Y133574D01*
X393853Y133575D01*
X393935Y133612D01*
X394018Y133642D01*
X394036Y133657D01*
X394058Y133667D01*
X394122Y133729D01*
X394189Y133787D01*
X394203Y133810D01*
X394218Y133824D01*
X394239Y133870D01*
X394286Y133948D01*
X394658Y134846D01*
X398554Y138742D01*
X403645Y140851D01*
X409155Y140851D01*
X414246Y138742D01*
X418142Y134846D01*
X419244Y132186D01*
X419260Y132160D01*
X419270Y132131D01*
X419310Y132077D01*
X419312Y132072D01*
X419321Y132062D01*
X419340Y132036D01*
X419365Y131997D01*
X419373Y131991D01*
X419381Y131980D01*
X420342Y131019D01*
X420921Y129623D01*
X420921Y129621D01*
X420922Y129620D01*
X420950Y129576D01*
X420967Y129535D01*
X421001Y129498D01*
X421042Y129434D01*
X421043Y129433D01*
X421044Y129432D01*
X421099Y129391D01*
X421118Y129369D01*
X421148Y129354D01*
X421221Y129299D01*
X421223Y129299D01*
X421224Y129298D01*
X421303Y129275D01*
X421318Y129267D01*
X421342Y129263D01*
X421436Y129235D01*
X421438Y129235D01*
X421439Y129235D01*
X421502Y129239D01*
X421503Y129239D01*
X421509Y129239D01*
X421516Y129240D01*
X421546Y129242D01*
X421660Y129250D01*
X421661Y129251D01*
X421663Y129251D01*
X421721Y129277D01*
X421730Y129279D01*
X421749Y129290D01*
X421763Y129296D01*
X421865Y129342D01*
X421866Y129343D01*
X421867Y129343D01*
X421907Y129383D01*
X421923Y129393D01*
X421950Y129426D01*
X422025Y129499D01*
X422025Y129501D01*
X422026Y129502D01*
X422050Y129548D01*
X422065Y129567D01*
X422077Y129603D01*
X422110Y129669D01*
X422495Y130854D01*
X423212Y132262D01*
X424141Y133541D01*
X425259Y134659D01*
X426538Y135588D01*
X427946Y136305D01*
X429449Y136794D01*
X430531Y136965D01*
X430531Y127635D01*
X430542Y127570D01*
X430544Y127505D01*
X430562Y127461D01*
X430570Y127414D01*
X430604Y127358D01*
X430629Y127297D01*
X430660Y127262D01*
X430685Y127221D01*
X430736Y127180D01*
X430780Y127131D01*
X430822Y127109D01*
X430859Y127080D01*
X430921Y127059D01*
X430980Y127029D01*
X431034Y127020D01*
X431071Y127008D01*
X431111Y127009D01*
X431165Y127001D01*
X432435Y127001D01*
X432500Y127013D01*
X432565Y127014D01*
X432609Y127032D01*
X432656Y127041D01*
X432713Y127074D01*
X432773Y127099D01*
X432808Y127131D01*
X432849Y127155D01*
X432890Y127206D01*
X432939Y127250D01*
X432961Y127292D01*
X432990Y127329D01*
X433011Y127391D01*
X433042Y127450D01*
X433050Y127504D01*
X433062Y127541D01*
X433061Y127581D01*
X433069Y127635D01*
X433069Y136965D01*
X434151Y136794D01*
X435654Y136305D01*
X437062Y135588D01*
X438341Y134659D01*
X439459Y133541D01*
X440177Y132553D01*
X440196Y132534D01*
X440210Y132511D01*
X440277Y132457D01*
X440339Y132397D01*
X440363Y132387D01*
X440384Y132370D01*
X440465Y132342D01*
X440545Y132308D01*
X440571Y132307D01*
X440596Y132298D01*
X440682Y132301D01*
X440769Y132296D01*
X440794Y132304D01*
X440821Y132305D01*
X440900Y132337D01*
X440983Y132363D01*
X441004Y132379D01*
X441028Y132389D01*
X441092Y132447D01*
X441160Y132500D01*
X441174Y132522D01*
X441194Y132540D01*
X441234Y132617D01*
X441279Y132690D01*
X441284Y132716D01*
X441297Y132740D01*
X441316Y132872D01*
X441324Y132910D01*
X441323Y132917D01*
X441324Y132925D01*
X441324Y175451D01*
X441317Y175493D01*
X441319Y175536D01*
X441297Y175603D01*
X441285Y175672D01*
X441263Y175709D01*
X441250Y175749D01*
X441196Y175822D01*
X441170Y175865D01*
X441154Y175879D01*
X441138Y175900D01*
X426820Y190219D01*
X426795Y190236D01*
X426775Y190260D01*
X426673Y190321D01*
X426636Y190347D01*
X426625Y190349D01*
X426614Y190356D01*
X423954Y191458D01*
X420058Y195354D01*
X419686Y196252D01*
X419638Y196327D01*
X419596Y196405D01*
X419578Y196421D01*
X419565Y196441D01*
X419494Y196494D01*
X419427Y196553D01*
X419404Y196562D01*
X419385Y196576D01*
X419300Y196601D01*
X419217Y196633D01*
X419193Y196633D01*
X419170Y196640D01*
X419082Y196634D01*
X418993Y196635D01*
X418970Y196626D01*
X418947Y196625D01*
X418865Y196588D01*
X418782Y196558D01*
X418764Y196543D01*
X418742Y196533D01*
X418678Y196471D01*
X418611Y196413D01*
X418597Y196390D01*
X418582Y196376D01*
X418561Y196330D01*
X418514Y196252D01*
X418142Y195354D01*
X414246Y191458D01*
X409155Y189349D01*
X403645Y189349D01*
X398554Y191458D01*
X394658Y195354D01*
X394286Y196252D01*
X394238Y196327D01*
X394196Y196405D01*
X394178Y196421D01*
X394165Y196441D01*
X394094Y196494D01*
X394027Y196553D01*
X394004Y196562D01*
X393985Y196576D01*
X393900Y196601D01*
X393817Y196633D01*
X393793Y196633D01*
X393770Y196640D01*
X393682Y196634D01*
X393593Y196635D01*
X393570Y196626D01*
X393547Y196625D01*
X393465Y196588D01*
X393382Y196558D01*
X393364Y196543D01*
X393342Y196533D01*
X393278Y196471D01*
X393211Y196413D01*
X393197Y196390D01*
X393182Y196376D01*
X393161Y196330D01*
X393114Y196252D01*
X392742Y195354D01*
X388846Y191458D01*
X383755Y189349D01*
X378245Y189349D01*
X373154Y191458D01*
X369258Y195354D01*
X368886Y196252D01*
X368838Y196327D01*
X368796Y196405D01*
X368778Y196421D01*
X368765Y196441D01*
X368694Y196494D01*
X368627Y196553D01*
X368604Y196562D01*
X368585Y196576D01*
X368500Y196601D01*
X368417Y196633D01*
X368393Y196633D01*
X368370Y196640D01*
X368282Y196634D01*
X368193Y196635D01*
X368170Y196626D01*
X368147Y196625D01*
X368065Y196588D01*
X367982Y196558D01*
X367964Y196543D01*
X367942Y196533D01*
X367878Y196471D01*
X367811Y196413D01*
X367797Y196390D01*
X367782Y196376D01*
X367761Y196330D01*
X367714Y196252D01*
X367342Y195354D01*
X363446Y191458D01*
X358355Y189349D01*
X352845Y189349D01*
X347754Y191458D01*
X343858Y195354D01*
X341749Y200445D01*
X341749Y205955D01*
X342851Y208615D01*
X342858Y208645D01*
X342872Y208672D01*
X342889Y208789D01*
X342899Y208834D01*
X342897Y208845D01*
X342899Y208858D01*
X342899Y270980D01*
X342883Y271068D01*
X342874Y271156D01*
X342864Y271178D01*
X342860Y271201D01*
X342814Y271278D01*
X342775Y271357D01*
X342758Y271374D01*
X342745Y271394D01*
X342676Y271450D01*
X342612Y271511D01*
X342590Y271521D01*
X342571Y271536D01*
X342487Y271564D01*
X342405Y271599D01*
X342381Y271600D01*
X342359Y271607D01*
X342270Y271605D01*
X342181Y271609D01*
X342158Y271602D01*
X342134Y271601D01*
X342052Y271568D01*
X341967Y271540D01*
X341946Y271524D01*
X341927Y271517D01*
X341889Y271483D01*
X341817Y271429D01*
X338046Y267658D01*
X332955Y265549D01*
X327445Y265549D01*
X322354Y267658D01*
X318458Y271554D01*
X318086Y272452D01*
X318038Y272527D01*
X317995Y272605D01*
X317978Y272621D01*
X317965Y272641D01*
X317894Y272695D01*
X317827Y272753D01*
X317804Y272762D01*
X317785Y272776D01*
X317700Y272801D01*
X317617Y272833D01*
X317593Y272833D01*
X317570Y272840D01*
X317481Y272834D01*
X317393Y272835D01*
X317370Y272826D01*
X317347Y272825D01*
X317265Y272788D01*
X317182Y272758D01*
X317163Y272743D01*
X317142Y272733D01*
X317078Y272670D01*
X317011Y272613D01*
X316997Y272590D01*
X316982Y272576D01*
X316961Y272530D01*
X316914Y272452D01*
X316542Y271554D01*
X312646Y267658D01*
X307555Y265549D01*
X302045Y265549D01*
X296954Y267658D01*
X293058Y271554D01*
X292686Y272452D01*
X292638Y272527D01*
X292595Y272605D01*
X292578Y272621D01*
X292565Y272641D01*
X292494Y272695D01*
X292427Y272753D01*
X292404Y272762D01*
X292385Y272776D01*
X292300Y272801D01*
X292217Y272833D01*
X292193Y272833D01*
X292170Y272840D01*
X292081Y272834D01*
X291993Y272835D01*
X291970Y272826D01*
X291947Y272825D01*
X291865Y272788D01*
X291782Y272758D01*
X291763Y272743D01*
X291742Y272733D01*
X291678Y272670D01*
X291611Y272613D01*
X291597Y272590D01*
X291582Y272576D01*
X291561Y272530D01*
X291514Y272452D01*
X291142Y271554D01*
X287246Y267658D01*
X282155Y265549D01*
X276645Y265549D01*
X271554Y267658D01*
X267658Y271554D01*
X267286Y272452D01*
X267238Y272527D01*
X267195Y272605D01*
X267178Y272621D01*
X267165Y272641D01*
X267094Y272695D01*
X267027Y272753D01*
X267004Y272762D01*
X266985Y272776D01*
X266900Y272801D01*
X266817Y272833D01*
X266793Y272833D01*
X266770Y272840D01*
X266681Y272834D01*
X266593Y272835D01*
X266570Y272826D01*
X266547Y272825D01*
X266465Y272788D01*
X266382Y272758D01*
X266363Y272743D01*
X266342Y272733D01*
X266278Y272670D01*
X266211Y272613D01*
X266197Y272590D01*
X266182Y272576D01*
X266161Y272530D01*
X266114Y272452D01*
X265742Y271554D01*
X261846Y267658D01*
X256755Y265549D01*
X251245Y265549D01*
X246154Y267658D01*
X242258Y271554D01*
X241886Y272452D01*
X241838Y272527D01*
X241795Y272605D01*
X241778Y272621D01*
X241765Y272641D01*
X241694Y272695D01*
X241627Y272753D01*
X241604Y272762D01*
X241585Y272776D01*
X241500Y272801D01*
X241417Y272833D01*
X241393Y272833D01*
X241370Y272840D01*
X241281Y272834D01*
X241193Y272835D01*
X241170Y272826D01*
X241147Y272825D01*
X241065Y272788D01*
X240982Y272758D01*
X240963Y272743D01*
X240942Y272733D01*
X240878Y272670D01*
X240811Y272613D01*
X240797Y272590D01*
X240782Y272576D01*
X240761Y272530D01*
X240714Y272452D01*
X240342Y271554D01*
X236446Y267658D01*
X231355Y265549D01*
X225845Y265549D01*
X220754Y267658D01*
X216858Y271554D01*
X216486Y272452D01*
X216438Y272527D01*
X216395Y272605D01*
X216378Y272621D01*
X216365Y272641D01*
X216294Y272695D01*
X216227Y272753D01*
X216204Y272762D01*
X216185Y272776D01*
X216100Y272801D01*
X216017Y272833D01*
X215993Y272833D01*
X215970Y272840D01*
X215881Y272834D01*
X215793Y272835D01*
X215770Y272826D01*
X215747Y272825D01*
X215665Y272788D01*
X215582Y272758D01*
X215563Y272743D01*
X215542Y272733D01*
X215478Y272670D01*
X215411Y272613D01*
X215397Y272590D01*
X215382Y272576D01*
X215361Y272530D01*
X215314Y272452D01*
X214942Y271554D01*
X211046Y267658D01*
X205955Y265549D01*
X200445Y265549D01*
X195354Y267658D01*
X191458Y271554D01*
X191086Y272452D01*
X191038Y272527D01*
X190995Y272605D01*
X190978Y272621D01*
X190965Y272641D01*
X190894Y272695D01*
X190827Y272753D01*
X190804Y272762D01*
X190785Y272776D01*
X190700Y272801D01*
X190617Y272833D01*
X190593Y272833D01*
X190570Y272840D01*
X190481Y272834D01*
X190393Y272835D01*
X190370Y272826D01*
X190347Y272825D01*
X190265Y272788D01*
X190182Y272758D01*
X190163Y272743D01*
X190142Y272733D01*
X190078Y272670D01*
X190011Y272613D01*
X189997Y272590D01*
X189982Y272576D01*
X189961Y272530D01*
X189914Y272452D01*
X189542Y271554D01*
X185646Y267658D01*
X181773Y266054D01*
X181708Y266012D01*
X181638Y265978D01*
X181614Y265952D01*
X181584Y265933D01*
X181538Y265871D01*
X181485Y265814D01*
X181471Y265782D01*
X181449Y265753D01*
X181427Y265679D01*
X181397Y265608D01*
X181396Y265572D01*
X181385Y265538D01*
X181391Y265461D01*
X181387Y265384D01*
X181398Y265350D01*
X181400Y265314D01*
X181432Y265244D01*
X181456Y265170D01*
X181480Y265138D01*
X181492Y265110D01*
X181525Y265076D01*
X181567Y265019D01*
X205100Y241487D01*
X205135Y241462D01*
X205164Y241431D01*
X205226Y241399D01*
X205284Y241358D01*
X205325Y241348D01*
X205363Y241328D01*
X205453Y241315D01*
X205502Y241302D01*
X205522Y241305D01*
X205549Y241301D01*
X307326Y241301D01*
X311994Y239367D01*
X315567Y235794D01*
X317501Y231126D01*
X317501Y208858D01*
X317506Y208827D01*
X317504Y208797D01*
X317532Y208682D01*
X317540Y208637D01*
X317546Y208628D01*
X317549Y208615D01*
X318651Y205955D01*
X318651Y200445D01*
X316542Y195354D01*
X312646Y191458D01*
X307555Y189349D01*
X302045Y189349D01*
X296954Y191458D01*
X293058Y195354D01*
X290949Y200445D01*
X290949Y205955D01*
X292051Y208615D01*
X292058Y208645D01*
X292072Y208672D01*
X292089Y208789D01*
X292099Y208834D01*
X292097Y208845D01*
X292099Y208858D01*
X292099Y215265D01*
X292088Y215330D01*
X292086Y215396D01*
X292068Y215439D01*
X292060Y215486D01*
X292026Y215543D01*
X292001Y215603D01*
X291970Y215638D01*
X291945Y215679D01*
X291894Y215721D01*
X291850Y215769D01*
X291808Y215791D01*
X291771Y215820D01*
X291709Y215841D01*
X291650Y215872D01*
X291596Y215880D01*
X291559Y215892D01*
X291519Y215891D01*
X291465Y215899D01*
X212501Y215899D01*
X212475Y215895D01*
X212448Y215897D01*
X212365Y215875D01*
X212280Y215860D01*
X212257Y215846D01*
X212232Y215839D01*
X212161Y215789D01*
X212087Y215745D01*
X212070Y215725D01*
X212049Y215710D01*
X212000Y215638D01*
X211946Y215571D01*
X211937Y215546D01*
X211922Y215524D01*
X211901Y215440D01*
X211874Y215359D01*
X211874Y215332D01*
X211868Y215306D01*
X211878Y215221D01*
X211880Y215134D01*
X211890Y215110D01*
X211893Y215084D01*
X211932Y215006D01*
X211965Y214927D01*
X211982Y214907D01*
X211994Y214883D01*
X212090Y214789D01*
X212116Y214761D01*
X212122Y214758D01*
X212128Y214752D01*
X213129Y214025D01*
X214825Y212329D01*
X216235Y210388D01*
X217324Y208250D01*
X218065Y205969D01*
X218430Y203669D01*
X203835Y203669D01*
X203770Y203658D01*
X203705Y203656D01*
X203661Y203638D01*
X203614Y203630D01*
X203558Y203596D01*
X203497Y203571D01*
X203462Y203539D01*
X203421Y203515D01*
X203380Y203464D01*
X203331Y203420D01*
X203309Y203378D01*
X203280Y203341D01*
X203259Y203279D01*
X203229Y203220D01*
X203220Y203166D01*
X203208Y203129D01*
X203209Y203089D01*
X203201Y203035D01*
X203201Y202399D01*
X203199Y202399D01*
X203199Y203035D01*
X203187Y203100D01*
X203186Y203165D01*
X203168Y203209D01*
X203159Y203256D01*
X203126Y203313D01*
X203101Y203373D01*
X203069Y203408D01*
X203045Y203449D01*
X202994Y203490D01*
X202950Y203539D01*
X202908Y203561D01*
X202871Y203590D01*
X202809Y203611D01*
X202750Y203642D01*
X202696Y203650D01*
X202659Y203662D01*
X202619Y203661D01*
X202565Y203669D01*
X187970Y203669D01*
X188335Y205969D01*
X189076Y208250D01*
X190165Y210388D01*
X191575Y212329D01*
X193271Y214025D01*
X195212Y215435D01*
X195514Y215589D01*
X195565Y215628D01*
X195622Y215659D01*
X195654Y215695D01*
X195693Y215725D01*
X195727Y215779D01*
X195770Y215827D01*
X195787Y215873D01*
X195813Y215914D01*
X195827Y215977D01*
X195850Y216037D01*
X195850Y216086D01*
X195860Y216133D01*
X195851Y216197D01*
X195851Y216261D01*
X195835Y216307D01*
X195828Y216355D01*
X195797Y216412D01*
X195775Y216472D01*
X195743Y216510D01*
X195720Y216552D01*
X195671Y216594D01*
X195630Y216643D01*
X195581Y216673D01*
X195551Y216699D01*
X195515Y216713D01*
X195469Y216740D01*
X192831Y217833D01*
X189169Y221495D01*
X172533Y238130D01*
X172460Y238181D01*
X172391Y238237D01*
X172369Y238245D01*
X172349Y238258D01*
X172263Y238280D01*
X172179Y238309D01*
X172155Y238308D01*
X172132Y238314D01*
X172043Y238305D01*
X171954Y238302D01*
X171932Y238293D01*
X171909Y238291D01*
X171829Y238251D01*
X171747Y238218D01*
X171729Y238202D01*
X171708Y238191D01*
X171647Y238127D01*
X171581Y238066D01*
X171570Y238045D01*
X171554Y238028D01*
X171519Y237946D01*
X171478Y237867D01*
X171475Y237841D01*
X171466Y237821D01*
X171464Y237771D01*
X171451Y237682D01*
X171451Y35560D01*
X171462Y35495D01*
X171464Y35429D01*
X171482Y35386D01*
X171490Y35339D01*
X171524Y35282D01*
X171549Y35222D01*
X171580Y35187D01*
X171605Y35146D01*
X171656Y35104D01*
X171700Y35056D01*
X171742Y35034D01*
X171779Y35005D01*
X171841Y34984D01*
X171900Y34953D01*
X171954Y34945D01*
X171991Y34933D01*
X172031Y34934D01*
X172085Y34926D01*
X190548Y34926D01*
X190624Y34939D01*
G37*
G36*
X626217Y95489D02*
X626217Y95489D01*
X626241Y95489D01*
X626323Y95523D01*
X626408Y95550D01*
X626429Y95566D01*
X626448Y95574D01*
X626486Y95608D01*
X626558Y95662D01*
X630263Y99366D01*
X690000Y99366D01*
X690065Y99377D01*
X690131Y99379D01*
X690174Y99397D01*
X690221Y99405D01*
X690278Y99439D01*
X690338Y99464D01*
X690373Y99495D01*
X690414Y99520D01*
X690456Y99571D01*
X690504Y99615D01*
X690526Y99657D01*
X690555Y99694D01*
X690576Y99756D01*
X690607Y99815D01*
X690615Y99869D01*
X690627Y99906D01*
X690626Y99946D01*
X690634Y100000D01*
X690634Y550000D01*
X690623Y550065D01*
X690621Y550131D01*
X690603Y550174D01*
X690595Y550221D01*
X690561Y550278D01*
X690536Y550338D01*
X690505Y550373D01*
X690480Y550414D01*
X690429Y550456D01*
X690385Y550504D01*
X690343Y550526D01*
X690306Y550555D01*
X690244Y550576D01*
X690185Y550607D01*
X690131Y550615D01*
X690094Y550627D01*
X690054Y550626D01*
X690000Y550634D01*
X640434Y550634D01*
X640346Y550618D01*
X640257Y550609D01*
X640236Y550599D01*
X640213Y550595D01*
X640136Y550549D01*
X640056Y550510D01*
X640040Y550493D01*
X640019Y550480D01*
X639963Y550411D01*
X639902Y550347D01*
X639893Y550325D01*
X639878Y550306D01*
X639850Y550222D01*
X639815Y550140D01*
X639814Y550116D01*
X639806Y550094D01*
X639809Y550005D01*
X639805Y549916D01*
X639812Y549893D01*
X639813Y549869D01*
X639846Y549787D01*
X639874Y549702D01*
X639889Y549681D01*
X639897Y549662D01*
X639931Y549624D01*
X639985Y549552D01*
X661642Y527894D01*
X663576Y523226D01*
X663576Y248299D01*
X661642Y243631D01*
X632836Y214824D01*
X632785Y214751D01*
X632729Y214682D01*
X632721Y214660D01*
X632708Y214640D01*
X632686Y214554D01*
X632657Y214470D01*
X632658Y214446D01*
X632652Y214423D01*
X632661Y214334D01*
X632664Y214245D01*
X632673Y214223D01*
X632675Y214200D01*
X632715Y214120D01*
X632748Y214038D01*
X632764Y214020D01*
X632775Y213999D01*
X632839Y213938D01*
X632900Y213872D01*
X632921Y213861D01*
X632938Y213845D01*
X633020Y213810D01*
X633099Y213769D01*
X633125Y213766D01*
X633145Y213757D01*
X633195Y213755D01*
X633284Y213742D01*
X633731Y213742D01*
X633731Y204469D01*
X624458Y204469D01*
X624458Y204916D01*
X624442Y205003D01*
X624433Y205092D01*
X624423Y205113D01*
X624419Y205136D01*
X624373Y205213D01*
X624334Y205293D01*
X624317Y205309D01*
X624304Y205330D01*
X624235Y205386D01*
X624171Y205447D01*
X624149Y205456D01*
X624130Y205471D01*
X624046Y205499D01*
X623964Y205534D01*
X623940Y205535D01*
X623918Y205543D01*
X623829Y205540D01*
X623740Y205544D01*
X623717Y205537D01*
X623693Y205536D01*
X623611Y205503D01*
X623526Y205476D01*
X623505Y205460D01*
X623486Y205452D01*
X623448Y205418D01*
X623376Y205364D01*
X619312Y201300D01*
X619287Y201265D01*
X619256Y201236D01*
X619224Y201174D01*
X619183Y201116D01*
X619173Y201075D01*
X619153Y201037D01*
X619140Y200947D01*
X619127Y200898D01*
X619130Y200878D01*
X619126Y200851D01*
X619126Y191149D01*
X617192Y186481D01*
X597744Y167033D01*
X597292Y166846D01*
X597247Y166816D01*
X597197Y166796D01*
X597153Y166756D01*
X597103Y166724D01*
X597071Y166681D01*
X597031Y166645D01*
X597004Y166592D01*
X596969Y166545D01*
X596953Y166493D01*
X596928Y166445D01*
X596918Y166375D01*
X596905Y166330D01*
X596907Y166299D01*
X596901Y166260D01*
X596901Y115041D01*
X596910Y114988D01*
X596910Y114934D01*
X596930Y114878D01*
X596940Y114820D01*
X596968Y114774D01*
X596986Y114723D01*
X597025Y114678D01*
X597055Y114627D01*
X597097Y114593D01*
X597132Y114552D01*
X597193Y114515D01*
X597229Y114486D01*
X597258Y114476D01*
X597292Y114455D01*
X599197Y113666D01*
X599273Y113649D01*
X599346Y113625D01*
X599382Y113626D01*
X599417Y113618D01*
X599493Y113629D01*
X599571Y113631D01*
X599603Y113645D01*
X599639Y113650D01*
X599707Y113687D01*
X599778Y113716D01*
X599805Y113740D01*
X599836Y113756D01*
X599887Y113815D01*
X599944Y113867D01*
X599960Y113899D01*
X599984Y113925D01*
X600011Y113998D01*
X600047Y114067D01*
X600053Y114107D01*
X600063Y114135D01*
X600064Y114182D01*
X600074Y114252D01*
X600074Y158101D01*
X602008Y162769D01*
X605670Y166431D01*
X620462Y181224D01*
X620487Y181259D01*
X620518Y181288D01*
X620550Y181350D01*
X620591Y181408D01*
X620601Y181449D01*
X620621Y181487D01*
X620634Y181577D01*
X620647Y181626D01*
X620644Y181646D01*
X620648Y181673D01*
X620648Y183745D01*
X629055Y192152D01*
X629609Y192152D01*
X629697Y192168D01*
X629785Y192177D01*
X629806Y192187D01*
X629830Y192191D01*
X629906Y192237D01*
X629986Y192276D01*
X630002Y192293D01*
X630023Y192306D01*
X630079Y192375D01*
X630140Y192439D01*
X630149Y192461D01*
X630164Y192480D01*
X630193Y192564D01*
X630227Y192646D01*
X630229Y192670D01*
X630236Y192692D01*
X630233Y192781D01*
X630237Y192870D01*
X630230Y192893D01*
X630229Y192917D01*
X630196Y192999D01*
X630169Y193084D01*
X630153Y193105D01*
X630145Y193124D01*
X630111Y193162D01*
X630057Y193234D01*
X624458Y198833D01*
X624458Y201931D01*
X634365Y201931D01*
X634430Y201942D01*
X634495Y201944D01*
X634539Y201962D01*
X634586Y201970D01*
X634642Y202004D01*
X634703Y202029D01*
X634738Y202060D01*
X634779Y202085D01*
X634820Y202136D01*
X634869Y202180D01*
X634891Y202222D01*
X634920Y202259D01*
X634941Y202321D01*
X634971Y202380D01*
X634980Y202434D01*
X634992Y202471D01*
X634991Y202511D01*
X634999Y202565D01*
X634999Y203201D01*
X635001Y203201D01*
X635001Y202565D01*
X635013Y202500D01*
X635014Y202434D01*
X635032Y202391D01*
X635041Y202344D01*
X635074Y202287D01*
X635099Y202227D01*
X635131Y202192D01*
X635155Y202151D01*
X635206Y202110D01*
X635250Y202061D01*
X635292Y202039D01*
X635329Y202010D01*
X635391Y201989D01*
X635450Y201958D01*
X635504Y201950D01*
X635541Y201938D01*
X635581Y201939D01*
X635635Y201931D01*
X645542Y201931D01*
X645542Y198833D01*
X639943Y193234D01*
X639892Y193161D01*
X639836Y193092D01*
X639828Y193070D01*
X639815Y193050D01*
X639792Y192964D01*
X639764Y192880D01*
X639765Y192856D01*
X639759Y192833D01*
X639768Y192744D01*
X639771Y192655D01*
X639779Y192633D01*
X639782Y192610D01*
X639821Y192530D01*
X639855Y192448D01*
X639871Y192430D01*
X639881Y192409D01*
X639946Y192348D01*
X640006Y192282D01*
X640027Y192271D01*
X640045Y192255D01*
X640127Y192220D01*
X640206Y192179D01*
X640232Y192176D01*
X640251Y192167D01*
X640302Y192165D01*
X640391Y192152D01*
X640945Y192152D01*
X649352Y183745D01*
X649352Y171855D01*
X640945Y163448D01*
X638873Y163448D01*
X638831Y163441D01*
X638788Y163443D01*
X638721Y163421D01*
X638652Y163409D01*
X638615Y163387D01*
X638575Y163374D01*
X638502Y163320D01*
X638458Y163294D01*
X638445Y163278D01*
X638424Y163262D01*
X625662Y150500D01*
X625637Y150465D01*
X625606Y150436D01*
X625574Y150374D01*
X625533Y150316D01*
X625523Y150275D01*
X625503Y150237D01*
X625490Y150147D01*
X625477Y150098D01*
X625480Y150078D01*
X625476Y150051D01*
X625476Y96110D01*
X625492Y96022D01*
X625501Y95934D01*
X625511Y95913D01*
X625515Y95889D01*
X625561Y95812D01*
X625600Y95733D01*
X625617Y95716D01*
X625630Y95696D01*
X625699Y95640D01*
X625763Y95579D01*
X625785Y95570D01*
X625804Y95555D01*
X625888Y95526D01*
X625970Y95491D01*
X625994Y95490D01*
X626016Y95483D01*
X626105Y95485D01*
X626194Y95481D01*
X626217Y95489D01*
G37*
G36*
X637582Y377645D02*
X637582Y377645D01*
X637671Y377648D01*
X637693Y377657D01*
X637716Y377659D01*
X637796Y377699D01*
X637878Y377732D01*
X637896Y377748D01*
X637917Y377759D01*
X637978Y377823D01*
X638044Y377884D01*
X638055Y377905D01*
X638071Y377922D01*
X638106Y378004D01*
X638147Y378083D01*
X638150Y378109D01*
X638159Y378129D01*
X638161Y378179D01*
X638174Y378268D01*
X638174Y515176D01*
X638167Y515218D01*
X638169Y515261D01*
X638147Y515328D01*
X638135Y515397D01*
X638113Y515434D01*
X638100Y515474D01*
X638046Y515547D01*
X638020Y515590D01*
X638004Y515604D01*
X637988Y515625D01*
X623981Y529633D01*
X623917Y529677D01*
X623859Y529728D01*
X623826Y529741D01*
X623796Y529761D01*
X623721Y529780D01*
X623649Y529808D01*
X623614Y529808D01*
X623579Y529817D01*
X623502Y529809D01*
X623425Y529809D01*
X623391Y529797D01*
X623356Y529794D01*
X623287Y529759D01*
X623214Y529733D01*
X623187Y529710D01*
X623155Y529694D01*
X623102Y529638D01*
X623043Y529588D01*
X623022Y529553D01*
X623001Y529531D01*
X622983Y529488D01*
X622946Y529427D01*
X621342Y525554D01*
X617446Y521658D01*
X612355Y519549D01*
X606845Y519549D01*
X601754Y521658D01*
X597858Y525554D01*
X597486Y526452D01*
X597438Y526527D01*
X597396Y526605D01*
X597378Y526621D01*
X597365Y526641D01*
X597294Y526694D01*
X597227Y526753D01*
X597204Y526762D01*
X597185Y526776D01*
X597100Y526801D01*
X597017Y526833D01*
X596993Y526833D01*
X596970Y526840D01*
X596882Y526834D01*
X596793Y526835D01*
X596770Y526826D01*
X596747Y526825D01*
X596665Y526788D01*
X596582Y526758D01*
X596564Y526743D01*
X596542Y526733D01*
X596478Y526671D01*
X596411Y526613D01*
X596397Y526590D01*
X596382Y526576D01*
X596361Y526530D01*
X596314Y526452D01*
X595942Y525554D01*
X592046Y521658D01*
X586955Y519549D01*
X581445Y519549D01*
X576354Y521658D01*
X572458Y525554D01*
X572086Y526452D01*
X572038Y526527D01*
X571996Y526605D01*
X571978Y526621D01*
X571965Y526641D01*
X571894Y526694D01*
X571827Y526753D01*
X571804Y526762D01*
X571785Y526776D01*
X571700Y526801D01*
X571617Y526833D01*
X571593Y526833D01*
X571570Y526840D01*
X571482Y526834D01*
X571393Y526835D01*
X571370Y526826D01*
X571347Y526825D01*
X571265Y526788D01*
X571182Y526758D01*
X571164Y526743D01*
X571142Y526733D01*
X571078Y526671D01*
X571011Y526613D01*
X570997Y526590D01*
X570982Y526576D01*
X570961Y526530D01*
X570914Y526452D01*
X570542Y525554D01*
X566646Y521658D01*
X561555Y519549D01*
X556045Y519549D01*
X550954Y521658D01*
X547058Y525554D01*
X546686Y526452D01*
X546638Y526527D01*
X546596Y526605D01*
X546578Y526621D01*
X546565Y526641D01*
X546494Y526694D01*
X546427Y526753D01*
X546404Y526762D01*
X546385Y526776D01*
X546300Y526801D01*
X546217Y526833D01*
X546193Y526833D01*
X546170Y526840D01*
X546082Y526834D01*
X545993Y526835D01*
X545970Y526826D01*
X545947Y526825D01*
X545865Y526788D01*
X545782Y526758D01*
X545764Y526743D01*
X545742Y526733D01*
X545678Y526671D01*
X545611Y526613D01*
X545597Y526590D01*
X545582Y526576D01*
X545561Y526530D01*
X545514Y526452D01*
X545142Y525554D01*
X541246Y521658D01*
X536155Y519549D01*
X530645Y519549D01*
X525554Y521658D01*
X521658Y525554D01*
X521286Y526452D01*
X521238Y526527D01*
X521196Y526605D01*
X521178Y526621D01*
X521165Y526641D01*
X521094Y526694D01*
X521027Y526753D01*
X521004Y526762D01*
X520985Y526776D01*
X520900Y526801D01*
X520817Y526833D01*
X520793Y526833D01*
X520770Y526840D01*
X520682Y526834D01*
X520593Y526835D01*
X520570Y526826D01*
X520547Y526825D01*
X520465Y526788D01*
X520382Y526758D01*
X520364Y526743D01*
X520342Y526733D01*
X520278Y526671D01*
X520211Y526613D01*
X520197Y526590D01*
X520182Y526576D01*
X520161Y526530D01*
X520114Y526452D01*
X519742Y525554D01*
X515846Y521658D01*
X510755Y519549D01*
X505245Y519549D01*
X500154Y521658D01*
X496258Y525554D01*
X495886Y526452D01*
X495838Y526527D01*
X495796Y526605D01*
X495778Y526621D01*
X495765Y526641D01*
X495694Y526694D01*
X495627Y526753D01*
X495604Y526762D01*
X495585Y526776D01*
X495500Y526801D01*
X495417Y526833D01*
X495393Y526833D01*
X495370Y526840D01*
X495282Y526834D01*
X495193Y526835D01*
X495170Y526826D01*
X495147Y526825D01*
X495065Y526788D01*
X494982Y526758D01*
X494964Y526743D01*
X494942Y526733D01*
X494878Y526671D01*
X494811Y526613D01*
X494797Y526590D01*
X494782Y526576D01*
X494761Y526530D01*
X494714Y526452D01*
X494342Y525554D01*
X492057Y523269D01*
X492013Y523206D01*
X491962Y523147D01*
X491949Y523114D01*
X491929Y523085D01*
X491910Y523010D01*
X491882Y522938D01*
X491882Y522902D01*
X491873Y522868D01*
X491881Y522791D01*
X491880Y522713D01*
X491893Y522680D01*
X491896Y522645D01*
X491931Y522575D01*
X491957Y522502D01*
X491980Y522475D01*
X491996Y522443D01*
X492052Y522390D01*
X492102Y522331D01*
X492137Y522311D01*
X492159Y522290D01*
X492202Y522271D01*
X492263Y522235D01*
X492969Y521942D01*
X496631Y518280D01*
X637092Y377820D01*
X637165Y377769D01*
X637234Y377713D01*
X637256Y377705D01*
X637276Y377692D01*
X637362Y377670D01*
X637446Y377641D01*
X637470Y377642D01*
X637493Y377636D01*
X637582Y377645D01*
G37*
%LPC*%
G36*
X175045Y519549D02*
X175045Y519549D01*
X169954Y521658D01*
X166058Y525554D01*
X163949Y530645D01*
X163949Y536155D01*
X166058Y541246D01*
X169954Y545142D01*
X175045Y547251D01*
X180555Y547251D01*
X185646Y545142D01*
X189542Y541246D01*
X189914Y540348D01*
X189962Y540273D01*
X190005Y540195D01*
X190022Y540179D01*
X190035Y540159D01*
X190106Y540105D01*
X190173Y540047D01*
X190196Y540038D01*
X190215Y540024D01*
X190300Y539999D01*
X190383Y539967D01*
X190407Y539967D01*
X190430Y539960D01*
X190519Y539966D01*
X190607Y539965D01*
X190630Y539974D01*
X190653Y539975D01*
X190735Y540012D01*
X190818Y540042D01*
X190837Y540057D01*
X190858Y540067D01*
X190922Y540130D01*
X190989Y540187D01*
X191003Y540210D01*
X191018Y540224D01*
X191039Y540270D01*
X191086Y540348D01*
X191458Y541246D01*
X195354Y545142D01*
X200445Y547251D01*
X205955Y547251D01*
X211046Y545142D01*
X214942Y541246D01*
X215314Y540348D01*
X215362Y540273D01*
X215405Y540195D01*
X215422Y540179D01*
X215435Y540159D01*
X215506Y540105D01*
X215573Y540047D01*
X215596Y540038D01*
X215615Y540024D01*
X215700Y539999D01*
X215783Y539967D01*
X215807Y539967D01*
X215830Y539960D01*
X215919Y539966D01*
X216007Y539965D01*
X216030Y539974D01*
X216053Y539975D01*
X216135Y540012D01*
X216218Y540042D01*
X216237Y540057D01*
X216258Y540067D01*
X216322Y540130D01*
X216389Y540187D01*
X216403Y540210D01*
X216418Y540224D01*
X216439Y540270D01*
X216486Y540348D01*
X216858Y541246D01*
X220754Y545142D01*
X225845Y547251D01*
X231355Y547251D01*
X236446Y545142D01*
X240342Y541246D01*
X240714Y540348D01*
X240762Y540273D01*
X240805Y540195D01*
X240822Y540179D01*
X240835Y540159D01*
X240906Y540105D01*
X240973Y540047D01*
X240996Y540038D01*
X241015Y540024D01*
X241100Y539999D01*
X241183Y539967D01*
X241207Y539967D01*
X241230Y539960D01*
X241319Y539966D01*
X241407Y539965D01*
X241430Y539974D01*
X241453Y539975D01*
X241535Y540012D01*
X241618Y540042D01*
X241637Y540057D01*
X241658Y540067D01*
X241722Y540130D01*
X241789Y540187D01*
X241803Y540210D01*
X241818Y540224D01*
X241839Y540270D01*
X241886Y540348D01*
X242258Y541246D01*
X246154Y545142D01*
X251245Y547251D01*
X256755Y547251D01*
X261846Y545142D01*
X265742Y541246D01*
X266114Y540348D01*
X266162Y540273D01*
X266205Y540195D01*
X266222Y540179D01*
X266235Y540159D01*
X266306Y540105D01*
X266373Y540047D01*
X266396Y540038D01*
X266415Y540024D01*
X266500Y539999D01*
X266583Y539967D01*
X266607Y539967D01*
X266630Y539960D01*
X266719Y539966D01*
X266807Y539965D01*
X266830Y539974D01*
X266853Y539975D01*
X266935Y540012D01*
X267018Y540042D01*
X267037Y540057D01*
X267058Y540067D01*
X267122Y540130D01*
X267189Y540187D01*
X267203Y540210D01*
X267218Y540224D01*
X267239Y540270D01*
X267286Y540348D01*
X267658Y541246D01*
X271554Y545142D01*
X276645Y547251D01*
X282155Y547251D01*
X287246Y545142D01*
X291142Y541246D01*
X293251Y536155D01*
X293251Y530645D01*
X291142Y525554D01*
X287246Y521658D01*
X282155Y519549D01*
X276645Y519549D01*
X271554Y521658D01*
X267658Y525554D01*
X267286Y526452D01*
X267238Y526527D01*
X267196Y526605D01*
X267178Y526621D01*
X267165Y526641D01*
X267094Y526694D01*
X267027Y526753D01*
X267004Y526762D01*
X266985Y526776D01*
X266900Y526801D01*
X266817Y526833D01*
X266793Y526833D01*
X266770Y526840D01*
X266682Y526834D01*
X266593Y526835D01*
X266570Y526826D01*
X266547Y526825D01*
X266465Y526788D01*
X266382Y526758D01*
X266364Y526743D01*
X266342Y526733D01*
X266278Y526671D01*
X266211Y526613D01*
X266197Y526590D01*
X266182Y526576D01*
X266161Y526530D01*
X266114Y526452D01*
X265742Y525554D01*
X261846Y521658D01*
X256755Y519549D01*
X251245Y519549D01*
X246154Y521658D01*
X242258Y525554D01*
X241886Y526452D01*
X241838Y526527D01*
X241796Y526605D01*
X241778Y526621D01*
X241765Y526641D01*
X241694Y526694D01*
X241627Y526753D01*
X241604Y526762D01*
X241585Y526776D01*
X241500Y526801D01*
X241417Y526833D01*
X241393Y526833D01*
X241370Y526840D01*
X241282Y526834D01*
X241193Y526835D01*
X241170Y526826D01*
X241147Y526825D01*
X241065Y526788D01*
X240982Y526758D01*
X240964Y526743D01*
X240942Y526733D01*
X240878Y526671D01*
X240811Y526613D01*
X240797Y526590D01*
X240782Y526576D01*
X240761Y526530D01*
X240714Y526452D01*
X240342Y525554D01*
X236446Y521658D01*
X231355Y519549D01*
X225845Y519549D01*
X220754Y521658D01*
X216858Y525554D01*
X216486Y526452D01*
X216438Y526527D01*
X216396Y526605D01*
X216378Y526621D01*
X216365Y526641D01*
X216294Y526694D01*
X216227Y526753D01*
X216204Y526762D01*
X216185Y526776D01*
X216100Y526801D01*
X216017Y526833D01*
X215993Y526833D01*
X215970Y526840D01*
X215882Y526834D01*
X215793Y526835D01*
X215770Y526826D01*
X215747Y526825D01*
X215665Y526788D01*
X215582Y526758D01*
X215564Y526743D01*
X215542Y526733D01*
X215478Y526671D01*
X215411Y526613D01*
X215397Y526590D01*
X215382Y526576D01*
X215361Y526530D01*
X215314Y526452D01*
X214942Y525554D01*
X211046Y521658D01*
X205955Y519549D01*
X200445Y519549D01*
X195354Y521658D01*
X191458Y525554D01*
X191086Y526452D01*
X191038Y526527D01*
X190996Y526605D01*
X190978Y526621D01*
X190965Y526641D01*
X190894Y526694D01*
X190827Y526753D01*
X190804Y526762D01*
X190785Y526776D01*
X190700Y526801D01*
X190617Y526833D01*
X190593Y526833D01*
X190570Y526840D01*
X190482Y526834D01*
X190393Y526835D01*
X190370Y526826D01*
X190347Y526825D01*
X190265Y526788D01*
X190182Y526758D01*
X190164Y526743D01*
X190142Y526733D01*
X190078Y526671D01*
X190011Y526613D01*
X189997Y526590D01*
X189982Y526576D01*
X189961Y526530D01*
X189914Y526452D01*
X189542Y525554D01*
X185646Y521658D01*
X180555Y519549D01*
X175045Y519549D01*
G37*
%LPD*%
%LPC*%
G36*
X199411Y133349D02*
X199411Y133349D01*
X192409Y136250D01*
X187050Y141609D01*
X184149Y148611D01*
X184149Y156189D01*
X187050Y163191D01*
X192409Y168550D01*
X199411Y171451D01*
X206989Y171451D01*
X213991Y168550D01*
X219350Y163191D01*
X222251Y156189D01*
X222251Y148611D01*
X219350Y141609D01*
X213991Y136250D01*
X206989Y133349D01*
X199411Y133349D01*
G37*
%LPD*%
%LPC*%
G36*
X98821Y156209D02*
X98821Y156209D01*
X93686Y158336D01*
X89756Y162266D01*
X87629Y167401D01*
X87629Y188199D01*
X89756Y193334D01*
X93686Y197264D01*
X98821Y199391D01*
X104379Y199391D01*
X109514Y197264D01*
X113444Y193334D01*
X115571Y188199D01*
X115571Y167401D01*
X113444Y162266D01*
X109514Y158336D01*
X104379Y156209D01*
X98821Y156209D01*
G37*
%LPD*%
%LPC*%
G36*
X65801Y214629D02*
X65801Y214629D01*
X60666Y216756D01*
X56736Y220686D01*
X54609Y225821D01*
X54609Y231379D01*
X56736Y236514D01*
X60666Y240444D01*
X65801Y242571D01*
X86599Y242571D01*
X91734Y240444D01*
X95664Y236514D01*
X97791Y231379D01*
X97791Y225821D01*
X95664Y220686D01*
X91734Y216756D01*
X86599Y214629D01*
X65801Y214629D01*
G37*
%LPD*%
G36*
X440732Y72845D02*
X440732Y72845D01*
X440821Y72848D01*
X440843Y72857D01*
X440866Y72859D01*
X440946Y72899D01*
X441028Y72932D01*
X441046Y72948D01*
X441067Y72959D01*
X441128Y73023D01*
X441194Y73084D01*
X441205Y73105D01*
X441221Y73122D01*
X441256Y73204D01*
X441297Y73283D01*
X441300Y73309D01*
X441309Y73329D01*
X441311Y73379D01*
X441324Y73468D01*
X441324Y121075D01*
X441320Y121101D01*
X441322Y121127D01*
X441300Y121210D01*
X441285Y121296D01*
X441271Y121318D01*
X441264Y121344D01*
X441214Y121414D01*
X441170Y121489D01*
X441150Y121505D01*
X441135Y121527D01*
X441063Y121576D01*
X440996Y121630D01*
X440971Y121639D01*
X440949Y121654D01*
X440865Y121674D01*
X440784Y121702D01*
X440757Y121701D01*
X440731Y121708D01*
X440646Y121698D01*
X440559Y121695D01*
X440535Y121685D01*
X440509Y121682D01*
X440431Y121643D01*
X440352Y121611D01*
X440332Y121593D01*
X440308Y121581D01*
X440215Y121486D01*
X440186Y121460D01*
X440183Y121453D01*
X440177Y121447D01*
X439459Y120459D01*
X438341Y119341D01*
X437062Y118412D01*
X435654Y117695D01*
X434151Y117206D01*
X433069Y117035D01*
X433069Y126365D01*
X433058Y126430D01*
X433056Y126495D01*
X433038Y126539D01*
X433030Y126586D01*
X432996Y126642D01*
X432971Y126703D01*
X432939Y126738D01*
X432915Y126779D01*
X432864Y126820D01*
X432820Y126869D01*
X432778Y126891D01*
X432741Y126920D01*
X432679Y126941D01*
X432620Y126971D01*
X432566Y126980D01*
X432529Y126992D01*
X432489Y126991D01*
X432435Y126999D01*
X431165Y126999D01*
X431100Y126987D01*
X431034Y126986D01*
X430991Y126968D01*
X430944Y126959D01*
X430887Y126926D01*
X430827Y126901D01*
X430792Y126869D01*
X430751Y126845D01*
X430710Y126794D01*
X430661Y126750D01*
X430639Y126708D01*
X430610Y126671D01*
X430589Y126609D01*
X430558Y126550D01*
X430550Y126496D01*
X430538Y126459D01*
X430539Y126419D01*
X430531Y126365D01*
X430531Y117035D01*
X429449Y117206D01*
X427946Y117695D01*
X426538Y118412D01*
X425259Y119341D01*
X424141Y120459D01*
X423423Y121447D01*
X423404Y121466D01*
X423390Y121489D01*
X423323Y121543D01*
X423261Y121603D01*
X423237Y121613D01*
X423216Y121630D01*
X423135Y121658D01*
X423055Y121692D01*
X423029Y121693D01*
X423004Y121702D01*
X422918Y121699D01*
X422831Y121704D01*
X422806Y121696D01*
X422779Y121695D01*
X422700Y121663D01*
X422617Y121637D01*
X422596Y121621D01*
X422572Y121611D01*
X422508Y121553D01*
X422440Y121500D01*
X422426Y121478D01*
X422406Y121460D01*
X422366Y121383D01*
X422321Y121310D01*
X422316Y121284D01*
X422303Y121260D01*
X422284Y121128D01*
X422276Y121090D01*
X422277Y121083D01*
X422276Y121075D01*
X422276Y91249D01*
X422283Y91207D01*
X422281Y91164D01*
X422303Y91097D01*
X422315Y91028D01*
X422337Y90991D01*
X422350Y90951D01*
X422404Y90878D01*
X422430Y90835D01*
X422446Y90821D01*
X422462Y90800D01*
X438905Y74357D01*
X438905Y74356D01*
X440242Y73020D01*
X440315Y72969D01*
X440384Y72913D01*
X440406Y72905D01*
X440426Y72892D01*
X440512Y72870D01*
X440596Y72841D01*
X440620Y72842D01*
X440643Y72836D01*
X440732Y72845D01*
G37*
%LPC*%
G36*
X204469Y201131D02*
X204469Y201131D01*
X218430Y201131D01*
X218065Y198831D01*
X217324Y196550D01*
X216235Y194412D01*
X214825Y192471D01*
X213129Y190775D01*
X211188Y189365D01*
X209050Y188276D01*
X206769Y187535D01*
X204469Y187170D01*
X204469Y201131D01*
G37*
%LPD*%
%LPC*%
G36*
X199631Y187535D02*
X199631Y187535D01*
X197350Y188276D01*
X195212Y189365D01*
X193271Y190775D01*
X191575Y192471D01*
X190165Y194412D01*
X189076Y196550D01*
X188335Y198831D01*
X187970Y201131D01*
X201931Y201131D01*
X201931Y187170D01*
X199631Y187535D01*
G37*
%LPD*%
%LPC*%
G36*
X313169Y610869D02*
X313169Y610869D01*
X313169Y627306D01*
X314279Y627131D01*
X315800Y626636D01*
X317225Y625910D01*
X318519Y624970D01*
X319650Y623839D01*
X320590Y622545D01*
X321316Y621120D01*
X321811Y619599D01*
X322061Y618020D01*
X322061Y610869D01*
X313169Y610869D01*
G37*
%LPD*%
%LPC*%
G36*
X52069Y179069D02*
X52069Y179069D01*
X52069Y195506D01*
X53179Y195331D01*
X54700Y194836D01*
X56125Y194110D01*
X57419Y193170D01*
X58550Y192039D01*
X59490Y190745D01*
X60216Y189320D01*
X60711Y187799D01*
X60961Y186220D01*
X60961Y179069D01*
X52069Y179069D01*
G37*
%LPD*%
%LPC*%
G36*
X229869Y52069D02*
X229869Y52069D01*
X229869Y68506D01*
X230979Y68331D01*
X232500Y67836D01*
X233925Y67110D01*
X235219Y66170D01*
X236350Y65039D01*
X237290Y63745D01*
X238016Y62320D01*
X238511Y60799D01*
X238761Y59220D01*
X238761Y52069D01*
X229869Y52069D01*
G37*
%LPD*%
%LPC*%
G36*
X509269Y77469D02*
X509269Y77469D01*
X509269Y86361D01*
X516420Y86361D01*
X517999Y86111D01*
X519520Y85616D01*
X520945Y84890D01*
X522239Y83950D01*
X523370Y82819D01*
X524310Y81525D01*
X525036Y80100D01*
X525531Y78579D01*
X525706Y77469D01*
X509269Y77469D01*
G37*
%LPD*%
%LPC*%
G36*
X566494Y77469D02*
X566494Y77469D01*
X566669Y78579D01*
X567164Y80100D01*
X567890Y81525D01*
X568830Y82819D01*
X569961Y83950D01*
X571255Y84890D01*
X572680Y85616D01*
X574201Y86111D01*
X575780Y86361D01*
X582931Y86361D01*
X582931Y77469D01*
X566494Y77469D01*
G37*
%LPD*%
%LPC*%
G36*
X313169Y608331D02*
X313169Y608331D01*
X322061Y608331D01*
X322061Y601180D01*
X321811Y599601D01*
X321316Y598080D01*
X320590Y596655D01*
X319650Y595361D01*
X318519Y594230D01*
X317225Y593290D01*
X315800Y592564D01*
X314279Y592069D01*
X313169Y591894D01*
X313169Y608331D01*
G37*
%LPD*%
%LPC*%
G36*
X52069Y176531D02*
X52069Y176531D01*
X60961Y176531D01*
X60961Y169380D01*
X60711Y167801D01*
X60216Y166280D01*
X59490Y164855D01*
X58550Y163561D01*
X57419Y162430D01*
X56125Y161490D01*
X54700Y160764D01*
X53179Y160269D01*
X52069Y160094D01*
X52069Y176531D01*
G37*
%LPD*%
%LPC*%
G36*
X40639Y179069D02*
X40639Y179069D01*
X40639Y186220D01*
X40889Y187799D01*
X41384Y189320D01*
X42110Y190745D01*
X43050Y192039D01*
X44181Y193170D01*
X45475Y194110D01*
X46900Y194836D01*
X48421Y195331D01*
X49531Y195506D01*
X49531Y179069D01*
X40639Y179069D01*
G37*
%LPD*%
%LPC*%
G36*
X218439Y52069D02*
X218439Y52069D01*
X218439Y59220D01*
X218689Y60799D01*
X219184Y62320D01*
X219910Y63745D01*
X220850Y65039D01*
X221981Y66170D01*
X223275Y67110D01*
X224700Y67836D01*
X226221Y68331D01*
X227331Y68506D01*
X227331Y52069D01*
X218439Y52069D01*
G37*
%LPD*%
%LPC*%
G36*
X301739Y610869D02*
X301739Y610869D01*
X301739Y618020D01*
X301989Y619599D01*
X302484Y621120D01*
X303210Y622545D01*
X304150Y623839D01*
X305281Y624970D01*
X306575Y625910D01*
X308000Y626636D01*
X309521Y627131D01*
X310631Y627306D01*
X310631Y610869D01*
X301739Y610869D01*
G37*
%LPD*%
%LPC*%
G36*
X309521Y592069D02*
X309521Y592069D01*
X308000Y592564D01*
X306575Y593290D01*
X305281Y594230D01*
X304150Y595361D01*
X303210Y596655D01*
X302484Y598080D01*
X301989Y599601D01*
X301739Y601180D01*
X301739Y608331D01*
X310631Y608331D01*
X310631Y591894D01*
X309521Y592069D01*
G37*
%LPD*%
%LPC*%
G36*
X48421Y160269D02*
X48421Y160269D01*
X46900Y160764D01*
X45475Y161490D01*
X44181Y162430D01*
X43050Y163561D01*
X42110Y164855D01*
X41384Y166280D01*
X40889Y167801D01*
X40639Y169380D01*
X40639Y176531D01*
X49531Y176531D01*
X49531Y160094D01*
X48421Y160269D01*
G37*
%LPD*%
%LPC*%
G36*
X534669Y204469D02*
X534669Y204469D01*
X534669Y213742D01*
X537767Y213742D01*
X543942Y207567D01*
X543942Y204469D01*
X534669Y204469D01*
G37*
%LPD*%
%LPC*%
G36*
X483869Y204469D02*
X483869Y204469D01*
X483869Y213742D01*
X486967Y213742D01*
X493142Y207567D01*
X493142Y204469D01*
X483869Y204469D01*
G37*
%LPD*%
%LPC*%
G36*
X636269Y204469D02*
X636269Y204469D01*
X636269Y213742D01*
X639367Y213742D01*
X645542Y207567D01*
X645542Y204469D01*
X636269Y204469D01*
G37*
%LPD*%
%LPC*%
G36*
X472058Y204469D02*
X472058Y204469D01*
X472058Y207567D01*
X478233Y213742D01*
X481331Y213742D01*
X481331Y204469D01*
X472058Y204469D01*
G37*
%LPD*%
%LPC*%
G36*
X522858Y204469D02*
X522858Y204469D01*
X522858Y207567D01*
X529033Y213742D01*
X532131Y213742D01*
X532131Y204469D01*
X522858Y204469D01*
G37*
%LPD*%
%LPC*%
G36*
X306069Y534669D02*
X306069Y534669D01*
X306069Y543365D01*
X307151Y543194D01*
X308654Y542705D01*
X310062Y541988D01*
X311341Y541059D01*
X312459Y539941D01*
X313388Y538662D01*
X314105Y537254D01*
X314594Y535751D01*
X314765Y534669D01*
X306069Y534669D01*
G37*
%LPD*%
%LPC*%
G36*
X153669Y534669D02*
X153669Y534669D01*
X153669Y543365D01*
X154751Y543194D01*
X156254Y542705D01*
X157662Y541988D01*
X158941Y541059D01*
X160059Y539941D01*
X160988Y538662D01*
X161705Y537254D01*
X162194Y535751D01*
X162365Y534669D01*
X153669Y534669D01*
G37*
%LPD*%
%LPC*%
G36*
X483869Y280669D02*
X483869Y280669D01*
X483869Y289365D01*
X484951Y289194D01*
X486454Y288705D01*
X487862Y287988D01*
X489141Y287059D01*
X490259Y285941D01*
X491188Y284662D01*
X491905Y283254D01*
X492394Y281751D01*
X492565Y280669D01*
X483869Y280669D01*
G37*
%LPD*%
%LPC*%
G36*
X331469Y204469D02*
X331469Y204469D01*
X331469Y213165D01*
X332551Y212994D01*
X334054Y212505D01*
X335462Y211788D01*
X336741Y210859D01*
X337859Y209741D01*
X338788Y208462D01*
X339505Y207054D01*
X339994Y205551D01*
X340165Y204469D01*
X331469Y204469D01*
G37*
%LPD*%
%LPC*%
G36*
X294835Y534669D02*
X294835Y534669D01*
X295006Y535751D01*
X295495Y537254D01*
X296212Y538662D01*
X297141Y539941D01*
X298259Y541059D01*
X299538Y541988D01*
X300946Y542705D01*
X302449Y543194D01*
X303531Y543365D01*
X303531Y534669D01*
X294835Y534669D01*
G37*
%LPD*%
%LPC*%
G36*
X142435Y534669D02*
X142435Y534669D01*
X142606Y535751D01*
X143095Y537254D01*
X143812Y538662D01*
X144741Y539941D01*
X145859Y541059D01*
X147138Y541988D01*
X148546Y542705D01*
X150049Y543194D01*
X151131Y543365D01*
X151131Y534669D01*
X142435Y534669D01*
G37*
%LPD*%
%LPC*%
G36*
X472635Y280669D02*
X472635Y280669D01*
X472806Y281751D01*
X473295Y283254D01*
X474012Y284662D01*
X474941Y285941D01*
X476059Y287059D01*
X477338Y287988D01*
X478746Y288705D01*
X480249Y289194D01*
X481331Y289365D01*
X481331Y280669D01*
X472635Y280669D01*
G37*
%LPD*%
%LPC*%
G36*
X320235Y204469D02*
X320235Y204469D01*
X320406Y205551D01*
X320895Y207054D01*
X321612Y208462D01*
X322541Y209741D01*
X323659Y210859D01*
X324938Y211788D01*
X326346Y212505D01*
X327849Y212994D01*
X328931Y213165D01*
X328931Y204469D01*
X320235Y204469D01*
G37*
%LPD*%
%LPC*%
G36*
X331469Y201931D02*
X331469Y201931D01*
X340165Y201931D01*
X339994Y200849D01*
X339505Y199346D01*
X338788Y197938D01*
X337859Y196659D01*
X336741Y195541D01*
X335462Y194612D01*
X334054Y193895D01*
X332551Y193406D01*
X331469Y193235D01*
X331469Y201931D01*
G37*
%LPD*%
%LPC*%
G36*
X483869Y278131D02*
X483869Y278131D01*
X492565Y278131D01*
X492394Y277049D01*
X491905Y275546D01*
X491188Y274138D01*
X490259Y272859D01*
X489141Y271741D01*
X487862Y270812D01*
X486454Y270095D01*
X484951Y269606D01*
X483869Y269435D01*
X483869Y278131D01*
G37*
%LPD*%
%LPC*%
G36*
X153669Y532131D02*
X153669Y532131D01*
X162365Y532131D01*
X162194Y531049D01*
X161705Y529546D01*
X160988Y528138D01*
X160059Y526859D01*
X158941Y525741D01*
X157662Y524812D01*
X156254Y524095D01*
X154751Y523606D01*
X153669Y523435D01*
X153669Y532131D01*
G37*
%LPD*%
%LPC*%
G36*
X306069Y532131D02*
X306069Y532131D01*
X314765Y532131D01*
X314594Y531049D01*
X314105Y529546D01*
X313388Y528138D01*
X312459Y526859D01*
X311341Y525741D01*
X310062Y524812D01*
X308654Y524095D01*
X307151Y523606D01*
X306069Y523435D01*
X306069Y532131D01*
G37*
%LPD*%
%LPC*%
G36*
X327849Y193406D02*
X327849Y193406D01*
X326346Y193895D01*
X324938Y194612D01*
X323659Y195541D01*
X322541Y196659D01*
X321612Y197938D01*
X320895Y199346D01*
X320406Y200849D01*
X320235Y201931D01*
X328931Y201931D01*
X328931Y193235D01*
X327849Y193406D01*
G37*
%LPD*%
%LPC*%
G36*
X480249Y269606D02*
X480249Y269606D01*
X478746Y270095D01*
X477338Y270812D01*
X476059Y271741D01*
X474941Y272859D01*
X474012Y274138D01*
X473295Y275546D01*
X472806Y277049D01*
X472635Y278131D01*
X481331Y278131D01*
X481331Y269435D01*
X480249Y269606D01*
G37*
%LPD*%
%LPC*%
G36*
X302449Y523606D02*
X302449Y523606D01*
X300946Y524095D01*
X299538Y524812D01*
X298259Y525741D01*
X297141Y526859D01*
X296212Y528138D01*
X295495Y529546D01*
X295006Y531049D01*
X294835Y532131D01*
X303531Y532131D01*
X303531Y523435D01*
X302449Y523606D01*
G37*
%LPD*%
%LPC*%
G36*
X150049Y523606D02*
X150049Y523606D01*
X148546Y524095D01*
X147138Y524812D01*
X145859Y525741D01*
X144741Y526859D01*
X143812Y528138D01*
X143095Y529546D01*
X142606Y531049D01*
X142435Y532131D01*
X151131Y532131D01*
X151131Y523435D01*
X150049Y523606D01*
G37*
%LPD*%
%LPC*%
G36*
X311899Y609599D02*
X311899Y609599D01*
X311899Y609601D01*
X311901Y609601D01*
X311901Y609599D01*
X311899Y609599D01*
G37*
%LPD*%
%LPC*%
G36*
X152399Y533399D02*
X152399Y533399D01*
X152399Y533401D01*
X152401Y533401D01*
X152401Y533399D01*
X152399Y533399D01*
G37*
%LPD*%
%LPC*%
G36*
X304799Y533399D02*
X304799Y533399D01*
X304799Y533401D01*
X304801Y533401D01*
X304801Y533399D01*
X304799Y533399D01*
G37*
%LPD*%
%LPC*%
G36*
X330199Y203199D02*
X330199Y203199D01*
X330199Y203201D01*
X330201Y203201D01*
X330201Y203199D01*
X330199Y203199D01*
G37*
%LPD*%
%LPC*%
G36*
X482599Y279399D02*
X482599Y279399D01*
X482599Y279401D01*
X482601Y279401D01*
X482601Y279399D01*
X482599Y279399D01*
G37*
%LPD*%
%LPC*%
G36*
X50799Y177799D02*
X50799Y177799D01*
X50799Y177801D01*
X50801Y177801D01*
X50801Y177799D01*
X50799Y177799D01*
G37*
%LPD*%
D10*
X203200Y152400D03*
X203200Y202400D03*
D11*
X482600Y177800D03*
X482600Y203200D03*
X584200Y177800D03*
X584200Y203200D03*
X533400Y177800D03*
X533400Y203200D03*
X635000Y177800D03*
X635000Y203200D03*
D12*
X203200Y58420D02*
X203200Y43180D01*
X228600Y43180D02*
X228600Y58420D01*
X304800Y58420D02*
X304800Y43180D01*
X330200Y43180D02*
X330200Y58420D01*
X406400Y58420D02*
X406400Y43180D01*
X431800Y43180D02*
X431800Y58420D01*
X388100Y601980D02*
X388100Y617220D01*
X362700Y617220D02*
X362700Y601980D01*
X337300Y601980D02*
X337300Y617220D01*
X311900Y617220D02*
X311900Y601980D01*
D13*
X609600Y355600D03*
X609600Y304800D03*
D14*
X135250Y101600D02*
X118750Y101600D01*
X118750Y76200D02*
X135250Y76200D01*
X135250Y50800D02*
X118750Y50800D01*
D12*
X500380Y101600D02*
X515620Y101600D01*
X515620Y76200D02*
X500380Y76200D01*
X500380Y50800D02*
X515620Y50800D01*
X576580Y50800D02*
X591820Y50800D01*
X591820Y76200D02*
X576580Y76200D01*
X576580Y101600D02*
X591820Y101600D01*
D15*
X304800Y127000D03*
X330200Y127000D03*
X355600Y127000D03*
X381000Y127000D03*
X406400Y127000D03*
X431800Y127000D03*
X431800Y203200D03*
X406400Y203200D03*
X381000Y203200D03*
X355600Y203200D03*
X330200Y203200D03*
X304800Y203200D03*
X152400Y279400D03*
X177800Y279400D03*
X203200Y279400D03*
X228600Y279400D03*
X254000Y279400D03*
X279400Y279400D03*
X304800Y279400D03*
X330200Y279400D03*
X355600Y279400D03*
X381000Y279400D03*
X406400Y279400D03*
X431800Y279400D03*
X457200Y279400D03*
X482600Y279400D03*
X508000Y279400D03*
X533400Y279400D03*
X558800Y279400D03*
X584200Y279400D03*
X609600Y279400D03*
X609600Y533400D03*
X584200Y533400D03*
X558800Y533400D03*
X533400Y533400D03*
X508000Y533400D03*
X482600Y533400D03*
X457200Y533400D03*
X431800Y533400D03*
X406400Y533400D03*
X381000Y533400D03*
X355600Y533400D03*
X330200Y533400D03*
X304800Y533400D03*
X279400Y533400D03*
X254000Y533400D03*
X228600Y533400D03*
X203200Y533400D03*
X177800Y533400D03*
X152400Y533400D03*
D12*
X83820Y228600D02*
X68580Y228600D01*
X50800Y185420D02*
X50800Y170180D01*
X101600Y170180D02*
X101600Y185420D01*
D16*
X482600Y203200D02*
X482600Y279400D01*
X482600Y203200D02*
X533400Y203200D01*
X584200Y203200D01*
X333375Y200025D02*
X330200Y203200D01*
X333375Y200025D02*
X333375Y196850D01*
X381000Y149225D01*
X431800Y149225D01*
X431800Y127000D01*
X304800Y533400D02*
X307975Y536575D01*
X307975Y606425D01*
X311150Y609600D01*
X311900Y609600D01*
X228600Y174625D02*
X228600Y95250D01*
X228600Y50800D01*
X228600Y174625D02*
X203200Y200025D01*
X203200Y202400D01*
X47625Y428625D02*
X152400Y533400D01*
X47625Y428625D02*
X47625Y180975D01*
X50800Y177800D01*
X231775Y95250D02*
X333375Y196850D01*
X231775Y95250D02*
X228600Y95250D01*
D17*
X584200Y482600D03*
X50800Y330200D03*
X50800Y482600D03*
X584200Y330200D03*
X673100Y482600D03*
X673100Y330200D03*
X381000Y482600D03*
X381000Y330200D03*
D16*
X508000Y50800D02*
X584200Y50800D01*
X612775Y155575D02*
X635000Y177800D01*
X612775Y155575D02*
X612775Y66675D01*
X600075Y53975D01*
X587375Y53975D01*
X584200Y50800D01*
X155575Y276225D02*
X152400Y279400D01*
X155575Y276225D02*
X155575Y273050D01*
X200025Y228600D01*
X304800Y228600D01*
X304800Y203200D01*
X479425Y53975D02*
X504825Y53975D01*
X479425Y53975D02*
X479425Y174625D01*
X482600Y177800D01*
X504825Y53975D02*
X508000Y50800D01*
X508000Y101600D02*
X533400Y127000D01*
X533400Y177800D01*
X650875Y250825D02*
X650875Y520700D01*
X650875Y250825D02*
X606425Y206375D01*
X606425Y193675D01*
X590550Y177800D01*
X584200Y177800D01*
X584200Y101600D01*
X650875Y520700D02*
X561975Y609600D01*
X388100Y609600D01*
X355600Y127000D02*
X352425Y123825D01*
X352425Y73025D01*
X330200Y50800D01*
X327025Y123825D02*
X330200Y127000D01*
X327025Y123825D02*
X327025Y85725D01*
X304800Y63500D01*
X304800Y50800D01*
X381000Y127000D02*
X384175Y123825D01*
X384175Y73025D01*
X406400Y50800D01*
X409575Y123825D02*
X406400Y127000D01*
X409575Y123825D02*
X409575Y85725D01*
X431800Y63500D01*
X431800Y50800D01*
X355600Y203200D02*
X355600Y279400D01*
X381000Y279400D02*
X381000Y203200D01*
X587375Y228600D02*
X631825Y273050D01*
X631825Y365125D01*
X485775Y511175D01*
X431800Y511175D01*
X431800Y533400D01*
D17*
X587375Y228600D03*
D16*
X454025Y180975D02*
X431800Y203200D01*
X454025Y180975D02*
X454025Y34925D01*
X441325Y22225D01*
X158750Y22225D01*
X158750Y241300D01*
X130175Y269875D01*
X130175Y285750D01*
X355600Y511175D01*
X406400Y511175D01*
X406400Y533400D01*
X609600Y304800D02*
X609600Y279400D01*
M02*
