G04 EAGLE Gerber RS-274X export*
G75*
%MOMM*%
%FSLAX34Y34*%
%LPD*%
%INSilkscreen Top*%
%IPPOS*%
%AMOC8*
5,1,8,0,0,1.08239X$1,22.5*%
G01*
%ADD10C,0.152400*%
%ADD11C,0.101600*%
%ADD12C,0.127000*%
%ADD13C,0.254000*%
%ADD14R,0.508000X0.508000*%
%ADD15C,0.609600*%
%ADD16C,0.203200*%
%ADD17C,0.508000*%
%ADD18R,1.270000X1.905000*%
%ADD19R,0.762000X1.778000*%
%ADD20R,1.270000X0.762000*%


D10*
X463381Y598932D02*
X463499Y598934D01*
X463617Y598940D01*
X463735Y598949D01*
X463852Y598963D01*
X463969Y598980D01*
X464086Y599001D01*
X464201Y599026D01*
X464316Y599055D01*
X464430Y599088D01*
X464542Y599124D01*
X464653Y599164D01*
X464763Y599207D01*
X464872Y599254D01*
X464979Y599304D01*
X465084Y599359D01*
X465187Y599416D01*
X465288Y599477D01*
X465388Y599541D01*
X465485Y599608D01*
X465580Y599678D01*
X465672Y599752D01*
X465763Y599828D01*
X465850Y599908D01*
X465935Y599990D01*
X466017Y600075D01*
X466097Y600162D01*
X466173Y600253D01*
X466247Y600345D01*
X466317Y600440D01*
X466384Y600537D01*
X466448Y600637D01*
X466509Y600738D01*
X466566Y600841D01*
X466621Y600946D01*
X466671Y601053D01*
X466718Y601162D01*
X466761Y601272D01*
X466801Y601383D01*
X466837Y601495D01*
X466870Y601609D01*
X466899Y601724D01*
X466924Y601839D01*
X466945Y601956D01*
X466962Y602073D01*
X466976Y602190D01*
X466985Y602308D01*
X466991Y602426D01*
X466993Y602544D01*
X463381Y598932D02*
X463198Y598934D01*
X463016Y598941D01*
X462834Y598952D01*
X462652Y598967D01*
X462470Y598987D01*
X462289Y599010D01*
X462109Y599039D01*
X461929Y599071D01*
X461750Y599108D01*
X461573Y599149D01*
X461396Y599195D01*
X461220Y599244D01*
X461046Y599298D01*
X460872Y599356D01*
X460701Y599418D01*
X460531Y599484D01*
X460362Y599555D01*
X460195Y599629D01*
X460030Y599707D01*
X459867Y599789D01*
X459706Y599875D01*
X459547Y599965D01*
X459390Y600059D01*
X459236Y600156D01*
X459084Y600257D01*
X458934Y600362D01*
X458787Y600470D01*
X458643Y600581D01*
X458501Y600696D01*
X458362Y600815D01*
X458226Y600937D01*
X458093Y601062D01*
X457963Y601190D01*
X458414Y611576D02*
X458416Y611694D01*
X458422Y611812D01*
X458431Y611930D01*
X458445Y612047D01*
X458462Y612164D01*
X458483Y612281D01*
X458508Y612396D01*
X458537Y612511D01*
X458570Y612625D01*
X458606Y612737D01*
X458646Y612848D01*
X458689Y612958D01*
X458736Y613067D01*
X458786Y613174D01*
X458841Y613279D01*
X458898Y613382D01*
X458959Y613483D01*
X459023Y613583D01*
X459090Y613680D01*
X459160Y613775D01*
X459234Y613867D01*
X459310Y613958D01*
X459390Y614045D01*
X459472Y614130D01*
X459557Y614212D01*
X459644Y614292D01*
X459735Y614368D01*
X459827Y614442D01*
X459922Y614512D01*
X460019Y614579D01*
X460119Y614643D01*
X460220Y614704D01*
X460323Y614762D01*
X460428Y614816D01*
X460535Y614866D01*
X460644Y614913D01*
X460754Y614957D01*
X460865Y614996D01*
X460978Y615032D01*
X461091Y615065D01*
X461206Y615094D01*
X461321Y615119D01*
X461438Y615140D01*
X461555Y615157D01*
X461672Y615171D01*
X461790Y615180D01*
X461908Y615186D01*
X462026Y615188D01*
X462187Y615186D01*
X462349Y615180D01*
X462510Y615171D01*
X462671Y615157D01*
X462831Y615140D01*
X462991Y615119D01*
X463151Y615094D01*
X463310Y615065D01*
X463468Y615033D01*
X463625Y614997D01*
X463781Y614957D01*
X463937Y614913D01*
X464091Y614865D01*
X464244Y614814D01*
X464396Y614760D01*
X464547Y614701D01*
X464696Y614640D01*
X464843Y614574D01*
X464989Y614505D01*
X465134Y614433D01*
X465276Y614357D01*
X465417Y614278D01*
X465556Y614196D01*
X465692Y614110D01*
X465827Y614021D01*
X465960Y613929D01*
X466090Y613833D01*
X460219Y608415D02*
X460118Y608477D01*
X460018Y608542D01*
X459921Y608611D01*
X459826Y608683D01*
X459733Y608757D01*
X459643Y608835D01*
X459555Y608916D01*
X459470Y608999D01*
X459388Y609085D01*
X459309Y609174D01*
X459232Y609265D01*
X459159Y609359D01*
X459088Y609455D01*
X459021Y609553D01*
X458957Y609653D01*
X458896Y609756D01*
X458839Y609860D01*
X458785Y609966D01*
X458735Y610074D01*
X458688Y610183D01*
X458644Y610294D01*
X458604Y610406D01*
X458568Y610520D01*
X458536Y610634D01*
X458507Y610750D01*
X458482Y610866D01*
X458461Y610983D01*
X458444Y611101D01*
X458430Y611219D01*
X458421Y611338D01*
X458415Y611457D01*
X458413Y611576D01*
X465187Y605705D02*
X465288Y605643D01*
X465388Y605578D01*
X465485Y605509D01*
X465580Y605437D01*
X465673Y605363D01*
X465763Y605285D01*
X465851Y605204D01*
X465936Y605121D01*
X466018Y605035D01*
X466097Y604946D01*
X466174Y604855D01*
X466247Y604761D01*
X466318Y604665D01*
X466385Y604567D01*
X466449Y604467D01*
X466510Y604364D01*
X466567Y604260D01*
X466621Y604154D01*
X466671Y604046D01*
X466718Y603937D01*
X466762Y603826D01*
X466802Y603714D01*
X466838Y603600D01*
X466870Y603486D01*
X466899Y603370D01*
X466924Y603254D01*
X466945Y603137D01*
X466962Y603019D01*
X466976Y602901D01*
X466985Y602782D01*
X466991Y602663D01*
X466993Y602544D01*
X465187Y605705D02*
X460220Y608415D01*
X473528Y609769D02*
X473528Y593513D01*
X473528Y609769D02*
X478043Y609769D01*
X478147Y609767D01*
X478250Y609761D01*
X478354Y609751D01*
X478457Y609737D01*
X478559Y609719D01*
X478660Y609698D01*
X478761Y609672D01*
X478860Y609643D01*
X478959Y609610D01*
X479056Y609573D01*
X479151Y609532D01*
X479245Y609488D01*
X479337Y609440D01*
X479427Y609389D01*
X479516Y609334D01*
X479602Y609276D01*
X479685Y609214D01*
X479767Y609150D01*
X479845Y609082D01*
X479921Y609012D01*
X479995Y608939D01*
X480065Y608862D01*
X480133Y608784D01*
X480197Y608702D01*
X480259Y608619D01*
X480317Y608533D01*
X480372Y608444D01*
X480423Y608354D01*
X480471Y608262D01*
X480515Y608168D01*
X480556Y608073D01*
X480593Y607976D01*
X480626Y607877D01*
X480655Y607778D01*
X480681Y607677D01*
X480702Y607576D01*
X480720Y607474D01*
X480734Y607371D01*
X480744Y607267D01*
X480750Y607164D01*
X480752Y607060D01*
X480752Y601641D01*
X480750Y601540D01*
X480744Y601439D01*
X480735Y601338D01*
X480722Y601237D01*
X480705Y601137D01*
X480684Y601038D01*
X480660Y600940D01*
X480632Y600843D01*
X480600Y600746D01*
X480565Y600651D01*
X480526Y600558D01*
X480484Y600466D01*
X480438Y600375D01*
X480389Y600287D01*
X480337Y600200D01*
X480281Y600115D01*
X480223Y600032D01*
X480161Y599952D01*
X480096Y599874D01*
X480029Y599798D01*
X479959Y599725D01*
X479886Y599655D01*
X479810Y599588D01*
X479732Y599523D01*
X479652Y599461D01*
X479569Y599403D01*
X479484Y599347D01*
X479398Y599295D01*
X479309Y599246D01*
X479218Y599200D01*
X479126Y599158D01*
X479033Y599119D01*
X478938Y599084D01*
X478841Y599052D01*
X478744Y599024D01*
X478646Y599000D01*
X478547Y598979D01*
X478447Y598962D01*
X478346Y598949D01*
X478245Y598940D01*
X478144Y598934D01*
X478043Y598932D01*
X473528Y598932D01*
X486966Y598932D02*
X486966Y609769D01*
X486515Y614285D02*
X486515Y615188D01*
X487418Y615188D01*
X487418Y614285D01*
X486515Y614285D01*
X495981Y598932D02*
X499593Y598932D01*
X495981Y598932D02*
X495880Y598934D01*
X495779Y598940D01*
X495678Y598949D01*
X495577Y598962D01*
X495477Y598979D01*
X495378Y599000D01*
X495280Y599024D01*
X495183Y599052D01*
X495086Y599084D01*
X494991Y599119D01*
X494898Y599158D01*
X494806Y599200D01*
X494715Y599246D01*
X494627Y599295D01*
X494540Y599347D01*
X494455Y599403D01*
X494372Y599461D01*
X494292Y599523D01*
X494214Y599588D01*
X494138Y599655D01*
X494065Y599725D01*
X493995Y599798D01*
X493928Y599874D01*
X493863Y599952D01*
X493801Y600032D01*
X493743Y600115D01*
X493687Y600200D01*
X493635Y600287D01*
X493586Y600375D01*
X493540Y600466D01*
X493498Y600558D01*
X493459Y600651D01*
X493424Y600746D01*
X493392Y600843D01*
X493364Y600940D01*
X493340Y601038D01*
X493319Y601137D01*
X493302Y601237D01*
X493289Y601338D01*
X493280Y601439D01*
X493274Y601540D01*
X493272Y601641D01*
X493271Y601641D02*
X493271Y607060D01*
X493272Y607060D02*
X493274Y607161D01*
X493280Y607262D01*
X493289Y607363D01*
X493302Y607464D01*
X493319Y607564D01*
X493340Y607663D01*
X493364Y607761D01*
X493392Y607858D01*
X493424Y607955D01*
X493459Y608050D01*
X493498Y608143D01*
X493540Y608235D01*
X493586Y608326D01*
X493635Y608415D01*
X493687Y608501D01*
X493743Y608586D01*
X493801Y608669D01*
X493863Y608749D01*
X493928Y608827D01*
X493995Y608903D01*
X494065Y608976D01*
X494138Y609046D01*
X494214Y609113D01*
X494292Y609178D01*
X494372Y609240D01*
X494455Y609298D01*
X494540Y609354D01*
X494627Y609406D01*
X494715Y609455D01*
X494806Y609501D01*
X494898Y609543D01*
X494991Y609582D01*
X495086Y609617D01*
X495183Y609649D01*
X495280Y609677D01*
X495378Y609701D01*
X495477Y609722D01*
X495577Y609739D01*
X495678Y609752D01*
X495779Y609761D01*
X495880Y609767D01*
X495981Y609769D01*
X499593Y609769D01*
X508325Y605254D02*
X512389Y605254D01*
X508325Y605254D02*
X508213Y605252D01*
X508102Y605246D01*
X507991Y605236D01*
X507880Y605223D01*
X507770Y605205D01*
X507661Y605183D01*
X507552Y605158D01*
X507444Y605129D01*
X507338Y605096D01*
X507232Y605059D01*
X507128Y605019D01*
X507026Y604975D01*
X506925Y604927D01*
X506826Y604876D01*
X506728Y604821D01*
X506633Y604763D01*
X506540Y604702D01*
X506449Y604637D01*
X506360Y604569D01*
X506274Y604498D01*
X506191Y604425D01*
X506110Y604348D01*
X506031Y604268D01*
X505956Y604186D01*
X505884Y604101D01*
X505814Y604014D01*
X505748Y603924D01*
X505685Y603832D01*
X505625Y603737D01*
X505569Y603641D01*
X505516Y603543D01*
X505467Y603443D01*
X505421Y603341D01*
X505379Y603238D01*
X505340Y603133D01*
X505305Y603027D01*
X505274Y602920D01*
X505247Y602812D01*
X505223Y602703D01*
X505204Y602593D01*
X505188Y602483D01*
X505176Y602372D01*
X505168Y602260D01*
X505164Y602149D01*
X505164Y602037D01*
X505168Y601926D01*
X505176Y601814D01*
X505188Y601703D01*
X505204Y601593D01*
X505223Y601483D01*
X505247Y601374D01*
X505274Y601266D01*
X505305Y601159D01*
X505340Y601053D01*
X505379Y600948D01*
X505421Y600845D01*
X505467Y600743D01*
X505516Y600643D01*
X505569Y600545D01*
X505625Y600449D01*
X505685Y600354D01*
X505748Y600262D01*
X505814Y600172D01*
X505884Y600085D01*
X505956Y600000D01*
X506031Y599918D01*
X506110Y599838D01*
X506191Y599761D01*
X506274Y599688D01*
X506360Y599617D01*
X506449Y599549D01*
X506540Y599484D01*
X506633Y599423D01*
X506728Y599365D01*
X506826Y599310D01*
X506925Y599259D01*
X507026Y599211D01*
X507128Y599167D01*
X507232Y599127D01*
X507338Y599090D01*
X507444Y599057D01*
X507552Y599028D01*
X507661Y599003D01*
X507770Y598981D01*
X507880Y598963D01*
X507991Y598950D01*
X508102Y598940D01*
X508213Y598934D01*
X508325Y598932D01*
X512389Y598932D01*
X512389Y607060D01*
X512387Y607161D01*
X512381Y607262D01*
X512372Y607363D01*
X512359Y607464D01*
X512342Y607564D01*
X512321Y607663D01*
X512297Y607761D01*
X512269Y607858D01*
X512237Y607955D01*
X512202Y608050D01*
X512163Y608143D01*
X512121Y608235D01*
X512075Y608326D01*
X512026Y608415D01*
X511974Y608501D01*
X511918Y608586D01*
X511860Y608669D01*
X511798Y608749D01*
X511733Y608827D01*
X511666Y608903D01*
X511596Y608976D01*
X511523Y609046D01*
X511447Y609113D01*
X511369Y609178D01*
X511289Y609240D01*
X511206Y609298D01*
X511121Y609354D01*
X511035Y609406D01*
X510946Y609455D01*
X510855Y609501D01*
X510763Y609543D01*
X510670Y609582D01*
X510575Y609617D01*
X510478Y609649D01*
X510381Y609677D01*
X510283Y609701D01*
X510184Y609722D01*
X510084Y609739D01*
X509983Y609752D01*
X509882Y609761D01*
X509781Y609767D01*
X509680Y609769D01*
X506068Y609769D01*
X528248Y609769D02*
X528248Y598932D01*
X528248Y609769D02*
X533667Y609769D01*
X533667Y607963D01*
X541294Y598932D02*
X545809Y598932D01*
X541294Y598932D02*
X541193Y598934D01*
X541092Y598940D01*
X540991Y598949D01*
X540890Y598962D01*
X540790Y598979D01*
X540691Y599000D01*
X540593Y599024D01*
X540496Y599052D01*
X540399Y599084D01*
X540304Y599119D01*
X540211Y599158D01*
X540119Y599200D01*
X540028Y599246D01*
X539940Y599295D01*
X539853Y599347D01*
X539768Y599403D01*
X539685Y599461D01*
X539605Y599523D01*
X539527Y599588D01*
X539451Y599655D01*
X539378Y599725D01*
X539308Y599798D01*
X539241Y599874D01*
X539176Y599952D01*
X539114Y600032D01*
X539056Y600115D01*
X539000Y600200D01*
X538948Y600287D01*
X538899Y600375D01*
X538853Y600466D01*
X538811Y600558D01*
X538772Y600651D01*
X538737Y600746D01*
X538705Y600843D01*
X538677Y600940D01*
X538653Y601038D01*
X538632Y601137D01*
X538615Y601237D01*
X538602Y601338D01*
X538593Y601439D01*
X538587Y601540D01*
X538585Y601641D01*
X538584Y601641D02*
X538584Y606157D01*
X538585Y606157D02*
X538587Y606276D01*
X538593Y606396D01*
X538603Y606515D01*
X538617Y606633D01*
X538634Y606752D01*
X538656Y606869D01*
X538681Y606986D01*
X538711Y607101D01*
X538744Y607216D01*
X538781Y607330D01*
X538821Y607442D01*
X538866Y607553D01*
X538914Y607662D01*
X538965Y607770D01*
X539020Y607876D01*
X539079Y607980D01*
X539141Y608082D01*
X539206Y608182D01*
X539275Y608280D01*
X539347Y608376D01*
X539422Y608469D01*
X539499Y608559D01*
X539580Y608647D01*
X539664Y608732D01*
X539751Y608814D01*
X539840Y608894D01*
X539932Y608970D01*
X540026Y609044D01*
X540123Y609114D01*
X540221Y609181D01*
X540322Y609245D01*
X540426Y609305D01*
X540531Y609362D01*
X540638Y609415D01*
X540746Y609465D01*
X540856Y609511D01*
X540968Y609553D01*
X541081Y609592D01*
X541195Y609627D01*
X541310Y609658D01*
X541427Y609686D01*
X541544Y609709D01*
X541661Y609729D01*
X541780Y609745D01*
X541899Y609757D01*
X542018Y609765D01*
X542137Y609769D01*
X542257Y609769D01*
X542376Y609765D01*
X542495Y609757D01*
X542614Y609745D01*
X542733Y609729D01*
X542850Y609709D01*
X542967Y609686D01*
X543084Y609658D01*
X543199Y609627D01*
X543313Y609592D01*
X543426Y609553D01*
X543538Y609511D01*
X543648Y609465D01*
X543756Y609415D01*
X543863Y609362D01*
X543968Y609305D01*
X544072Y609245D01*
X544173Y609181D01*
X544271Y609114D01*
X544368Y609044D01*
X544462Y608970D01*
X544554Y608894D01*
X544643Y608814D01*
X544730Y608732D01*
X544814Y608647D01*
X544895Y608559D01*
X544972Y608469D01*
X545047Y608376D01*
X545119Y608280D01*
X545188Y608182D01*
X545253Y608082D01*
X545315Y607980D01*
X545374Y607876D01*
X545429Y607770D01*
X545480Y607662D01*
X545528Y607553D01*
X545573Y607442D01*
X545613Y607330D01*
X545650Y607216D01*
X545683Y607101D01*
X545713Y606986D01*
X545738Y606869D01*
X545760Y606752D01*
X545777Y606633D01*
X545791Y606515D01*
X545801Y606396D01*
X545807Y606276D01*
X545809Y606157D01*
X545809Y604351D01*
X538584Y604351D01*
X551610Y609769D02*
X555223Y598932D01*
X558835Y609769D01*
X573112Y611576D02*
X577627Y615188D01*
X577627Y598932D01*
X573112Y598932D02*
X582143Y598932D01*
X588118Y598932D02*
X588118Y599835D01*
X589021Y599835D01*
X589021Y598932D01*
X588118Y598932D01*
X594996Y611576D02*
X599511Y615188D01*
X599511Y598932D01*
X594996Y598932D02*
X604027Y598932D01*
X466993Y584454D02*
X466991Y584579D01*
X466985Y584704D01*
X466976Y584829D01*
X466962Y584953D01*
X466945Y585077D01*
X466924Y585201D01*
X466899Y585323D01*
X466870Y585445D01*
X466838Y585566D01*
X466802Y585686D01*
X466762Y585805D01*
X466719Y585922D01*
X466672Y586038D01*
X466621Y586153D01*
X466567Y586265D01*
X466509Y586377D01*
X466449Y586486D01*
X466384Y586593D01*
X466317Y586699D01*
X466246Y586802D01*
X466172Y586903D01*
X466095Y587002D01*
X466015Y587098D01*
X465932Y587192D01*
X465847Y587283D01*
X465758Y587372D01*
X465667Y587457D01*
X465573Y587540D01*
X465477Y587620D01*
X465378Y587697D01*
X465277Y587771D01*
X465174Y587842D01*
X465068Y587909D01*
X464961Y587974D01*
X464852Y588034D01*
X464740Y588092D01*
X464628Y588146D01*
X464513Y588197D01*
X464397Y588244D01*
X464280Y588287D01*
X464161Y588327D01*
X464041Y588363D01*
X463920Y588395D01*
X463798Y588424D01*
X463676Y588449D01*
X463552Y588470D01*
X463428Y588487D01*
X463304Y588501D01*
X463179Y588510D01*
X463054Y588516D01*
X462929Y588518D01*
X462786Y588516D01*
X462644Y588510D01*
X462501Y588500D01*
X462359Y588487D01*
X462218Y588469D01*
X462076Y588448D01*
X461936Y588423D01*
X461796Y588394D01*
X461657Y588361D01*
X461519Y588324D01*
X461382Y588284D01*
X461247Y588240D01*
X461112Y588192D01*
X460979Y588140D01*
X460847Y588085D01*
X460717Y588026D01*
X460589Y587964D01*
X460462Y587898D01*
X460337Y587829D01*
X460214Y587757D01*
X460094Y587681D01*
X459975Y587602D01*
X459858Y587519D01*
X459744Y587434D01*
X459632Y587345D01*
X459523Y587254D01*
X459416Y587159D01*
X459311Y587062D01*
X459210Y586961D01*
X459111Y586858D01*
X459015Y586753D01*
X458922Y586644D01*
X458832Y586533D01*
X458745Y586420D01*
X458661Y586305D01*
X458581Y586187D01*
X458503Y586067D01*
X458429Y585945D01*
X458359Y585821D01*
X458291Y585695D01*
X458228Y585567D01*
X458167Y585438D01*
X458110Y585307D01*
X458057Y585175D01*
X458008Y585041D01*
X457962Y584906D01*
X465638Y581293D02*
X465732Y581385D01*
X465822Y581479D01*
X465910Y581576D01*
X465995Y581676D01*
X466077Y581778D01*
X466156Y581883D01*
X466231Y581990D01*
X466303Y582099D01*
X466372Y582210D01*
X466438Y582324D01*
X466500Y582439D01*
X466559Y582556D01*
X466614Y582675D01*
X466665Y582795D01*
X466713Y582917D01*
X466758Y583040D01*
X466798Y583164D01*
X466835Y583290D01*
X466868Y583417D01*
X466897Y583544D01*
X466923Y583673D01*
X466944Y583802D01*
X466962Y583932D01*
X466975Y584062D01*
X466985Y584192D01*
X466991Y584323D01*
X466993Y584454D01*
X465638Y581293D02*
X457962Y572262D01*
X466993Y572262D01*
X473593Y580390D02*
X473597Y580710D01*
X473608Y581029D01*
X473627Y581349D01*
X473654Y581667D01*
X473688Y581985D01*
X473730Y582302D01*
X473780Y582618D01*
X473837Y582933D01*
X473901Y583246D01*
X473973Y583558D01*
X474052Y583868D01*
X474139Y584175D01*
X474233Y584481D01*
X474334Y584784D01*
X474443Y585085D01*
X474558Y585383D01*
X474681Y585679D01*
X474811Y585971D01*
X474948Y586260D01*
X474948Y586261D02*
X474987Y586369D01*
X475030Y586476D01*
X475076Y586581D01*
X475127Y586685D01*
X475180Y586787D01*
X475237Y586887D01*
X475298Y586985D01*
X475362Y587080D01*
X475429Y587174D01*
X475500Y587265D01*
X475573Y587354D01*
X475650Y587440D01*
X475729Y587523D01*
X475811Y587604D01*
X475896Y587682D01*
X475984Y587756D01*
X476074Y587828D01*
X476166Y587896D01*
X476261Y587962D01*
X476358Y588024D01*
X476457Y588082D01*
X476559Y588138D01*
X476661Y588189D01*
X476766Y588237D01*
X476872Y588282D01*
X476980Y588323D01*
X477089Y588360D01*
X477199Y588393D01*
X477311Y588422D01*
X477423Y588448D01*
X477536Y588470D01*
X477650Y588487D01*
X477764Y588501D01*
X477879Y588511D01*
X477994Y588517D01*
X478109Y588519D01*
X478109Y588518D02*
X478224Y588516D01*
X478339Y588510D01*
X478454Y588500D01*
X478568Y588486D01*
X478682Y588469D01*
X478795Y588447D01*
X478907Y588421D01*
X479019Y588392D01*
X479129Y588359D01*
X479238Y588322D01*
X479346Y588281D01*
X479452Y588236D01*
X479557Y588188D01*
X479659Y588137D01*
X479760Y588081D01*
X479860Y588023D01*
X479957Y587961D01*
X480051Y587896D01*
X480144Y587827D01*
X480234Y587755D01*
X480322Y587681D01*
X480407Y587603D01*
X480489Y587522D01*
X480568Y587439D01*
X480645Y587353D01*
X480718Y587264D01*
X480789Y587173D01*
X480856Y587079D01*
X480920Y586984D01*
X480981Y586886D01*
X481038Y586786D01*
X481091Y586684D01*
X481142Y586580D01*
X481188Y586475D01*
X481231Y586368D01*
X481270Y586260D01*
X481269Y586260D02*
X481406Y585971D01*
X481536Y585679D01*
X481659Y585383D01*
X481774Y585085D01*
X481883Y584784D01*
X481984Y584481D01*
X482078Y584175D01*
X482165Y583868D01*
X482244Y583558D01*
X482316Y583246D01*
X482380Y582933D01*
X482437Y582618D01*
X482487Y582302D01*
X482529Y581985D01*
X482563Y581667D01*
X482590Y581349D01*
X482609Y581029D01*
X482620Y580710D01*
X482624Y580390D01*
X473594Y580390D02*
X473598Y580070D01*
X473609Y579751D01*
X473628Y579431D01*
X473655Y579113D01*
X473689Y578795D01*
X473731Y578478D01*
X473781Y578162D01*
X473838Y577847D01*
X473902Y577534D01*
X473974Y577222D01*
X474053Y576912D01*
X474140Y576605D01*
X474234Y576299D01*
X474335Y575996D01*
X474444Y575695D01*
X474559Y575397D01*
X474682Y575101D01*
X474812Y574809D01*
X474949Y574520D01*
X474948Y574520D02*
X474987Y574412D01*
X475030Y574305D01*
X475076Y574200D01*
X475127Y574096D01*
X475180Y573994D01*
X475237Y573894D01*
X475298Y573796D01*
X475362Y573701D01*
X475429Y573607D01*
X475500Y573516D01*
X475573Y573427D01*
X475650Y573341D01*
X475729Y573258D01*
X475811Y573177D01*
X475896Y573099D01*
X475984Y573025D01*
X476074Y572953D01*
X476167Y572884D01*
X476261Y572819D01*
X476358Y572757D01*
X476458Y572699D01*
X476559Y572643D01*
X476661Y572592D01*
X476766Y572544D01*
X476872Y572499D01*
X476980Y572458D01*
X477089Y572421D01*
X477199Y572388D01*
X477311Y572359D01*
X477423Y572333D01*
X477536Y572311D01*
X477650Y572294D01*
X477764Y572280D01*
X477879Y572270D01*
X477994Y572264D01*
X478109Y572262D01*
X481269Y574520D02*
X481406Y574809D01*
X481536Y575101D01*
X481659Y575397D01*
X481774Y575695D01*
X481883Y575996D01*
X481984Y576299D01*
X482078Y576605D01*
X482165Y576912D01*
X482244Y577222D01*
X482316Y577534D01*
X482380Y577847D01*
X482437Y578162D01*
X482487Y578478D01*
X482529Y578795D01*
X482563Y579113D01*
X482590Y579431D01*
X482609Y579751D01*
X482620Y580070D01*
X482624Y580390D01*
X481270Y574520D02*
X481231Y574412D01*
X481188Y574305D01*
X481142Y574200D01*
X481091Y574096D01*
X481038Y573994D01*
X480981Y573894D01*
X480920Y573796D01*
X480856Y573701D01*
X480789Y573607D01*
X480718Y573516D01*
X480645Y573427D01*
X480568Y573341D01*
X480489Y573258D01*
X480407Y573177D01*
X480322Y573099D01*
X480234Y573025D01*
X480144Y572953D01*
X480051Y572884D01*
X479957Y572819D01*
X479860Y572757D01*
X479760Y572699D01*
X479659Y572643D01*
X479556Y572592D01*
X479452Y572544D01*
X479346Y572499D01*
X479238Y572458D01*
X479129Y572421D01*
X479019Y572388D01*
X478907Y572359D01*
X478795Y572333D01*
X478682Y572311D01*
X478568Y572294D01*
X478454Y572280D01*
X478339Y572270D01*
X478224Y572264D01*
X478109Y572262D01*
X474496Y575874D02*
X481721Y584906D01*
X489224Y584906D02*
X493740Y588518D01*
X493740Y572262D01*
X489224Y572262D02*
X498256Y572262D01*
X504855Y576778D02*
X504857Y576911D01*
X504863Y577043D01*
X504873Y577175D01*
X504886Y577307D01*
X504904Y577439D01*
X504925Y577569D01*
X504950Y577700D01*
X504979Y577829D01*
X505012Y577957D01*
X505048Y578085D01*
X505088Y578211D01*
X505132Y578336D01*
X505180Y578460D01*
X505231Y578582D01*
X505286Y578703D01*
X505344Y578822D01*
X505406Y578940D01*
X505471Y579055D01*
X505540Y579169D01*
X505611Y579280D01*
X505687Y579389D01*
X505765Y579496D01*
X505846Y579601D01*
X505931Y579703D01*
X506018Y579803D01*
X506108Y579900D01*
X506201Y579995D01*
X506297Y580086D01*
X506395Y580175D01*
X506496Y580261D01*
X506600Y580344D01*
X506706Y580424D01*
X506814Y580500D01*
X506924Y580574D01*
X507037Y580644D01*
X507151Y580711D01*
X507268Y580774D01*
X507386Y580834D01*
X507506Y580891D01*
X507628Y580944D01*
X507751Y580993D01*
X507875Y581039D01*
X508001Y581081D01*
X508128Y581119D01*
X508256Y581154D01*
X508385Y581185D01*
X508514Y581212D01*
X508645Y581235D01*
X508776Y581255D01*
X508908Y581270D01*
X509040Y581282D01*
X509172Y581290D01*
X509305Y581294D01*
X509437Y581294D01*
X509570Y581290D01*
X509702Y581282D01*
X509834Y581270D01*
X509966Y581255D01*
X510097Y581235D01*
X510228Y581212D01*
X510357Y581185D01*
X510486Y581154D01*
X510614Y581119D01*
X510741Y581081D01*
X510867Y581039D01*
X510991Y580993D01*
X511114Y580944D01*
X511236Y580891D01*
X511356Y580834D01*
X511474Y580774D01*
X511591Y580711D01*
X511705Y580644D01*
X511818Y580574D01*
X511928Y580500D01*
X512036Y580424D01*
X512142Y580344D01*
X512246Y580261D01*
X512347Y580175D01*
X512445Y580086D01*
X512541Y579995D01*
X512634Y579900D01*
X512724Y579803D01*
X512811Y579703D01*
X512896Y579601D01*
X512977Y579496D01*
X513055Y579389D01*
X513131Y579280D01*
X513202Y579169D01*
X513271Y579055D01*
X513336Y578940D01*
X513398Y578822D01*
X513456Y578703D01*
X513511Y578582D01*
X513562Y578460D01*
X513610Y578336D01*
X513654Y578211D01*
X513694Y578085D01*
X513730Y577957D01*
X513763Y577829D01*
X513792Y577700D01*
X513817Y577569D01*
X513838Y577439D01*
X513856Y577307D01*
X513869Y577175D01*
X513879Y577043D01*
X513885Y576911D01*
X513887Y576778D01*
X513885Y576645D01*
X513879Y576513D01*
X513869Y576381D01*
X513856Y576249D01*
X513838Y576117D01*
X513817Y575987D01*
X513792Y575856D01*
X513763Y575727D01*
X513730Y575599D01*
X513694Y575471D01*
X513654Y575345D01*
X513610Y575220D01*
X513562Y575096D01*
X513511Y574974D01*
X513456Y574853D01*
X513398Y574734D01*
X513336Y574616D01*
X513271Y574501D01*
X513202Y574387D01*
X513131Y574276D01*
X513055Y574167D01*
X512977Y574060D01*
X512896Y573955D01*
X512811Y573853D01*
X512724Y573753D01*
X512634Y573656D01*
X512541Y573561D01*
X512445Y573470D01*
X512347Y573381D01*
X512246Y573295D01*
X512142Y573212D01*
X512036Y573132D01*
X511928Y573056D01*
X511818Y572982D01*
X511705Y572912D01*
X511591Y572845D01*
X511474Y572782D01*
X511356Y572722D01*
X511236Y572665D01*
X511114Y572612D01*
X510991Y572563D01*
X510867Y572517D01*
X510741Y572475D01*
X510614Y572437D01*
X510486Y572402D01*
X510357Y572371D01*
X510228Y572344D01*
X510097Y572321D01*
X509966Y572301D01*
X509834Y572286D01*
X509702Y572274D01*
X509570Y572266D01*
X509437Y572262D01*
X509305Y572262D01*
X509172Y572266D01*
X509040Y572274D01*
X508908Y572286D01*
X508776Y572301D01*
X508645Y572321D01*
X508514Y572344D01*
X508385Y572371D01*
X508256Y572402D01*
X508128Y572437D01*
X508001Y572475D01*
X507875Y572517D01*
X507751Y572563D01*
X507628Y572612D01*
X507506Y572665D01*
X507386Y572722D01*
X507268Y572782D01*
X507151Y572845D01*
X507037Y572912D01*
X506924Y572982D01*
X506814Y573056D01*
X506706Y573132D01*
X506600Y573212D01*
X506496Y573295D01*
X506395Y573381D01*
X506297Y573470D01*
X506201Y573561D01*
X506108Y573656D01*
X506018Y573753D01*
X505931Y573853D01*
X505846Y573955D01*
X505765Y574060D01*
X505687Y574167D01*
X505611Y574276D01*
X505540Y574387D01*
X505471Y574501D01*
X505406Y574616D01*
X505344Y574734D01*
X505286Y574853D01*
X505231Y574974D01*
X505180Y575096D01*
X505132Y575220D01*
X505088Y575345D01*
X505048Y575471D01*
X505012Y575599D01*
X504979Y575727D01*
X504950Y575856D01*
X504925Y575987D01*
X504904Y576117D01*
X504886Y576249D01*
X504873Y576381D01*
X504863Y576513D01*
X504857Y576645D01*
X504855Y576778D01*
X505759Y584906D02*
X505761Y585025D01*
X505767Y585145D01*
X505777Y585264D01*
X505791Y585382D01*
X505808Y585501D01*
X505830Y585618D01*
X505855Y585735D01*
X505885Y585850D01*
X505918Y585965D01*
X505955Y586079D01*
X505995Y586191D01*
X506040Y586302D01*
X506088Y586411D01*
X506139Y586519D01*
X506194Y586625D01*
X506253Y586729D01*
X506315Y586831D01*
X506380Y586931D01*
X506449Y587029D01*
X506521Y587125D01*
X506596Y587218D01*
X506673Y587308D01*
X506754Y587396D01*
X506838Y587481D01*
X506925Y587563D01*
X507014Y587643D01*
X507106Y587719D01*
X507200Y587793D01*
X507297Y587863D01*
X507395Y587930D01*
X507496Y587994D01*
X507600Y588054D01*
X507705Y588111D01*
X507812Y588164D01*
X507920Y588214D01*
X508030Y588260D01*
X508142Y588302D01*
X508255Y588341D01*
X508369Y588376D01*
X508484Y588407D01*
X508601Y588435D01*
X508718Y588458D01*
X508835Y588478D01*
X508954Y588494D01*
X509073Y588506D01*
X509192Y588514D01*
X509311Y588518D01*
X509431Y588518D01*
X509550Y588514D01*
X509669Y588506D01*
X509788Y588494D01*
X509907Y588478D01*
X510024Y588458D01*
X510141Y588435D01*
X510258Y588407D01*
X510373Y588376D01*
X510487Y588341D01*
X510600Y588302D01*
X510712Y588260D01*
X510822Y588214D01*
X510930Y588164D01*
X511037Y588111D01*
X511142Y588054D01*
X511246Y587994D01*
X511347Y587930D01*
X511445Y587863D01*
X511542Y587793D01*
X511636Y587719D01*
X511728Y587643D01*
X511817Y587563D01*
X511904Y587481D01*
X511988Y587396D01*
X512069Y587308D01*
X512146Y587218D01*
X512221Y587125D01*
X512293Y587029D01*
X512362Y586931D01*
X512427Y586831D01*
X512489Y586729D01*
X512548Y586625D01*
X512603Y586519D01*
X512654Y586411D01*
X512702Y586302D01*
X512747Y586191D01*
X512787Y586079D01*
X512824Y585965D01*
X512857Y585850D01*
X512887Y585735D01*
X512912Y585618D01*
X512934Y585501D01*
X512951Y585382D01*
X512965Y585264D01*
X512975Y585145D01*
X512981Y585025D01*
X512983Y584906D01*
X512981Y584787D01*
X512975Y584667D01*
X512965Y584548D01*
X512951Y584430D01*
X512934Y584311D01*
X512912Y584194D01*
X512887Y584077D01*
X512857Y583962D01*
X512824Y583847D01*
X512787Y583733D01*
X512747Y583621D01*
X512702Y583510D01*
X512654Y583401D01*
X512603Y583293D01*
X512548Y583187D01*
X512489Y583083D01*
X512427Y582981D01*
X512362Y582881D01*
X512293Y582783D01*
X512221Y582687D01*
X512146Y582594D01*
X512069Y582504D01*
X511988Y582416D01*
X511904Y582331D01*
X511817Y582249D01*
X511728Y582169D01*
X511636Y582093D01*
X511542Y582019D01*
X511445Y581949D01*
X511347Y581882D01*
X511246Y581818D01*
X511142Y581758D01*
X511037Y581701D01*
X510930Y581648D01*
X510822Y581598D01*
X510712Y581552D01*
X510600Y581510D01*
X510487Y581471D01*
X510373Y581436D01*
X510258Y581405D01*
X510141Y581377D01*
X510024Y581354D01*
X509907Y581334D01*
X509788Y581318D01*
X509669Y581306D01*
X509550Y581298D01*
X509431Y581294D01*
X509311Y581294D01*
X509192Y581298D01*
X509073Y581306D01*
X508954Y581318D01*
X508835Y581334D01*
X508718Y581354D01*
X508601Y581377D01*
X508484Y581405D01*
X508369Y581436D01*
X508255Y581471D01*
X508142Y581510D01*
X508030Y581552D01*
X507920Y581598D01*
X507812Y581648D01*
X507705Y581701D01*
X507600Y581758D01*
X507496Y581818D01*
X507395Y581882D01*
X507297Y581949D01*
X507200Y582019D01*
X507106Y582093D01*
X507014Y582169D01*
X506925Y582249D01*
X506838Y582331D01*
X506754Y582416D01*
X506673Y582504D01*
X506596Y582594D01*
X506521Y582687D01*
X506449Y582783D01*
X506380Y582881D01*
X506315Y582981D01*
X506253Y583083D01*
X506194Y583187D01*
X506139Y583293D01*
X506088Y583401D01*
X506040Y583510D01*
X505995Y583621D01*
X505955Y583733D01*
X505918Y583847D01*
X505885Y583962D01*
X505855Y584077D01*
X505830Y584194D01*
X505808Y584311D01*
X505791Y584430D01*
X505777Y584548D01*
X505767Y584667D01*
X505761Y584787D01*
X505759Y584906D01*
X529290Y583099D02*
X529290Y572262D01*
X529290Y583099D02*
X534709Y583099D01*
X534709Y581293D01*
X539626Y579487D02*
X539626Y575874D01*
X539627Y579487D02*
X539629Y579606D01*
X539635Y579726D01*
X539645Y579845D01*
X539659Y579963D01*
X539676Y580082D01*
X539698Y580199D01*
X539723Y580316D01*
X539753Y580431D01*
X539786Y580546D01*
X539823Y580660D01*
X539863Y580772D01*
X539908Y580883D01*
X539956Y580992D01*
X540007Y581100D01*
X540062Y581206D01*
X540121Y581310D01*
X540183Y581412D01*
X540248Y581512D01*
X540317Y581610D01*
X540389Y581706D01*
X540464Y581799D01*
X540541Y581889D01*
X540622Y581977D01*
X540706Y582062D01*
X540793Y582144D01*
X540882Y582224D01*
X540974Y582300D01*
X541068Y582374D01*
X541165Y582444D01*
X541263Y582511D01*
X541364Y582575D01*
X541468Y582635D01*
X541573Y582692D01*
X541680Y582745D01*
X541788Y582795D01*
X541898Y582841D01*
X542010Y582883D01*
X542123Y582922D01*
X542237Y582957D01*
X542352Y582988D01*
X542469Y583016D01*
X542586Y583039D01*
X542703Y583059D01*
X542822Y583075D01*
X542941Y583087D01*
X543060Y583095D01*
X543179Y583099D01*
X543299Y583099D01*
X543418Y583095D01*
X543537Y583087D01*
X543656Y583075D01*
X543775Y583059D01*
X543892Y583039D01*
X544009Y583016D01*
X544126Y582988D01*
X544241Y582957D01*
X544355Y582922D01*
X544468Y582883D01*
X544580Y582841D01*
X544690Y582795D01*
X544798Y582745D01*
X544905Y582692D01*
X545010Y582635D01*
X545114Y582575D01*
X545215Y582511D01*
X545313Y582444D01*
X545410Y582374D01*
X545504Y582300D01*
X545596Y582224D01*
X545685Y582144D01*
X545772Y582062D01*
X545856Y581977D01*
X545937Y581889D01*
X546014Y581799D01*
X546089Y581706D01*
X546161Y581610D01*
X546230Y581512D01*
X546295Y581412D01*
X546357Y581310D01*
X546416Y581206D01*
X546471Y581100D01*
X546522Y580992D01*
X546570Y580883D01*
X546615Y580772D01*
X546655Y580660D01*
X546692Y580546D01*
X546725Y580431D01*
X546755Y580316D01*
X546780Y580199D01*
X546802Y580082D01*
X546819Y579963D01*
X546833Y579845D01*
X546843Y579726D01*
X546849Y579606D01*
X546851Y579487D01*
X546851Y575874D01*
X546849Y575755D01*
X546843Y575635D01*
X546833Y575516D01*
X546819Y575398D01*
X546802Y575279D01*
X546780Y575162D01*
X546755Y575045D01*
X546725Y574930D01*
X546692Y574815D01*
X546655Y574701D01*
X546615Y574589D01*
X546570Y574478D01*
X546522Y574369D01*
X546471Y574261D01*
X546416Y574155D01*
X546357Y574051D01*
X546295Y573949D01*
X546230Y573849D01*
X546161Y573751D01*
X546089Y573655D01*
X546014Y573562D01*
X545937Y573472D01*
X545856Y573384D01*
X545772Y573299D01*
X545685Y573217D01*
X545596Y573137D01*
X545504Y573061D01*
X545410Y572987D01*
X545313Y572917D01*
X545215Y572850D01*
X545114Y572786D01*
X545010Y572726D01*
X544905Y572669D01*
X544798Y572616D01*
X544690Y572566D01*
X544580Y572520D01*
X544468Y572478D01*
X544355Y572439D01*
X544241Y572404D01*
X544126Y572373D01*
X544009Y572345D01*
X543892Y572322D01*
X543775Y572302D01*
X543656Y572286D01*
X543537Y572274D01*
X543418Y572266D01*
X543299Y572262D01*
X543179Y572262D01*
X543060Y572266D01*
X542941Y572274D01*
X542822Y572286D01*
X542703Y572302D01*
X542586Y572322D01*
X542469Y572345D01*
X542352Y572373D01*
X542237Y572404D01*
X542123Y572439D01*
X542010Y572478D01*
X541898Y572520D01*
X541788Y572566D01*
X541680Y572616D01*
X541573Y572669D01*
X541468Y572726D01*
X541364Y572786D01*
X541263Y572850D01*
X541165Y572917D01*
X541068Y572987D01*
X540974Y573061D01*
X540882Y573137D01*
X540793Y573217D01*
X540706Y573299D01*
X540622Y573384D01*
X540541Y573472D01*
X540464Y573562D01*
X540389Y573655D01*
X540317Y573751D01*
X540248Y573849D01*
X540183Y573949D01*
X540121Y574051D01*
X540062Y574155D01*
X540007Y574261D01*
X539956Y574369D01*
X539908Y574478D01*
X539863Y574589D01*
X539823Y574701D01*
X539786Y574815D01*
X539753Y574930D01*
X539723Y575045D01*
X539698Y575162D01*
X539676Y575279D01*
X539659Y575398D01*
X539645Y575516D01*
X539635Y575635D01*
X539629Y575755D01*
X539627Y575874D01*
X553768Y572262D02*
X553768Y588518D01*
X553768Y572262D02*
X558283Y572262D01*
X558387Y572264D01*
X558490Y572270D01*
X558594Y572280D01*
X558697Y572294D01*
X558799Y572312D01*
X558900Y572333D01*
X559001Y572359D01*
X559100Y572388D01*
X559199Y572421D01*
X559296Y572458D01*
X559391Y572499D01*
X559485Y572543D01*
X559577Y572591D01*
X559667Y572642D01*
X559756Y572697D01*
X559842Y572755D01*
X559925Y572817D01*
X560007Y572881D01*
X560085Y572949D01*
X560161Y573019D01*
X560235Y573092D01*
X560305Y573169D01*
X560373Y573247D01*
X560437Y573329D01*
X560499Y573412D01*
X560557Y573498D01*
X560612Y573587D01*
X560663Y573677D01*
X560711Y573769D01*
X560755Y573863D01*
X560796Y573958D01*
X560833Y574055D01*
X560866Y574154D01*
X560895Y574253D01*
X560921Y574354D01*
X560942Y574455D01*
X560960Y574557D01*
X560974Y574660D01*
X560984Y574764D01*
X560990Y574867D01*
X560992Y574971D01*
X560993Y574971D02*
X560993Y580390D01*
X560992Y580390D02*
X560990Y580491D01*
X560984Y580592D01*
X560975Y580693D01*
X560962Y580794D01*
X560945Y580894D01*
X560924Y580993D01*
X560900Y581091D01*
X560872Y581188D01*
X560840Y581285D01*
X560805Y581380D01*
X560766Y581473D01*
X560724Y581565D01*
X560678Y581656D01*
X560629Y581745D01*
X560577Y581831D01*
X560521Y581916D01*
X560463Y581999D01*
X560401Y582079D01*
X560336Y582157D01*
X560269Y582233D01*
X560199Y582306D01*
X560126Y582376D01*
X560050Y582443D01*
X559972Y582508D01*
X559892Y582570D01*
X559809Y582628D01*
X559724Y582684D01*
X559638Y582736D01*
X559549Y582785D01*
X559458Y582831D01*
X559366Y582873D01*
X559273Y582912D01*
X559178Y582947D01*
X559081Y582979D01*
X558984Y583007D01*
X558886Y583031D01*
X558787Y583052D01*
X558687Y583069D01*
X558586Y583082D01*
X558485Y583091D01*
X558384Y583097D01*
X558283Y583099D01*
X553768Y583099D01*
X567242Y579487D02*
X567242Y575874D01*
X567242Y579487D02*
X567244Y579606D01*
X567250Y579726D01*
X567260Y579845D01*
X567274Y579963D01*
X567291Y580082D01*
X567313Y580199D01*
X567338Y580316D01*
X567368Y580431D01*
X567401Y580546D01*
X567438Y580660D01*
X567478Y580772D01*
X567523Y580883D01*
X567571Y580992D01*
X567622Y581100D01*
X567677Y581206D01*
X567736Y581310D01*
X567798Y581412D01*
X567863Y581512D01*
X567932Y581610D01*
X568004Y581706D01*
X568079Y581799D01*
X568156Y581889D01*
X568237Y581977D01*
X568321Y582062D01*
X568408Y582144D01*
X568497Y582224D01*
X568589Y582300D01*
X568683Y582374D01*
X568780Y582444D01*
X568878Y582511D01*
X568979Y582575D01*
X569083Y582635D01*
X569188Y582692D01*
X569295Y582745D01*
X569403Y582795D01*
X569513Y582841D01*
X569625Y582883D01*
X569738Y582922D01*
X569852Y582957D01*
X569967Y582988D01*
X570084Y583016D01*
X570201Y583039D01*
X570318Y583059D01*
X570437Y583075D01*
X570556Y583087D01*
X570675Y583095D01*
X570794Y583099D01*
X570914Y583099D01*
X571033Y583095D01*
X571152Y583087D01*
X571271Y583075D01*
X571390Y583059D01*
X571507Y583039D01*
X571624Y583016D01*
X571741Y582988D01*
X571856Y582957D01*
X571970Y582922D01*
X572083Y582883D01*
X572195Y582841D01*
X572305Y582795D01*
X572413Y582745D01*
X572520Y582692D01*
X572625Y582635D01*
X572729Y582575D01*
X572830Y582511D01*
X572928Y582444D01*
X573025Y582374D01*
X573119Y582300D01*
X573211Y582224D01*
X573300Y582144D01*
X573387Y582062D01*
X573471Y581977D01*
X573552Y581889D01*
X573629Y581799D01*
X573704Y581706D01*
X573776Y581610D01*
X573845Y581512D01*
X573910Y581412D01*
X573972Y581310D01*
X574031Y581206D01*
X574086Y581100D01*
X574137Y580992D01*
X574185Y580883D01*
X574230Y580772D01*
X574270Y580660D01*
X574307Y580546D01*
X574340Y580431D01*
X574370Y580316D01*
X574395Y580199D01*
X574417Y580082D01*
X574434Y579963D01*
X574448Y579845D01*
X574458Y579726D01*
X574464Y579606D01*
X574466Y579487D01*
X574466Y575874D01*
X574464Y575755D01*
X574458Y575635D01*
X574448Y575516D01*
X574434Y575398D01*
X574417Y575279D01*
X574395Y575162D01*
X574370Y575045D01*
X574340Y574930D01*
X574307Y574815D01*
X574270Y574701D01*
X574230Y574589D01*
X574185Y574478D01*
X574137Y574369D01*
X574086Y574261D01*
X574031Y574155D01*
X573972Y574051D01*
X573910Y573949D01*
X573845Y573849D01*
X573776Y573751D01*
X573704Y573655D01*
X573629Y573562D01*
X573552Y573472D01*
X573471Y573384D01*
X573387Y573299D01*
X573300Y573217D01*
X573211Y573137D01*
X573119Y573061D01*
X573025Y572987D01*
X572928Y572917D01*
X572830Y572850D01*
X572729Y572786D01*
X572625Y572726D01*
X572520Y572669D01*
X572413Y572616D01*
X572305Y572566D01*
X572195Y572520D01*
X572083Y572478D01*
X571970Y572439D01*
X571856Y572404D01*
X571741Y572373D01*
X571624Y572345D01*
X571507Y572322D01*
X571390Y572302D01*
X571271Y572286D01*
X571152Y572274D01*
X571033Y572266D01*
X570914Y572262D01*
X570794Y572262D01*
X570675Y572266D01*
X570556Y572274D01*
X570437Y572286D01*
X570318Y572302D01*
X570201Y572322D01*
X570084Y572345D01*
X569967Y572373D01*
X569852Y572404D01*
X569738Y572439D01*
X569625Y572478D01*
X569513Y572520D01*
X569403Y572566D01*
X569295Y572616D01*
X569188Y572669D01*
X569083Y572726D01*
X568979Y572786D01*
X568878Y572850D01*
X568780Y572917D01*
X568683Y572987D01*
X568589Y573061D01*
X568497Y573137D01*
X568408Y573217D01*
X568321Y573299D01*
X568237Y573384D01*
X568156Y573472D01*
X568079Y573562D01*
X568004Y573655D01*
X567932Y573751D01*
X567863Y573849D01*
X567798Y573949D01*
X567736Y574051D01*
X567677Y574155D01*
X567622Y574261D01*
X567571Y574369D01*
X567523Y574478D01*
X567478Y574589D01*
X567438Y574701D01*
X567401Y574815D01*
X567368Y574930D01*
X567338Y575045D01*
X567313Y575162D01*
X567291Y575279D01*
X567274Y575398D01*
X567260Y575516D01*
X567250Y575635D01*
X567244Y575755D01*
X567242Y575874D01*
X581067Y578584D02*
X591904Y578584D01*
X599098Y583099D02*
X599098Y566843D01*
X599098Y583099D02*
X603614Y583099D01*
X603718Y583097D01*
X603821Y583091D01*
X603925Y583081D01*
X604028Y583067D01*
X604130Y583049D01*
X604231Y583028D01*
X604332Y583002D01*
X604431Y582973D01*
X604530Y582940D01*
X604627Y582903D01*
X604722Y582862D01*
X604816Y582818D01*
X604908Y582770D01*
X604998Y582719D01*
X605087Y582664D01*
X605173Y582606D01*
X605256Y582544D01*
X605338Y582480D01*
X605416Y582412D01*
X605492Y582342D01*
X605566Y582269D01*
X605636Y582192D01*
X605704Y582114D01*
X605768Y582032D01*
X605830Y581949D01*
X605888Y581863D01*
X605943Y581774D01*
X605994Y581684D01*
X606042Y581592D01*
X606086Y581498D01*
X606127Y581403D01*
X606164Y581306D01*
X606197Y581207D01*
X606226Y581108D01*
X606252Y581007D01*
X606273Y580906D01*
X606291Y580804D01*
X606305Y580701D01*
X606315Y580597D01*
X606321Y580494D01*
X606323Y580390D01*
X606323Y574971D01*
X606321Y574870D01*
X606315Y574769D01*
X606306Y574668D01*
X606293Y574567D01*
X606276Y574467D01*
X606255Y574368D01*
X606231Y574270D01*
X606203Y574173D01*
X606171Y574076D01*
X606136Y573981D01*
X606097Y573888D01*
X606055Y573796D01*
X606009Y573705D01*
X605960Y573617D01*
X605908Y573530D01*
X605852Y573445D01*
X605794Y573362D01*
X605732Y573282D01*
X605667Y573204D01*
X605600Y573128D01*
X605530Y573055D01*
X605457Y572985D01*
X605381Y572918D01*
X605303Y572853D01*
X605223Y572791D01*
X605140Y572733D01*
X605055Y572677D01*
X604969Y572625D01*
X604880Y572576D01*
X604789Y572530D01*
X604697Y572488D01*
X604604Y572449D01*
X604509Y572414D01*
X604412Y572382D01*
X604315Y572354D01*
X604217Y572330D01*
X604118Y572309D01*
X604018Y572292D01*
X603917Y572279D01*
X603816Y572270D01*
X603715Y572264D01*
X603614Y572262D01*
X599098Y572262D01*
D11*
X200368Y102108D02*
X197772Y102108D01*
X197673Y102110D01*
X197573Y102116D01*
X197474Y102125D01*
X197376Y102138D01*
X197278Y102155D01*
X197180Y102176D01*
X197084Y102201D01*
X196989Y102229D01*
X196895Y102261D01*
X196802Y102296D01*
X196710Y102335D01*
X196620Y102378D01*
X196532Y102423D01*
X196445Y102473D01*
X196361Y102525D01*
X196278Y102581D01*
X196198Y102639D01*
X196120Y102701D01*
X196045Y102766D01*
X195972Y102834D01*
X195902Y102904D01*
X195834Y102977D01*
X195769Y103052D01*
X195707Y103130D01*
X195649Y103210D01*
X195593Y103293D01*
X195541Y103377D01*
X195491Y103464D01*
X195446Y103552D01*
X195403Y103642D01*
X195364Y103734D01*
X195329Y103827D01*
X195297Y103921D01*
X195269Y104016D01*
X195244Y104112D01*
X195223Y104210D01*
X195206Y104308D01*
X195193Y104406D01*
X195184Y104505D01*
X195178Y104605D01*
X195176Y104704D01*
X195175Y104704D02*
X195175Y111196D01*
X195176Y111196D02*
X195178Y111295D01*
X195184Y111395D01*
X195193Y111494D01*
X195206Y111592D01*
X195223Y111690D01*
X195244Y111788D01*
X195269Y111884D01*
X195297Y111979D01*
X195329Y112073D01*
X195364Y112166D01*
X195403Y112258D01*
X195446Y112348D01*
X195491Y112436D01*
X195541Y112523D01*
X195593Y112607D01*
X195649Y112690D01*
X195707Y112770D01*
X195769Y112848D01*
X195834Y112923D01*
X195902Y112996D01*
X195972Y113066D01*
X196045Y113134D01*
X196120Y113199D01*
X196198Y113261D01*
X196278Y113319D01*
X196361Y113375D01*
X196445Y113427D01*
X196532Y113477D01*
X196620Y113522D01*
X196710Y113565D01*
X196802Y113604D01*
X196894Y113639D01*
X196989Y113671D01*
X197084Y113699D01*
X197180Y113724D01*
X197278Y113745D01*
X197376Y113762D01*
X197474Y113775D01*
X197573Y113784D01*
X197673Y113790D01*
X197772Y113792D01*
X200368Y113792D01*
X204734Y111196D02*
X207979Y113792D01*
X207979Y102108D01*
X204734Y102108D02*
X211225Y102108D01*
X495808Y172692D02*
X503597Y172692D01*
X499703Y176586D02*
X499703Y168797D01*
X597408Y172692D02*
X605197Y172692D01*
X601303Y176586D02*
X601303Y168797D01*
D12*
X153200Y177400D02*
X153215Y178627D01*
X153260Y179853D01*
X153335Y181078D01*
X153441Y182301D01*
X153576Y183521D01*
X153741Y184737D01*
X153936Y185948D01*
X154161Y187155D01*
X154415Y188355D01*
X154698Y189549D01*
X155011Y190736D01*
X155353Y191914D01*
X155724Y193084D01*
X156123Y194244D01*
X156550Y195395D01*
X157006Y196534D01*
X157490Y197662D01*
X158001Y198778D01*
X158539Y199881D01*
X159104Y200970D01*
X159696Y202045D01*
X160314Y203105D01*
X160957Y204150D01*
X161627Y205179D01*
X162321Y206190D01*
X163040Y207185D01*
X163783Y208162D01*
X164549Y209120D01*
X165340Y210059D01*
X166152Y210978D01*
X166988Y211877D01*
X167845Y212755D01*
X168723Y213612D01*
X169622Y214448D01*
X170541Y215260D01*
X171480Y216051D01*
X172438Y216817D01*
X173415Y217560D01*
X174410Y218279D01*
X175421Y218973D01*
X176450Y219643D01*
X177495Y220286D01*
X178555Y220904D01*
X179630Y221496D01*
X180719Y222061D01*
X181822Y222599D01*
X182938Y223110D01*
X184066Y223594D01*
X185205Y224050D01*
X186356Y224477D01*
X187516Y224876D01*
X188686Y225247D01*
X189864Y225589D01*
X191051Y225902D01*
X192245Y226185D01*
X193445Y226439D01*
X194652Y226664D01*
X195863Y226859D01*
X197079Y227024D01*
X198299Y227159D01*
X199522Y227265D01*
X200747Y227340D01*
X201973Y227385D01*
X203200Y227400D01*
X204427Y227385D01*
X205653Y227340D01*
X206878Y227265D01*
X208101Y227159D01*
X209321Y227024D01*
X210537Y226859D01*
X211748Y226664D01*
X212955Y226439D01*
X214155Y226185D01*
X215349Y225902D01*
X216536Y225589D01*
X217714Y225247D01*
X218884Y224876D01*
X220044Y224477D01*
X221195Y224050D01*
X222334Y223594D01*
X223462Y223110D01*
X224578Y222599D01*
X225681Y222061D01*
X226770Y221496D01*
X227845Y220904D01*
X228905Y220286D01*
X229950Y219643D01*
X230979Y218973D01*
X231990Y218279D01*
X232985Y217560D01*
X233962Y216817D01*
X234920Y216051D01*
X235859Y215260D01*
X236778Y214448D01*
X237677Y213612D01*
X238555Y212755D01*
X239412Y211877D01*
X240248Y210978D01*
X241060Y210059D01*
X241851Y209120D01*
X242617Y208162D01*
X243360Y207185D01*
X244079Y206190D01*
X244773Y205179D01*
X245443Y204150D01*
X246086Y203105D01*
X246704Y202045D01*
X247296Y200970D01*
X247861Y199881D01*
X248399Y198778D01*
X248910Y197662D01*
X249394Y196534D01*
X249850Y195395D01*
X250277Y194244D01*
X250676Y193084D01*
X251047Y191914D01*
X251389Y190736D01*
X251702Y189549D01*
X251985Y188355D01*
X252239Y187155D01*
X252464Y185948D01*
X252659Y184737D01*
X252824Y183521D01*
X252959Y182301D01*
X253065Y181078D01*
X253140Y179853D01*
X253185Y178627D01*
X253200Y177400D01*
X253185Y176173D01*
X253140Y174947D01*
X253065Y173722D01*
X252959Y172499D01*
X252824Y171279D01*
X252659Y170063D01*
X252464Y168852D01*
X252239Y167645D01*
X251985Y166445D01*
X251702Y165251D01*
X251389Y164064D01*
X251047Y162886D01*
X250676Y161716D01*
X250277Y160556D01*
X249850Y159405D01*
X249394Y158266D01*
X248910Y157138D01*
X248399Y156022D01*
X247861Y154919D01*
X247296Y153830D01*
X246704Y152755D01*
X246086Y151695D01*
X245443Y150650D01*
X244773Y149621D01*
X244079Y148610D01*
X243360Y147615D01*
X242617Y146638D01*
X241851Y145680D01*
X241060Y144741D01*
X240248Y143822D01*
X239412Y142923D01*
X238555Y142045D01*
X237677Y141188D01*
X236778Y140352D01*
X235859Y139540D01*
X234920Y138749D01*
X233962Y137983D01*
X232985Y137240D01*
X231990Y136521D01*
X230979Y135827D01*
X229950Y135157D01*
X228905Y134514D01*
X227845Y133896D01*
X226770Y133304D01*
X225681Y132739D01*
X224578Y132201D01*
X223462Y131690D01*
X222334Y131206D01*
X221195Y130750D01*
X220044Y130323D01*
X218884Y129924D01*
X217714Y129553D01*
X216536Y129211D01*
X215349Y128898D01*
X214155Y128615D01*
X212955Y128361D01*
X211748Y128136D01*
X210537Y127941D01*
X209321Y127776D01*
X208101Y127641D01*
X206878Y127535D01*
X205653Y127460D01*
X204427Y127415D01*
X203200Y127400D01*
X201973Y127415D01*
X200747Y127460D01*
X199522Y127535D01*
X198299Y127641D01*
X197079Y127776D01*
X195863Y127941D01*
X194652Y128136D01*
X193445Y128361D01*
X192245Y128615D01*
X191051Y128898D01*
X189864Y129211D01*
X188686Y129553D01*
X187516Y129924D01*
X186356Y130323D01*
X185205Y130750D01*
X184066Y131206D01*
X182938Y131690D01*
X181822Y132201D01*
X180719Y132739D01*
X179630Y133304D01*
X178555Y133896D01*
X177495Y134514D01*
X176450Y135157D01*
X175421Y135827D01*
X174410Y136521D01*
X173415Y137240D01*
X172438Y137983D01*
X171480Y138749D01*
X170541Y139540D01*
X169622Y140352D01*
X168723Y141188D01*
X167845Y142045D01*
X166988Y142923D01*
X166152Y143822D01*
X165340Y144741D01*
X164549Y145680D01*
X163783Y146638D01*
X163040Y147615D01*
X162321Y148610D01*
X161627Y149621D01*
X160957Y150650D01*
X160314Y151695D01*
X159696Y152755D01*
X159104Y153830D01*
X158539Y154919D01*
X158001Y156022D01*
X157490Y157138D01*
X157006Y158266D01*
X156550Y159405D01*
X156123Y160556D01*
X155724Y161716D01*
X155353Y162886D01*
X155011Y164064D01*
X154698Y165251D01*
X154415Y166445D01*
X154161Y167645D01*
X153936Y168852D01*
X153741Y170063D01*
X153576Y171279D01*
X153441Y172499D01*
X153335Y173722D01*
X153260Y174947D01*
X153215Y176173D01*
X153200Y177400D01*
X215900Y165100D02*
X241300Y165100D01*
X228600Y177800D02*
X228600Y152400D01*
X215900Y165100D02*
X215904Y165412D01*
X215915Y165723D01*
X215934Y166034D01*
X215961Y166345D01*
X215996Y166655D01*
X216037Y166963D01*
X216087Y167271D01*
X216144Y167578D01*
X216209Y167883D01*
X216281Y168186D01*
X216360Y168487D01*
X216447Y168787D01*
X216541Y169084D01*
X216642Y169379D01*
X216751Y169671D01*
X216867Y169960D01*
X216990Y170247D01*
X217119Y170530D01*
X217256Y170810D01*
X217400Y171087D01*
X217550Y171360D01*
X217707Y171629D01*
X217870Y171894D01*
X218040Y172156D01*
X218217Y172413D01*
X218399Y172665D01*
X218588Y172913D01*
X218783Y173157D01*
X218983Y173395D01*
X219190Y173629D01*
X219402Y173857D01*
X219620Y174080D01*
X219843Y174298D01*
X220071Y174510D01*
X220305Y174717D01*
X220543Y174917D01*
X220787Y175112D01*
X221035Y175301D01*
X221287Y175483D01*
X221544Y175660D01*
X221806Y175830D01*
X222071Y175993D01*
X222340Y176150D01*
X222613Y176300D01*
X222890Y176444D01*
X223170Y176581D01*
X223453Y176710D01*
X223740Y176833D01*
X224029Y176949D01*
X224321Y177058D01*
X224616Y177159D01*
X224913Y177253D01*
X225213Y177340D01*
X225514Y177419D01*
X225817Y177491D01*
X226122Y177556D01*
X226429Y177613D01*
X226737Y177663D01*
X227045Y177704D01*
X227355Y177739D01*
X227666Y177766D01*
X227977Y177785D01*
X228288Y177796D01*
X228600Y177800D01*
X228912Y177796D01*
X229223Y177785D01*
X229534Y177766D01*
X229845Y177739D01*
X230155Y177704D01*
X230463Y177663D01*
X230771Y177613D01*
X231078Y177556D01*
X231383Y177491D01*
X231686Y177419D01*
X231987Y177340D01*
X232287Y177253D01*
X232584Y177159D01*
X232879Y177058D01*
X233171Y176949D01*
X233460Y176833D01*
X233747Y176710D01*
X234030Y176581D01*
X234310Y176444D01*
X234587Y176300D01*
X234860Y176150D01*
X235129Y175993D01*
X235394Y175830D01*
X235656Y175660D01*
X235913Y175483D01*
X236165Y175301D01*
X236413Y175112D01*
X236657Y174917D01*
X236895Y174717D01*
X237129Y174510D01*
X237357Y174298D01*
X237580Y174080D01*
X237798Y173857D01*
X238010Y173629D01*
X238217Y173395D01*
X238417Y173157D01*
X238612Y172913D01*
X238801Y172665D01*
X238983Y172413D01*
X239160Y172156D01*
X239330Y171894D01*
X239493Y171629D01*
X239650Y171360D01*
X239800Y171087D01*
X239944Y170810D01*
X240081Y170530D01*
X240210Y170247D01*
X240333Y169960D01*
X240449Y169671D01*
X240558Y169379D01*
X240659Y169084D01*
X240753Y168787D01*
X240840Y168487D01*
X240919Y168186D01*
X240991Y167883D01*
X241056Y167578D01*
X241113Y167271D01*
X241163Y166963D01*
X241204Y166655D01*
X241239Y166345D01*
X241266Y166034D01*
X241285Y165723D01*
X241296Y165412D01*
X241300Y165100D01*
X241296Y164788D01*
X241285Y164477D01*
X241266Y164166D01*
X241239Y163855D01*
X241204Y163545D01*
X241163Y163237D01*
X241113Y162929D01*
X241056Y162622D01*
X240991Y162317D01*
X240919Y162014D01*
X240840Y161713D01*
X240753Y161413D01*
X240659Y161116D01*
X240558Y160821D01*
X240449Y160529D01*
X240333Y160240D01*
X240210Y159953D01*
X240081Y159670D01*
X239944Y159390D01*
X239800Y159113D01*
X239650Y158840D01*
X239493Y158571D01*
X239330Y158306D01*
X239160Y158044D01*
X238983Y157787D01*
X238801Y157535D01*
X238612Y157287D01*
X238417Y157043D01*
X238217Y156805D01*
X238010Y156571D01*
X237798Y156343D01*
X237580Y156120D01*
X237357Y155902D01*
X237129Y155690D01*
X236895Y155483D01*
X236657Y155283D01*
X236413Y155088D01*
X236165Y154899D01*
X235913Y154717D01*
X235656Y154540D01*
X235394Y154370D01*
X235129Y154207D01*
X234860Y154050D01*
X234587Y153900D01*
X234310Y153756D01*
X234030Y153619D01*
X233747Y153490D01*
X233460Y153367D01*
X233171Y153251D01*
X232879Y153142D01*
X232584Y153041D01*
X232287Y152947D01*
X231987Y152860D01*
X231686Y152781D01*
X231383Y152709D01*
X231078Y152644D01*
X230771Y152587D01*
X230463Y152537D01*
X230155Y152496D01*
X229845Y152461D01*
X229534Y152434D01*
X229223Y152415D01*
X228912Y152404D01*
X228600Y152400D01*
X228288Y152404D01*
X227977Y152415D01*
X227666Y152434D01*
X227355Y152461D01*
X227045Y152496D01*
X226737Y152537D01*
X226429Y152587D01*
X226122Y152644D01*
X225817Y152709D01*
X225514Y152781D01*
X225213Y152860D01*
X224913Y152947D01*
X224616Y153041D01*
X224321Y153142D01*
X224029Y153251D01*
X223740Y153367D01*
X223453Y153490D01*
X223170Y153619D01*
X222890Y153756D01*
X222613Y153900D01*
X222340Y154050D01*
X222071Y154207D01*
X221806Y154370D01*
X221544Y154540D01*
X221287Y154717D01*
X221035Y154899D01*
X220787Y155088D01*
X220543Y155283D01*
X220305Y155483D01*
X220071Y155690D01*
X219843Y155902D01*
X219620Y156120D01*
X219402Y156343D01*
X219190Y156571D01*
X218983Y156805D01*
X218783Y157043D01*
X218588Y157287D01*
X218399Y157535D01*
X218217Y157787D01*
X218040Y158044D01*
X217870Y158306D01*
X217707Y158571D01*
X217550Y158840D01*
X217400Y159113D01*
X217256Y159390D01*
X217119Y159670D01*
X216990Y159953D01*
X216867Y160240D01*
X216751Y160529D01*
X216642Y160821D01*
X216541Y161116D01*
X216447Y161413D01*
X216360Y161713D01*
X216281Y162014D01*
X216209Y162317D01*
X216144Y162622D01*
X216087Y162929D01*
X216037Y163237D01*
X215996Y163545D01*
X215961Y163855D01*
X215934Y164166D01*
X215915Y164477D01*
X215904Y164788D01*
X215900Y165100D01*
D10*
X459740Y168910D02*
X459740Y212090D01*
X505460Y212090D02*
X505460Y168910D01*
X502920Y214630D02*
X462280Y214630D01*
X462280Y166370D02*
X502920Y166370D01*
X459740Y212090D02*
X459742Y212190D01*
X459748Y212289D01*
X459758Y212389D01*
X459771Y212487D01*
X459789Y212586D01*
X459810Y212683D01*
X459835Y212779D01*
X459864Y212875D01*
X459897Y212969D01*
X459933Y213062D01*
X459973Y213153D01*
X460017Y213243D01*
X460064Y213331D01*
X460114Y213417D01*
X460168Y213501D01*
X460225Y213583D01*
X460285Y213662D01*
X460349Y213740D01*
X460415Y213814D01*
X460484Y213886D01*
X460556Y213955D01*
X460630Y214021D01*
X460708Y214085D01*
X460787Y214145D01*
X460869Y214202D01*
X460953Y214256D01*
X461039Y214306D01*
X461127Y214353D01*
X461217Y214397D01*
X461308Y214437D01*
X461401Y214473D01*
X461495Y214506D01*
X461591Y214535D01*
X461687Y214560D01*
X461784Y214581D01*
X461883Y214599D01*
X461981Y214612D01*
X462081Y214622D01*
X462180Y214628D01*
X462280Y214630D01*
X459740Y168910D02*
X459742Y168810D01*
X459748Y168711D01*
X459758Y168611D01*
X459771Y168513D01*
X459789Y168414D01*
X459810Y168317D01*
X459835Y168221D01*
X459864Y168125D01*
X459897Y168031D01*
X459933Y167938D01*
X459973Y167847D01*
X460017Y167757D01*
X460064Y167669D01*
X460114Y167583D01*
X460168Y167499D01*
X460225Y167417D01*
X460285Y167338D01*
X460349Y167260D01*
X460415Y167186D01*
X460484Y167114D01*
X460556Y167045D01*
X460630Y166979D01*
X460708Y166915D01*
X460787Y166855D01*
X460869Y166798D01*
X460953Y166744D01*
X461039Y166694D01*
X461127Y166647D01*
X461217Y166603D01*
X461308Y166563D01*
X461401Y166527D01*
X461495Y166494D01*
X461591Y166465D01*
X461687Y166440D01*
X461784Y166419D01*
X461883Y166401D01*
X461981Y166388D01*
X462081Y166378D01*
X462180Y166372D01*
X462280Y166370D01*
X505460Y212090D02*
X505458Y212190D01*
X505452Y212289D01*
X505442Y212389D01*
X505429Y212487D01*
X505411Y212586D01*
X505390Y212683D01*
X505365Y212779D01*
X505336Y212875D01*
X505303Y212969D01*
X505267Y213062D01*
X505227Y213153D01*
X505183Y213243D01*
X505136Y213331D01*
X505086Y213417D01*
X505032Y213501D01*
X504975Y213583D01*
X504915Y213662D01*
X504851Y213740D01*
X504785Y213814D01*
X504716Y213886D01*
X504644Y213955D01*
X504570Y214021D01*
X504492Y214085D01*
X504413Y214145D01*
X504331Y214202D01*
X504247Y214256D01*
X504161Y214306D01*
X504073Y214353D01*
X503983Y214397D01*
X503892Y214437D01*
X503799Y214473D01*
X503705Y214506D01*
X503609Y214535D01*
X503513Y214560D01*
X503416Y214581D01*
X503317Y214599D01*
X503219Y214612D01*
X503119Y214622D01*
X503020Y214628D01*
X502920Y214630D01*
X505460Y168910D02*
X505458Y168810D01*
X505452Y168711D01*
X505442Y168611D01*
X505429Y168513D01*
X505411Y168414D01*
X505390Y168317D01*
X505365Y168221D01*
X505336Y168125D01*
X505303Y168031D01*
X505267Y167938D01*
X505227Y167847D01*
X505183Y167757D01*
X505136Y167669D01*
X505086Y167583D01*
X505032Y167499D01*
X504975Y167417D01*
X504915Y167338D01*
X504851Y167260D01*
X504785Y167186D01*
X504716Y167114D01*
X504644Y167045D01*
X504570Y166979D01*
X504492Y166915D01*
X504413Y166855D01*
X504331Y166798D01*
X504247Y166744D01*
X504161Y166694D01*
X504073Y166647D01*
X503983Y166603D01*
X503892Y166563D01*
X503799Y166527D01*
X503705Y166494D01*
X503609Y166465D01*
X503513Y166440D01*
X503416Y166419D01*
X503317Y166401D01*
X503219Y166388D01*
X503119Y166378D01*
X503020Y166372D01*
X502920Y166370D01*
X482600Y193040D02*
X482600Y194310D01*
D13*
X482600Y193040D02*
X474980Y193040D01*
X482600Y193040D02*
X490220Y193040D01*
X482600Y187960D02*
X474980Y187960D01*
X482600Y187960D02*
X490220Y187960D01*
D10*
X482600Y187960D02*
X482600Y186690D01*
D12*
X479724Y221615D02*
X477184Y221615D01*
X477084Y221617D01*
X476985Y221623D01*
X476885Y221633D01*
X476787Y221646D01*
X476688Y221664D01*
X476591Y221685D01*
X476495Y221710D01*
X476399Y221739D01*
X476305Y221772D01*
X476212Y221808D01*
X476121Y221848D01*
X476031Y221892D01*
X475943Y221939D01*
X475857Y221989D01*
X475773Y222043D01*
X475691Y222100D01*
X475612Y222160D01*
X475534Y222224D01*
X475460Y222290D01*
X475388Y222359D01*
X475319Y222431D01*
X475253Y222505D01*
X475189Y222583D01*
X475129Y222662D01*
X475072Y222744D01*
X475018Y222828D01*
X474968Y222914D01*
X474921Y223002D01*
X474877Y223092D01*
X474837Y223183D01*
X474801Y223276D01*
X474768Y223370D01*
X474739Y223466D01*
X474714Y223562D01*
X474693Y223659D01*
X474675Y223758D01*
X474662Y223856D01*
X474652Y223956D01*
X474646Y224055D01*
X474644Y224155D01*
X474644Y230505D01*
X474646Y230605D01*
X474652Y230704D01*
X474662Y230804D01*
X474675Y230902D01*
X474693Y231001D01*
X474714Y231098D01*
X474739Y231194D01*
X474768Y231290D01*
X474801Y231384D01*
X474837Y231477D01*
X474877Y231568D01*
X474921Y231658D01*
X474968Y231746D01*
X475018Y231832D01*
X475072Y231916D01*
X475129Y231998D01*
X475189Y232077D01*
X475253Y232155D01*
X475319Y232229D01*
X475388Y232301D01*
X475460Y232370D01*
X475534Y232436D01*
X475612Y232500D01*
X475691Y232560D01*
X475773Y232617D01*
X475857Y232671D01*
X475943Y232721D01*
X476031Y232768D01*
X476121Y232812D01*
X476212Y232852D01*
X476305Y232888D01*
X476399Y232921D01*
X476495Y232950D01*
X476591Y232975D01*
X476688Y232996D01*
X476787Y233014D01*
X476885Y233027D01*
X476985Y233037D01*
X477084Y233043D01*
X477184Y233045D01*
X479724Y233045D01*
X487699Y233046D02*
X487803Y233044D01*
X487908Y233038D01*
X488012Y233029D01*
X488115Y233016D01*
X488218Y232998D01*
X488320Y232978D01*
X488422Y232953D01*
X488522Y232925D01*
X488622Y232893D01*
X488720Y232857D01*
X488817Y232818D01*
X488912Y232776D01*
X489006Y232730D01*
X489098Y232680D01*
X489188Y232628D01*
X489276Y232572D01*
X489362Y232512D01*
X489446Y232450D01*
X489527Y232385D01*
X489606Y232317D01*
X489683Y232245D01*
X489756Y232172D01*
X489828Y232095D01*
X489896Y232016D01*
X489961Y231935D01*
X490023Y231851D01*
X490083Y231765D01*
X490139Y231677D01*
X490191Y231587D01*
X490241Y231495D01*
X490287Y231401D01*
X490329Y231306D01*
X490368Y231209D01*
X490404Y231111D01*
X490436Y231011D01*
X490464Y230911D01*
X490489Y230809D01*
X490509Y230707D01*
X490527Y230604D01*
X490540Y230501D01*
X490549Y230397D01*
X490555Y230292D01*
X490557Y230188D01*
X487699Y233045D02*
X487581Y233043D01*
X487462Y233037D01*
X487344Y233028D01*
X487227Y233015D01*
X487110Y232997D01*
X486993Y232977D01*
X486877Y232952D01*
X486762Y232924D01*
X486649Y232891D01*
X486536Y232856D01*
X486424Y232816D01*
X486314Y232774D01*
X486205Y232727D01*
X486097Y232677D01*
X485992Y232624D01*
X485888Y232567D01*
X485786Y232507D01*
X485686Y232444D01*
X485588Y232377D01*
X485492Y232308D01*
X485399Y232235D01*
X485308Y232159D01*
X485219Y232081D01*
X485133Y231999D01*
X485050Y231915D01*
X484969Y231829D01*
X484892Y231739D01*
X484817Y231648D01*
X484745Y231554D01*
X484676Y231457D01*
X484611Y231359D01*
X484548Y231258D01*
X484489Y231155D01*
X484433Y231051D01*
X484381Y230945D01*
X484332Y230837D01*
X484287Y230728D01*
X484245Y230617D01*
X484207Y230505D01*
X489604Y227966D02*
X489680Y228041D01*
X489755Y228120D01*
X489826Y228201D01*
X489895Y228285D01*
X489960Y228371D01*
X490022Y228459D01*
X490082Y228549D01*
X490138Y228641D01*
X490191Y228736D01*
X490240Y228832D01*
X490286Y228930D01*
X490329Y229029D01*
X490368Y229130D01*
X490403Y229232D01*
X490435Y229335D01*
X490463Y229439D01*
X490488Y229544D01*
X490509Y229651D01*
X490526Y229757D01*
X490539Y229864D01*
X490548Y229972D01*
X490554Y230080D01*
X490556Y230188D01*
X489604Y227965D02*
X484206Y221615D01*
X490556Y221615D01*
D10*
X561340Y212090D02*
X561340Y168910D01*
X607060Y168910D02*
X607060Y212090D01*
X604520Y214630D02*
X563880Y214630D01*
X563880Y166370D02*
X604520Y166370D01*
X561340Y212090D02*
X561342Y212190D01*
X561348Y212289D01*
X561358Y212389D01*
X561371Y212487D01*
X561389Y212586D01*
X561410Y212683D01*
X561435Y212779D01*
X561464Y212875D01*
X561497Y212969D01*
X561533Y213062D01*
X561573Y213153D01*
X561617Y213243D01*
X561664Y213331D01*
X561714Y213417D01*
X561768Y213501D01*
X561825Y213583D01*
X561885Y213662D01*
X561949Y213740D01*
X562015Y213814D01*
X562084Y213886D01*
X562156Y213955D01*
X562230Y214021D01*
X562308Y214085D01*
X562387Y214145D01*
X562469Y214202D01*
X562553Y214256D01*
X562639Y214306D01*
X562727Y214353D01*
X562817Y214397D01*
X562908Y214437D01*
X563001Y214473D01*
X563095Y214506D01*
X563191Y214535D01*
X563287Y214560D01*
X563384Y214581D01*
X563483Y214599D01*
X563581Y214612D01*
X563681Y214622D01*
X563780Y214628D01*
X563880Y214630D01*
X561340Y168910D02*
X561342Y168810D01*
X561348Y168711D01*
X561358Y168611D01*
X561371Y168513D01*
X561389Y168414D01*
X561410Y168317D01*
X561435Y168221D01*
X561464Y168125D01*
X561497Y168031D01*
X561533Y167938D01*
X561573Y167847D01*
X561617Y167757D01*
X561664Y167669D01*
X561714Y167583D01*
X561768Y167499D01*
X561825Y167417D01*
X561885Y167338D01*
X561949Y167260D01*
X562015Y167186D01*
X562084Y167114D01*
X562156Y167045D01*
X562230Y166979D01*
X562308Y166915D01*
X562387Y166855D01*
X562469Y166798D01*
X562553Y166744D01*
X562639Y166694D01*
X562727Y166647D01*
X562817Y166603D01*
X562908Y166563D01*
X563001Y166527D01*
X563095Y166494D01*
X563191Y166465D01*
X563287Y166440D01*
X563384Y166419D01*
X563483Y166401D01*
X563581Y166388D01*
X563681Y166378D01*
X563780Y166372D01*
X563880Y166370D01*
X607060Y212090D02*
X607058Y212190D01*
X607052Y212289D01*
X607042Y212389D01*
X607029Y212487D01*
X607011Y212586D01*
X606990Y212683D01*
X606965Y212779D01*
X606936Y212875D01*
X606903Y212969D01*
X606867Y213062D01*
X606827Y213153D01*
X606783Y213243D01*
X606736Y213331D01*
X606686Y213417D01*
X606632Y213501D01*
X606575Y213583D01*
X606515Y213662D01*
X606451Y213740D01*
X606385Y213814D01*
X606316Y213886D01*
X606244Y213955D01*
X606170Y214021D01*
X606092Y214085D01*
X606013Y214145D01*
X605931Y214202D01*
X605847Y214256D01*
X605761Y214306D01*
X605673Y214353D01*
X605583Y214397D01*
X605492Y214437D01*
X605399Y214473D01*
X605305Y214506D01*
X605209Y214535D01*
X605113Y214560D01*
X605016Y214581D01*
X604917Y214599D01*
X604819Y214612D01*
X604719Y214622D01*
X604620Y214628D01*
X604520Y214630D01*
X607060Y168910D02*
X607058Y168810D01*
X607052Y168711D01*
X607042Y168611D01*
X607029Y168513D01*
X607011Y168414D01*
X606990Y168317D01*
X606965Y168221D01*
X606936Y168125D01*
X606903Y168031D01*
X606867Y167938D01*
X606827Y167847D01*
X606783Y167757D01*
X606736Y167669D01*
X606686Y167583D01*
X606632Y167499D01*
X606575Y167417D01*
X606515Y167338D01*
X606451Y167260D01*
X606385Y167186D01*
X606316Y167114D01*
X606244Y167045D01*
X606170Y166979D01*
X606092Y166915D01*
X606013Y166855D01*
X605931Y166798D01*
X605847Y166744D01*
X605761Y166694D01*
X605673Y166647D01*
X605583Y166603D01*
X605492Y166563D01*
X605399Y166527D01*
X605305Y166494D01*
X605209Y166465D01*
X605113Y166440D01*
X605016Y166419D01*
X604917Y166401D01*
X604819Y166388D01*
X604719Y166378D01*
X604620Y166372D01*
X604520Y166370D01*
X584200Y193040D02*
X584200Y194310D01*
D13*
X584200Y193040D02*
X576580Y193040D01*
X584200Y193040D02*
X591820Y193040D01*
X584200Y187960D02*
X576580Y187960D01*
X584200Y187960D02*
X591820Y187960D01*
D10*
X584200Y187960D02*
X584200Y186690D01*
D12*
X568624Y221615D02*
X566084Y221615D01*
X565984Y221617D01*
X565885Y221623D01*
X565785Y221633D01*
X565687Y221646D01*
X565588Y221664D01*
X565491Y221685D01*
X565395Y221710D01*
X565299Y221739D01*
X565205Y221772D01*
X565112Y221808D01*
X565021Y221848D01*
X564931Y221892D01*
X564843Y221939D01*
X564757Y221989D01*
X564673Y222043D01*
X564591Y222100D01*
X564512Y222160D01*
X564434Y222224D01*
X564360Y222290D01*
X564288Y222359D01*
X564219Y222431D01*
X564153Y222505D01*
X564089Y222583D01*
X564029Y222662D01*
X563972Y222744D01*
X563918Y222828D01*
X563868Y222914D01*
X563821Y223002D01*
X563777Y223092D01*
X563737Y223183D01*
X563701Y223276D01*
X563668Y223370D01*
X563639Y223466D01*
X563614Y223562D01*
X563593Y223659D01*
X563575Y223758D01*
X563562Y223856D01*
X563552Y223956D01*
X563546Y224055D01*
X563544Y224155D01*
X563544Y230505D01*
X563546Y230605D01*
X563552Y230704D01*
X563562Y230804D01*
X563575Y230902D01*
X563593Y231001D01*
X563614Y231098D01*
X563639Y231194D01*
X563668Y231290D01*
X563701Y231384D01*
X563737Y231477D01*
X563777Y231568D01*
X563821Y231658D01*
X563868Y231746D01*
X563918Y231832D01*
X563972Y231916D01*
X564029Y231998D01*
X564089Y232077D01*
X564153Y232155D01*
X564219Y232229D01*
X564288Y232301D01*
X564360Y232370D01*
X564434Y232436D01*
X564512Y232500D01*
X564591Y232560D01*
X564673Y232617D01*
X564757Y232671D01*
X564843Y232721D01*
X564931Y232768D01*
X565021Y232812D01*
X565112Y232852D01*
X565205Y232888D01*
X565299Y232921D01*
X565395Y232950D01*
X565491Y232975D01*
X565588Y232996D01*
X565687Y233014D01*
X565785Y233027D01*
X565885Y233037D01*
X565984Y233043D01*
X566084Y233045D01*
X568624Y233045D01*
X573106Y221615D02*
X576281Y221615D01*
X576392Y221617D01*
X576502Y221623D01*
X576613Y221632D01*
X576723Y221646D01*
X576832Y221663D01*
X576941Y221684D01*
X577049Y221709D01*
X577156Y221738D01*
X577262Y221770D01*
X577367Y221806D01*
X577470Y221846D01*
X577572Y221889D01*
X577673Y221936D01*
X577772Y221987D01*
X577869Y222040D01*
X577963Y222097D01*
X578056Y222158D01*
X578147Y222221D01*
X578236Y222288D01*
X578322Y222358D01*
X578405Y222431D01*
X578487Y222506D01*
X578565Y222584D01*
X578640Y222666D01*
X578713Y222749D01*
X578783Y222835D01*
X578850Y222924D01*
X578913Y223015D01*
X578974Y223108D01*
X579031Y223202D01*
X579084Y223299D01*
X579135Y223398D01*
X579182Y223499D01*
X579225Y223601D01*
X579265Y223704D01*
X579301Y223809D01*
X579333Y223915D01*
X579362Y224022D01*
X579387Y224130D01*
X579408Y224239D01*
X579425Y224348D01*
X579439Y224458D01*
X579448Y224569D01*
X579454Y224679D01*
X579456Y224790D01*
X579454Y224901D01*
X579448Y225011D01*
X579439Y225122D01*
X579425Y225232D01*
X579408Y225341D01*
X579387Y225450D01*
X579362Y225558D01*
X579333Y225665D01*
X579301Y225771D01*
X579265Y225876D01*
X579225Y225979D01*
X579182Y226081D01*
X579135Y226182D01*
X579084Y226281D01*
X579031Y226377D01*
X578974Y226472D01*
X578913Y226565D01*
X578850Y226656D01*
X578783Y226745D01*
X578713Y226831D01*
X578640Y226914D01*
X578565Y226996D01*
X578487Y227074D01*
X578405Y227149D01*
X578322Y227222D01*
X578236Y227292D01*
X578147Y227359D01*
X578056Y227422D01*
X577963Y227483D01*
X577869Y227540D01*
X577772Y227593D01*
X577673Y227644D01*
X577572Y227691D01*
X577470Y227734D01*
X577367Y227774D01*
X577262Y227810D01*
X577156Y227842D01*
X577049Y227871D01*
X576941Y227896D01*
X576832Y227917D01*
X576723Y227934D01*
X576613Y227948D01*
X576502Y227957D01*
X576392Y227963D01*
X576281Y227965D01*
X576916Y233045D02*
X573106Y233045D01*
X576916Y233045D02*
X577016Y233043D01*
X577115Y233037D01*
X577215Y233027D01*
X577313Y233014D01*
X577412Y232996D01*
X577509Y232975D01*
X577605Y232950D01*
X577701Y232921D01*
X577795Y232888D01*
X577888Y232852D01*
X577979Y232812D01*
X578069Y232768D01*
X578157Y232721D01*
X578243Y232671D01*
X578327Y232617D01*
X578409Y232560D01*
X578488Y232500D01*
X578566Y232436D01*
X578640Y232370D01*
X578712Y232301D01*
X578781Y232229D01*
X578847Y232155D01*
X578911Y232077D01*
X578971Y231998D01*
X579028Y231916D01*
X579082Y231832D01*
X579132Y231746D01*
X579179Y231658D01*
X579223Y231568D01*
X579263Y231477D01*
X579299Y231384D01*
X579332Y231290D01*
X579361Y231194D01*
X579386Y231098D01*
X579407Y231001D01*
X579425Y230902D01*
X579438Y230804D01*
X579448Y230704D01*
X579454Y230605D01*
X579456Y230505D01*
X579454Y230405D01*
X579448Y230306D01*
X579438Y230206D01*
X579425Y230108D01*
X579407Y230009D01*
X579386Y229912D01*
X579361Y229816D01*
X579332Y229720D01*
X579299Y229626D01*
X579263Y229533D01*
X579223Y229442D01*
X579179Y229352D01*
X579132Y229264D01*
X579082Y229178D01*
X579028Y229094D01*
X578971Y229012D01*
X578911Y228933D01*
X578847Y228855D01*
X578781Y228781D01*
X578712Y228709D01*
X578640Y228640D01*
X578566Y228574D01*
X578488Y228510D01*
X578409Y228450D01*
X578327Y228393D01*
X578243Y228339D01*
X578157Y228289D01*
X578069Y228242D01*
X577979Y228198D01*
X577888Y228158D01*
X577795Y228122D01*
X577701Y228089D01*
X577605Y228060D01*
X577509Y228035D01*
X577412Y228014D01*
X577313Y227996D01*
X577215Y227983D01*
X577115Y227973D01*
X577016Y227967D01*
X576916Y227965D01*
X574376Y227965D01*
D10*
X520700Y212090D02*
X520700Y168910D01*
X546100Y168910D02*
X546100Y212090D01*
X543560Y214630D02*
X523240Y214630D01*
X523240Y166370D02*
X543560Y166370D01*
X520700Y212090D02*
X520702Y212190D01*
X520708Y212289D01*
X520718Y212389D01*
X520731Y212487D01*
X520749Y212586D01*
X520770Y212683D01*
X520795Y212779D01*
X520824Y212875D01*
X520857Y212969D01*
X520893Y213062D01*
X520933Y213153D01*
X520977Y213243D01*
X521024Y213331D01*
X521074Y213417D01*
X521128Y213501D01*
X521185Y213583D01*
X521245Y213662D01*
X521309Y213740D01*
X521375Y213814D01*
X521444Y213886D01*
X521516Y213955D01*
X521590Y214021D01*
X521668Y214085D01*
X521747Y214145D01*
X521829Y214202D01*
X521913Y214256D01*
X521999Y214306D01*
X522087Y214353D01*
X522177Y214397D01*
X522268Y214437D01*
X522361Y214473D01*
X522455Y214506D01*
X522551Y214535D01*
X522647Y214560D01*
X522744Y214581D01*
X522843Y214599D01*
X522941Y214612D01*
X523041Y214622D01*
X523140Y214628D01*
X523240Y214630D01*
X520700Y168910D02*
X520702Y168810D01*
X520708Y168711D01*
X520718Y168611D01*
X520731Y168513D01*
X520749Y168414D01*
X520770Y168317D01*
X520795Y168221D01*
X520824Y168125D01*
X520857Y168031D01*
X520893Y167938D01*
X520933Y167847D01*
X520977Y167757D01*
X521024Y167669D01*
X521074Y167583D01*
X521128Y167499D01*
X521185Y167417D01*
X521245Y167338D01*
X521309Y167260D01*
X521375Y167186D01*
X521444Y167114D01*
X521516Y167045D01*
X521590Y166979D01*
X521668Y166915D01*
X521747Y166855D01*
X521829Y166798D01*
X521913Y166744D01*
X521999Y166694D01*
X522087Y166647D01*
X522177Y166603D01*
X522268Y166563D01*
X522361Y166527D01*
X522455Y166494D01*
X522551Y166465D01*
X522647Y166440D01*
X522744Y166419D01*
X522843Y166401D01*
X522941Y166388D01*
X523041Y166378D01*
X523140Y166372D01*
X523240Y166370D01*
X546100Y212090D02*
X546098Y212190D01*
X546092Y212289D01*
X546082Y212389D01*
X546069Y212487D01*
X546051Y212586D01*
X546030Y212683D01*
X546005Y212779D01*
X545976Y212875D01*
X545943Y212969D01*
X545907Y213062D01*
X545867Y213153D01*
X545823Y213243D01*
X545776Y213331D01*
X545726Y213417D01*
X545672Y213501D01*
X545615Y213583D01*
X545555Y213662D01*
X545491Y213740D01*
X545425Y213814D01*
X545356Y213886D01*
X545284Y213955D01*
X545210Y214021D01*
X545132Y214085D01*
X545053Y214145D01*
X544971Y214202D01*
X544887Y214256D01*
X544801Y214306D01*
X544713Y214353D01*
X544623Y214397D01*
X544532Y214437D01*
X544439Y214473D01*
X544345Y214506D01*
X544249Y214535D01*
X544153Y214560D01*
X544056Y214581D01*
X543957Y214599D01*
X543859Y214612D01*
X543759Y214622D01*
X543660Y214628D01*
X543560Y214630D01*
X546100Y168910D02*
X546098Y168810D01*
X546092Y168711D01*
X546082Y168611D01*
X546069Y168513D01*
X546051Y168414D01*
X546030Y168317D01*
X546005Y168221D01*
X545976Y168125D01*
X545943Y168031D01*
X545907Y167938D01*
X545867Y167847D01*
X545823Y167757D01*
X545776Y167669D01*
X545726Y167583D01*
X545672Y167499D01*
X545615Y167417D01*
X545555Y167338D01*
X545491Y167260D01*
X545425Y167186D01*
X545356Y167114D01*
X545284Y167045D01*
X545210Y166979D01*
X545132Y166915D01*
X545053Y166855D01*
X544971Y166798D01*
X544887Y166744D01*
X544801Y166694D01*
X544713Y166647D01*
X544623Y166603D01*
X544532Y166563D01*
X544439Y166527D01*
X544345Y166494D01*
X544249Y166465D01*
X544153Y166440D01*
X544056Y166419D01*
X543957Y166401D01*
X543859Y166388D01*
X543759Y166378D01*
X543660Y166372D01*
X543560Y166370D01*
X533400Y193040D02*
X533400Y194310D01*
D13*
X533400Y193040D02*
X525780Y193040D01*
X533400Y193040D02*
X541020Y193040D01*
X533400Y187960D02*
X525780Y187960D01*
X533400Y187960D02*
X541020Y187960D01*
D10*
X533400Y187960D02*
X533400Y186690D01*
D12*
X530524Y221615D02*
X527984Y221615D01*
X527884Y221617D01*
X527785Y221623D01*
X527685Y221633D01*
X527587Y221646D01*
X527488Y221664D01*
X527391Y221685D01*
X527295Y221710D01*
X527199Y221739D01*
X527105Y221772D01*
X527012Y221808D01*
X526921Y221848D01*
X526831Y221892D01*
X526743Y221939D01*
X526657Y221989D01*
X526573Y222043D01*
X526491Y222100D01*
X526412Y222160D01*
X526334Y222224D01*
X526260Y222290D01*
X526188Y222359D01*
X526119Y222431D01*
X526053Y222505D01*
X525989Y222583D01*
X525929Y222662D01*
X525872Y222744D01*
X525818Y222828D01*
X525768Y222914D01*
X525721Y223002D01*
X525677Y223092D01*
X525637Y223183D01*
X525601Y223276D01*
X525568Y223370D01*
X525539Y223466D01*
X525514Y223562D01*
X525493Y223659D01*
X525475Y223758D01*
X525462Y223856D01*
X525452Y223956D01*
X525446Y224055D01*
X525444Y224155D01*
X525444Y230505D01*
X525446Y230605D01*
X525452Y230704D01*
X525462Y230804D01*
X525475Y230902D01*
X525493Y231001D01*
X525514Y231098D01*
X525539Y231194D01*
X525568Y231290D01*
X525601Y231384D01*
X525637Y231477D01*
X525677Y231568D01*
X525721Y231658D01*
X525768Y231746D01*
X525818Y231832D01*
X525872Y231916D01*
X525929Y231998D01*
X525989Y232077D01*
X526053Y232155D01*
X526119Y232229D01*
X526188Y232301D01*
X526260Y232370D01*
X526334Y232436D01*
X526412Y232500D01*
X526491Y232560D01*
X526573Y232617D01*
X526657Y232671D01*
X526743Y232721D01*
X526831Y232768D01*
X526921Y232812D01*
X527012Y232852D01*
X527105Y232888D01*
X527199Y232921D01*
X527295Y232950D01*
X527391Y232975D01*
X527488Y232996D01*
X527587Y233014D01*
X527685Y233027D01*
X527785Y233037D01*
X527884Y233043D01*
X527984Y233045D01*
X530524Y233045D01*
X537546Y233045D02*
X535006Y224155D01*
X541356Y224155D01*
X539451Y226695D02*
X539451Y221615D01*
D10*
X622300Y212090D02*
X622300Y168910D01*
X647700Y168910D02*
X647700Y212090D01*
X645160Y214630D02*
X624840Y214630D01*
X624840Y166370D02*
X645160Y166370D01*
X622300Y212090D02*
X622302Y212190D01*
X622308Y212289D01*
X622318Y212389D01*
X622331Y212487D01*
X622349Y212586D01*
X622370Y212683D01*
X622395Y212779D01*
X622424Y212875D01*
X622457Y212969D01*
X622493Y213062D01*
X622533Y213153D01*
X622577Y213243D01*
X622624Y213331D01*
X622674Y213417D01*
X622728Y213501D01*
X622785Y213583D01*
X622845Y213662D01*
X622909Y213740D01*
X622975Y213814D01*
X623044Y213886D01*
X623116Y213955D01*
X623190Y214021D01*
X623268Y214085D01*
X623347Y214145D01*
X623429Y214202D01*
X623513Y214256D01*
X623599Y214306D01*
X623687Y214353D01*
X623777Y214397D01*
X623868Y214437D01*
X623961Y214473D01*
X624055Y214506D01*
X624151Y214535D01*
X624247Y214560D01*
X624344Y214581D01*
X624443Y214599D01*
X624541Y214612D01*
X624641Y214622D01*
X624740Y214628D01*
X624840Y214630D01*
X622300Y168910D02*
X622302Y168810D01*
X622308Y168711D01*
X622318Y168611D01*
X622331Y168513D01*
X622349Y168414D01*
X622370Y168317D01*
X622395Y168221D01*
X622424Y168125D01*
X622457Y168031D01*
X622493Y167938D01*
X622533Y167847D01*
X622577Y167757D01*
X622624Y167669D01*
X622674Y167583D01*
X622728Y167499D01*
X622785Y167417D01*
X622845Y167338D01*
X622909Y167260D01*
X622975Y167186D01*
X623044Y167114D01*
X623116Y167045D01*
X623190Y166979D01*
X623268Y166915D01*
X623347Y166855D01*
X623429Y166798D01*
X623513Y166744D01*
X623599Y166694D01*
X623687Y166647D01*
X623777Y166603D01*
X623868Y166563D01*
X623961Y166527D01*
X624055Y166494D01*
X624151Y166465D01*
X624247Y166440D01*
X624344Y166419D01*
X624443Y166401D01*
X624541Y166388D01*
X624641Y166378D01*
X624740Y166372D01*
X624840Y166370D01*
X647700Y212090D02*
X647698Y212190D01*
X647692Y212289D01*
X647682Y212389D01*
X647669Y212487D01*
X647651Y212586D01*
X647630Y212683D01*
X647605Y212779D01*
X647576Y212875D01*
X647543Y212969D01*
X647507Y213062D01*
X647467Y213153D01*
X647423Y213243D01*
X647376Y213331D01*
X647326Y213417D01*
X647272Y213501D01*
X647215Y213583D01*
X647155Y213662D01*
X647091Y213740D01*
X647025Y213814D01*
X646956Y213886D01*
X646884Y213955D01*
X646810Y214021D01*
X646732Y214085D01*
X646653Y214145D01*
X646571Y214202D01*
X646487Y214256D01*
X646401Y214306D01*
X646313Y214353D01*
X646223Y214397D01*
X646132Y214437D01*
X646039Y214473D01*
X645945Y214506D01*
X645849Y214535D01*
X645753Y214560D01*
X645656Y214581D01*
X645557Y214599D01*
X645459Y214612D01*
X645359Y214622D01*
X645260Y214628D01*
X645160Y214630D01*
X647700Y168910D02*
X647698Y168810D01*
X647692Y168711D01*
X647682Y168611D01*
X647669Y168513D01*
X647651Y168414D01*
X647630Y168317D01*
X647605Y168221D01*
X647576Y168125D01*
X647543Y168031D01*
X647507Y167938D01*
X647467Y167847D01*
X647423Y167757D01*
X647376Y167669D01*
X647326Y167583D01*
X647272Y167499D01*
X647215Y167417D01*
X647155Y167338D01*
X647091Y167260D01*
X647025Y167186D01*
X646956Y167114D01*
X646884Y167045D01*
X646810Y166979D01*
X646732Y166915D01*
X646653Y166855D01*
X646571Y166798D01*
X646487Y166744D01*
X646401Y166694D01*
X646313Y166647D01*
X646223Y166603D01*
X646132Y166563D01*
X646039Y166527D01*
X645945Y166494D01*
X645849Y166465D01*
X645753Y166440D01*
X645656Y166419D01*
X645557Y166401D01*
X645459Y166388D01*
X645359Y166378D01*
X645260Y166372D01*
X645160Y166370D01*
X635000Y193040D02*
X635000Y194310D01*
D13*
X635000Y193040D02*
X627380Y193040D01*
X635000Y193040D02*
X642620Y193040D01*
X635000Y187960D02*
X627380Y187960D01*
X635000Y187960D02*
X642620Y187960D01*
D10*
X635000Y187960D02*
X635000Y186690D01*
D12*
X632124Y221615D02*
X629584Y221615D01*
X629484Y221617D01*
X629385Y221623D01*
X629285Y221633D01*
X629187Y221646D01*
X629088Y221664D01*
X628991Y221685D01*
X628895Y221710D01*
X628799Y221739D01*
X628705Y221772D01*
X628612Y221808D01*
X628521Y221848D01*
X628431Y221892D01*
X628343Y221939D01*
X628257Y221989D01*
X628173Y222043D01*
X628091Y222100D01*
X628012Y222160D01*
X627934Y222224D01*
X627860Y222290D01*
X627788Y222359D01*
X627719Y222431D01*
X627653Y222505D01*
X627589Y222583D01*
X627529Y222662D01*
X627472Y222744D01*
X627418Y222828D01*
X627368Y222914D01*
X627321Y223002D01*
X627277Y223092D01*
X627237Y223183D01*
X627201Y223276D01*
X627168Y223370D01*
X627139Y223466D01*
X627114Y223562D01*
X627093Y223659D01*
X627075Y223758D01*
X627062Y223856D01*
X627052Y223956D01*
X627046Y224055D01*
X627044Y224155D01*
X627044Y230505D01*
X627046Y230605D01*
X627052Y230704D01*
X627062Y230804D01*
X627075Y230902D01*
X627093Y231001D01*
X627114Y231098D01*
X627139Y231194D01*
X627168Y231290D01*
X627201Y231384D01*
X627237Y231477D01*
X627277Y231568D01*
X627321Y231658D01*
X627368Y231746D01*
X627418Y231832D01*
X627472Y231916D01*
X627529Y231998D01*
X627589Y232077D01*
X627653Y232155D01*
X627719Y232229D01*
X627788Y232301D01*
X627860Y232370D01*
X627934Y232436D01*
X628012Y232500D01*
X628091Y232560D01*
X628173Y232617D01*
X628257Y232671D01*
X628343Y232721D01*
X628431Y232768D01*
X628521Y232812D01*
X628612Y232852D01*
X628705Y232888D01*
X628799Y232921D01*
X628895Y232950D01*
X628991Y232975D01*
X629088Y232996D01*
X629187Y233014D01*
X629285Y233027D01*
X629385Y233037D01*
X629484Y233043D01*
X629584Y233045D01*
X632124Y233045D01*
X636606Y221615D02*
X640416Y221615D01*
X640516Y221617D01*
X640615Y221623D01*
X640715Y221633D01*
X640813Y221646D01*
X640912Y221664D01*
X641009Y221685D01*
X641105Y221710D01*
X641201Y221739D01*
X641295Y221772D01*
X641388Y221808D01*
X641479Y221848D01*
X641569Y221892D01*
X641657Y221939D01*
X641743Y221989D01*
X641827Y222043D01*
X641909Y222100D01*
X641988Y222160D01*
X642066Y222224D01*
X642140Y222290D01*
X642212Y222359D01*
X642281Y222431D01*
X642347Y222505D01*
X642411Y222583D01*
X642471Y222662D01*
X642528Y222744D01*
X642582Y222828D01*
X642632Y222914D01*
X642679Y223002D01*
X642723Y223092D01*
X642763Y223183D01*
X642799Y223276D01*
X642832Y223370D01*
X642861Y223466D01*
X642886Y223562D01*
X642907Y223659D01*
X642925Y223758D01*
X642938Y223856D01*
X642948Y223956D01*
X642954Y224055D01*
X642956Y224155D01*
X642956Y225425D01*
X642954Y225525D01*
X642948Y225624D01*
X642938Y225724D01*
X642925Y225822D01*
X642907Y225921D01*
X642886Y226018D01*
X642861Y226114D01*
X642832Y226210D01*
X642799Y226304D01*
X642763Y226397D01*
X642723Y226488D01*
X642679Y226578D01*
X642632Y226666D01*
X642582Y226752D01*
X642528Y226836D01*
X642471Y226918D01*
X642411Y226997D01*
X642347Y227075D01*
X642281Y227149D01*
X642212Y227221D01*
X642140Y227290D01*
X642066Y227356D01*
X641988Y227420D01*
X641909Y227480D01*
X641827Y227537D01*
X641743Y227591D01*
X641657Y227641D01*
X641569Y227688D01*
X641479Y227732D01*
X641388Y227772D01*
X641295Y227808D01*
X641201Y227841D01*
X641105Y227870D01*
X641009Y227895D01*
X640912Y227916D01*
X640813Y227934D01*
X640715Y227947D01*
X640615Y227957D01*
X640516Y227963D01*
X640416Y227965D01*
X636606Y227965D01*
X636606Y233045D01*
X642956Y233045D01*
D10*
X190500Y63500D02*
X190500Y38100D01*
X190500Y63500D02*
X241300Y63500D01*
X241300Y38100D02*
X190500Y38100D01*
X190500Y63500D02*
X190500Y69850D01*
X241300Y69850D01*
X241300Y63500D02*
X241300Y38100D01*
X241300Y63500D02*
X241300Y69850D01*
D14*
X228600Y50800D03*
X203200Y50800D03*
D11*
X204376Y13208D02*
X206972Y13208D01*
X204376Y13208D02*
X204277Y13210D01*
X204177Y13216D01*
X204078Y13225D01*
X203980Y13238D01*
X203882Y13255D01*
X203784Y13276D01*
X203688Y13301D01*
X203593Y13329D01*
X203499Y13361D01*
X203406Y13396D01*
X203314Y13435D01*
X203224Y13478D01*
X203136Y13523D01*
X203049Y13573D01*
X202965Y13625D01*
X202882Y13681D01*
X202802Y13739D01*
X202724Y13801D01*
X202649Y13866D01*
X202576Y13934D01*
X202506Y14004D01*
X202438Y14077D01*
X202373Y14152D01*
X202311Y14230D01*
X202253Y14310D01*
X202197Y14393D01*
X202145Y14477D01*
X202095Y14564D01*
X202050Y14652D01*
X202007Y14742D01*
X201968Y14834D01*
X201933Y14927D01*
X201901Y15021D01*
X201873Y15116D01*
X201848Y15212D01*
X201827Y15310D01*
X201810Y15408D01*
X201797Y15506D01*
X201788Y15605D01*
X201782Y15705D01*
X201780Y15804D01*
X201779Y15804D02*
X201779Y22296D01*
X201780Y22296D02*
X201782Y22395D01*
X201788Y22495D01*
X201797Y22594D01*
X201810Y22692D01*
X201827Y22790D01*
X201848Y22888D01*
X201873Y22984D01*
X201901Y23079D01*
X201933Y23173D01*
X201968Y23266D01*
X202007Y23358D01*
X202050Y23448D01*
X202095Y23536D01*
X202145Y23623D01*
X202197Y23707D01*
X202253Y23790D01*
X202311Y23870D01*
X202373Y23948D01*
X202438Y24023D01*
X202506Y24096D01*
X202576Y24166D01*
X202649Y24234D01*
X202724Y24299D01*
X202802Y24361D01*
X202882Y24419D01*
X202965Y24475D01*
X203049Y24527D01*
X203136Y24577D01*
X203224Y24622D01*
X203314Y24665D01*
X203406Y24704D01*
X203498Y24739D01*
X203593Y24771D01*
X203688Y24799D01*
X203784Y24824D01*
X203882Y24845D01*
X203980Y24862D01*
X204078Y24875D01*
X204177Y24884D01*
X204277Y24890D01*
X204376Y24892D01*
X206972Y24892D01*
X211719Y24892D02*
X211719Y13208D01*
X218210Y13208D02*
X211719Y24892D01*
X218210Y24892D02*
X218210Y13208D01*
X223530Y22296D02*
X226775Y24892D01*
X226775Y13208D01*
X223530Y13208D02*
X230021Y13208D01*
D10*
X292100Y38100D02*
X292100Y63500D01*
X342900Y63500D01*
X342900Y38100D02*
X292100Y38100D01*
X292100Y63500D02*
X292100Y69850D01*
X342900Y69850D01*
X342900Y63500D02*
X342900Y38100D01*
X342900Y63500D02*
X342900Y69850D01*
D14*
X330200Y50800D03*
X304800Y50800D03*
D11*
X305976Y13208D02*
X308572Y13208D01*
X305976Y13208D02*
X305877Y13210D01*
X305777Y13216D01*
X305678Y13225D01*
X305580Y13238D01*
X305482Y13255D01*
X305384Y13276D01*
X305288Y13301D01*
X305193Y13329D01*
X305099Y13361D01*
X305006Y13396D01*
X304914Y13435D01*
X304824Y13478D01*
X304736Y13523D01*
X304649Y13573D01*
X304565Y13625D01*
X304482Y13681D01*
X304402Y13739D01*
X304324Y13801D01*
X304249Y13866D01*
X304176Y13934D01*
X304106Y14004D01*
X304038Y14077D01*
X303973Y14152D01*
X303911Y14230D01*
X303853Y14310D01*
X303797Y14393D01*
X303745Y14477D01*
X303695Y14564D01*
X303650Y14652D01*
X303607Y14742D01*
X303568Y14834D01*
X303533Y14927D01*
X303501Y15021D01*
X303473Y15116D01*
X303448Y15212D01*
X303427Y15310D01*
X303410Y15408D01*
X303397Y15506D01*
X303388Y15605D01*
X303382Y15705D01*
X303380Y15804D01*
X303379Y15804D02*
X303379Y22296D01*
X303380Y22296D02*
X303382Y22395D01*
X303388Y22495D01*
X303397Y22594D01*
X303410Y22692D01*
X303427Y22790D01*
X303448Y22888D01*
X303473Y22984D01*
X303501Y23079D01*
X303533Y23173D01*
X303568Y23266D01*
X303607Y23358D01*
X303650Y23448D01*
X303695Y23536D01*
X303745Y23623D01*
X303797Y23707D01*
X303853Y23790D01*
X303911Y23870D01*
X303973Y23948D01*
X304038Y24023D01*
X304106Y24096D01*
X304176Y24166D01*
X304249Y24234D01*
X304324Y24299D01*
X304402Y24361D01*
X304482Y24419D01*
X304565Y24475D01*
X304649Y24527D01*
X304736Y24577D01*
X304824Y24622D01*
X304914Y24665D01*
X305006Y24704D01*
X305098Y24739D01*
X305193Y24771D01*
X305288Y24799D01*
X305384Y24824D01*
X305482Y24845D01*
X305580Y24862D01*
X305678Y24875D01*
X305777Y24884D01*
X305877Y24890D01*
X305976Y24892D01*
X308572Y24892D01*
X313319Y24892D02*
X313319Y13208D01*
X319810Y13208D02*
X313319Y24892D01*
X319810Y24892D02*
X319810Y13208D01*
X328700Y24892D02*
X328807Y24890D01*
X328913Y24884D01*
X329019Y24874D01*
X329125Y24861D01*
X329231Y24843D01*
X329335Y24822D01*
X329439Y24797D01*
X329542Y24768D01*
X329643Y24736D01*
X329743Y24699D01*
X329842Y24659D01*
X329940Y24616D01*
X330036Y24569D01*
X330130Y24518D01*
X330222Y24464D01*
X330312Y24407D01*
X330400Y24347D01*
X330485Y24283D01*
X330568Y24216D01*
X330649Y24146D01*
X330727Y24074D01*
X330803Y23998D01*
X330875Y23920D01*
X330945Y23839D01*
X331012Y23756D01*
X331076Y23671D01*
X331136Y23583D01*
X331193Y23493D01*
X331247Y23401D01*
X331298Y23307D01*
X331345Y23211D01*
X331388Y23113D01*
X331428Y23014D01*
X331465Y22914D01*
X331497Y22813D01*
X331526Y22710D01*
X331551Y22606D01*
X331572Y22502D01*
X331590Y22396D01*
X331603Y22290D01*
X331613Y22184D01*
X331619Y22078D01*
X331621Y21971D01*
X328700Y24892D02*
X328579Y24890D01*
X328458Y24884D01*
X328338Y24874D01*
X328217Y24861D01*
X328098Y24843D01*
X327978Y24822D01*
X327860Y24797D01*
X327743Y24768D01*
X327626Y24735D01*
X327511Y24699D01*
X327397Y24658D01*
X327284Y24615D01*
X327172Y24567D01*
X327063Y24516D01*
X326955Y24461D01*
X326848Y24403D01*
X326744Y24342D01*
X326642Y24277D01*
X326542Y24209D01*
X326444Y24138D01*
X326348Y24064D01*
X326255Y23987D01*
X326165Y23906D01*
X326077Y23823D01*
X325992Y23737D01*
X325909Y23648D01*
X325830Y23557D01*
X325753Y23463D01*
X325680Y23367D01*
X325610Y23269D01*
X325543Y23168D01*
X325479Y23065D01*
X325419Y22960D01*
X325362Y22853D01*
X325308Y22745D01*
X325258Y22635D01*
X325212Y22523D01*
X325169Y22410D01*
X325130Y22295D01*
X330647Y19699D02*
X330726Y19776D01*
X330802Y19857D01*
X330875Y19940D01*
X330945Y20025D01*
X331012Y20113D01*
X331076Y20203D01*
X331136Y20295D01*
X331193Y20390D01*
X331247Y20486D01*
X331298Y20584D01*
X331345Y20684D01*
X331389Y20786D01*
X331429Y20889D01*
X331465Y20993D01*
X331497Y21099D01*
X331526Y21205D01*
X331551Y21313D01*
X331573Y21421D01*
X331590Y21531D01*
X331604Y21640D01*
X331613Y21750D01*
X331619Y21861D01*
X331621Y21971D01*
X330647Y19699D02*
X325130Y13208D01*
X331621Y13208D01*
D10*
X393700Y38100D02*
X393700Y63500D01*
X444500Y63500D01*
X444500Y38100D02*
X393700Y38100D01*
X393700Y63500D02*
X393700Y69850D01*
X444500Y69850D01*
X444500Y63500D02*
X444500Y38100D01*
X444500Y63500D02*
X444500Y69850D01*
D14*
X431800Y50800D03*
X406400Y50800D03*
D11*
X407576Y13208D02*
X410172Y13208D01*
X407576Y13208D02*
X407477Y13210D01*
X407377Y13216D01*
X407278Y13225D01*
X407180Y13238D01*
X407082Y13255D01*
X406984Y13276D01*
X406888Y13301D01*
X406793Y13329D01*
X406699Y13361D01*
X406606Y13396D01*
X406514Y13435D01*
X406424Y13478D01*
X406336Y13523D01*
X406249Y13573D01*
X406165Y13625D01*
X406082Y13681D01*
X406002Y13739D01*
X405924Y13801D01*
X405849Y13866D01*
X405776Y13934D01*
X405706Y14004D01*
X405638Y14077D01*
X405573Y14152D01*
X405511Y14230D01*
X405453Y14310D01*
X405397Y14393D01*
X405345Y14477D01*
X405295Y14564D01*
X405250Y14652D01*
X405207Y14742D01*
X405168Y14834D01*
X405133Y14927D01*
X405101Y15021D01*
X405073Y15116D01*
X405048Y15212D01*
X405027Y15310D01*
X405010Y15408D01*
X404997Y15506D01*
X404988Y15605D01*
X404982Y15705D01*
X404980Y15804D01*
X404979Y15804D02*
X404979Y22296D01*
X404980Y22296D02*
X404982Y22395D01*
X404988Y22495D01*
X404997Y22594D01*
X405010Y22692D01*
X405027Y22790D01*
X405048Y22888D01*
X405073Y22984D01*
X405101Y23079D01*
X405133Y23173D01*
X405168Y23266D01*
X405207Y23358D01*
X405250Y23448D01*
X405295Y23536D01*
X405345Y23623D01*
X405397Y23707D01*
X405453Y23790D01*
X405511Y23870D01*
X405573Y23948D01*
X405638Y24023D01*
X405706Y24096D01*
X405776Y24166D01*
X405849Y24234D01*
X405924Y24299D01*
X406002Y24361D01*
X406082Y24419D01*
X406165Y24475D01*
X406249Y24527D01*
X406336Y24577D01*
X406424Y24622D01*
X406514Y24665D01*
X406606Y24704D01*
X406698Y24739D01*
X406793Y24771D01*
X406888Y24799D01*
X406984Y24824D01*
X407082Y24845D01*
X407180Y24862D01*
X407278Y24875D01*
X407377Y24884D01*
X407477Y24890D01*
X407576Y24892D01*
X410172Y24892D01*
X414919Y24892D02*
X414919Y13208D01*
X421410Y13208D02*
X414919Y24892D01*
X421410Y24892D02*
X421410Y13208D01*
X426730Y13208D02*
X429975Y13208D01*
X430088Y13210D01*
X430201Y13216D01*
X430314Y13226D01*
X430427Y13240D01*
X430539Y13257D01*
X430650Y13279D01*
X430760Y13304D01*
X430870Y13334D01*
X430978Y13367D01*
X431085Y13404D01*
X431191Y13444D01*
X431295Y13489D01*
X431398Y13537D01*
X431499Y13588D01*
X431598Y13643D01*
X431695Y13701D01*
X431790Y13763D01*
X431883Y13828D01*
X431973Y13896D01*
X432061Y13967D01*
X432147Y14042D01*
X432230Y14119D01*
X432310Y14199D01*
X432387Y14282D01*
X432462Y14368D01*
X432533Y14456D01*
X432601Y14546D01*
X432666Y14639D01*
X432728Y14734D01*
X432786Y14831D01*
X432841Y14930D01*
X432892Y15031D01*
X432940Y15134D01*
X432985Y15238D01*
X433025Y15344D01*
X433062Y15451D01*
X433095Y15559D01*
X433125Y15669D01*
X433150Y15779D01*
X433172Y15890D01*
X433189Y16002D01*
X433203Y16115D01*
X433213Y16228D01*
X433219Y16341D01*
X433221Y16454D01*
X433219Y16567D01*
X433213Y16680D01*
X433203Y16793D01*
X433189Y16906D01*
X433172Y17018D01*
X433150Y17129D01*
X433125Y17239D01*
X433095Y17349D01*
X433062Y17457D01*
X433025Y17564D01*
X432985Y17670D01*
X432940Y17774D01*
X432892Y17877D01*
X432841Y17978D01*
X432786Y18077D01*
X432728Y18174D01*
X432666Y18269D01*
X432601Y18362D01*
X432533Y18452D01*
X432462Y18540D01*
X432387Y18626D01*
X432310Y18709D01*
X432230Y18789D01*
X432147Y18866D01*
X432061Y18941D01*
X431973Y19012D01*
X431883Y19080D01*
X431790Y19145D01*
X431695Y19207D01*
X431598Y19265D01*
X431499Y19320D01*
X431398Y19371D01*
X431295Y19419D01*
X431191Y19464D01*
X431085Y19504D01*
X430978Y19541D01*
X430870Y19574D01*
X430760Y19604D01*
X430650Y19629D01*
X430539Y19651D01*
X430427Y19668D01*
X430314Y19682D01*
X430201Y19692D01*
X430088Y19698D01*
X429975Y19700D01*
X430624Y24892D02*
X426730Y24892D01*
X430624Y24892D02*
X430725Y24890D01*
X430825Y24884D01*
X430925Y24874D01*
X431025Y24861D01*
X431124Y24843D01*
X431223Y24822D01*
X431320Y24797D01*
X431417Y24768D01*
X431512Y24735D01*
X431606Y24699D01*
X431698Y24659D01*
X431789Y24616D01*
X431878Y24569D01*
X431965Y24519D01*
X432051Y24465D01*
X432134Y24408D01*
X432214Y24348D01*
X432293Y24285D01*
X432369Y24218D01*
X432442Y24149D01*
X432512Y24077D01*
X432580Y24003D01*
X432645Y23926D01*
X432706Y23846D01*
X432765Y23764D01*
X432820Y23680D01*
X432872Y23594D01*
X432921Y23506D01*
X432966Y23416D01*
X433008Y23324D01*
X433046Y23231D01*
X433080Y23136D01*
X433111Y23041D01*
X433138Y22944D01*
X433161Y22846D01*
X433181Y22747D01*
X433196Y22647D01*
X433208Y22547D01*
X433216Y22447D01*
X433220Y22346D01*
X433220Y22246D01*
X433216Y22145D01*
X433208Y22045D01*
X433196Y21945D01*
X433181Y21845D01*
X433161Y21746D01*
X433138Y21648D01*
X433111Y21551D01*
X433080Y21456D01*
X433046Y21361D01*
X433008Y21268D01*
X432966Y21176D01*
X432921Y21086D01*
X432872Y20998D01*
X432820Y20912D01*
X432765Y20828D01*
X432706Y20746D01*
X432645Y20666D01*
X432580Y20589D01*
X432512Y20515D01*
X432442Y20443D01*
X432369Y20374D01*
X432293Y20307D01*
X432214Y20244D01*
X432134Y20184D01*
X432051Y20127D01*
X431965Y20073D01*
X431878Y20023D01*
X431789Y19976D01*
X431698Y19933D01*
X431606Y19893D01*
X431512Y19857D01*
X431417Y19824D01*
X431320Y19795D01*
X431223Y19770D01*
X431124Y19749D01*
X431025Y19731D01*
X430925Y19718D01*
X430825Y19708D01*
X430725Y19702D01*
X430624Y19700D01*
X430624Y19699D02*
X428028Y19699D01*
D10*
X394450Y596900D02*
X381750Y596900D01*
X375400Y603250D01*
X375400Y615950D02*
X381750Y622300D01*
X375400Y603250D02*
X369050Y596900D01*
X356350Y596900D01*
X350000Y603250D01*
X350000Y615950D02*
X356350Y622300D01*
X369050Y622300D01*
X375400Y615950D01*
X400800Y615950D02*
X400800Y603250D01*
X394450Y596900D01*
X400800Y615950D02*
X394450Y622300D01*
X381750Y622300D01*
X350000Y603250D02*
X343650Y596900D01*
X330950Y596900D01*
X324600Y603250D01*
X324600Y615950D02*
X330950Y622300D01*
X343650Y622300D01*
X350000Y615950D01*
X318250Y596900D02*
X305550Y596900D01*
X299200Y603250D01*
X299200Y615950D01*
X305550Y622300D01*
X324600Y603250D02*
X318250Y596900D01*
X324600Y615950D02*
X318250Y622300D01*
X305550Y622300D01*
D12*
X405245Y612775D02*
X408420Y615315D01*
X408420Y603885D01*
X405245Y603885D02*
X411595Y603885D01*
X292215Y615315D02*
X289675Y606425D01*
X296025Y606425D01*
X294120Y608965D02*
X294120Y603885D01*
X338488Y572135D02*
X341028Y572135D01*
X338488Y572135D02*
X338388Y572137D01*
X338289Y572143D01*
X338189Y572153D01*
X338091Y572166D01*
X337992Y572184D01*
X337895Y572205D01*
X337799Y572230D01*
X337703Y572259D01*
X337609Y572292D01*
X337516Y572328D01*
X337425Y572368D01*
X337335Y572412D01*
X337247Y572459D01*
X337161Y572509D01*
X337077Y572563D01*
X336995Y572620D01*
X336916Y572680D01*
X336838Y572744D01*
X336764Y572810D01*
X336692Y572879D01*
X336623Y572951D01*
X336557Y573025D01*
X336493Y573103D01*
X336433Y573182D01*
X336376Y573264D01*
X336322Y573348D01*
X336272Y573434D01*
X336225Y573522D01*
X336181Y573612D01*
X336141Y573703D01*
X336105Y573796D01*
X336072Y573890D01*
X336043Y573986D01*
X336018Y574082D01*
X335997Y574179D01*
X335979Y574278D01*
X335966Y574376D01*
X335956Y574476D01*
X335950Y574575D01*
X335948Y574675D01*
X335948Y581025D01*
X335950Y581125D01*
X335956Y581224D01*
X335966Y581324D01*
X335979Y581422D01*
X335997Y581521D01*
X336018Y581618D01*
X336043Y581714D01*
X336072Y581810D01*
X336105Y581904D01*
X336141Y581997D01*
X336181Y582088D01*
X336225Y582178D01*
X336272Y582266D01*
X336322Y582352D01*
X336376Y582436D01*
X336433Y582518D01*
X336493Y582597D01*
X336557Y582675D01*
X336623Y582749D01*
X336692Y582821D01*
X336764Y582890D01*
X336838Y582956D01*
X336916Y583020D01*
X336995Y583080D01*
X337077Y583137D01*
X337161Y583191D01*
X337247Y583241D01*
X337335Y583288D01*
X337425Y583332D01*
X337516Y583372D01*
X337609Y583408D01*
X337703Y583441D01*
X337799Y583470D01*
X337895Y583495D01*
X337992Y583516D01*
X338091Y583534D01*
X338189Y583547D01*
X338289Y583557D01*
X338388Y583563D01*
X338488Y583565D01*
X341028Y583565D01*
X345891Y583565D02*
X345891Y572135D01*
X352241Y572135D02*
X345891Y583565D01*
X352241Y583565D02*
X352241Y572135D01*
X357702Y574675D02*
X360242Y583565D01*
X357702Y574675D02*
X364052Y574675D01*
X362147Y577215D02*
X362147Y572135D01*
D15*
X609600Y343662D02*
X609600Y316738D01*
D16*
X152400Y127000D02*
X152400Y25400D01*
X101600Y25400D01*
X101600Y127000D01*
X152400Y127000D01*
D11*
X122985Y142804D02*
X122983Y142705D01*
X122977Y142605D01*
X122968Y142506D01*
X122955Y142408D01*
X122938Y142310D01*
X122917Y142212D01*
X122892Y142116D01*
X122864Y142021D01*
X122832Y141927D01*
X122797Y141834D01*
X122758Y141742D01*
X122715Y141652D01*
X122670Y141564D01*
X122620Y141477D01*
X122568Y141393D01*
X122512Y141310D01*
X122454Y141230D01*
X122392Y141152D01*
X122327Y141077D01*
X122259Y141004D01*
X122189Y140934D01*
X122116Y140866D01*
X122041Y140801D01*
X121963Y140739D01*
X121883Y140681D01*
X121800Y140625D01*
X121716Y140573D01*
X121629Y140523D01*
X121541Y140478D01*
X121451Y140435D01*
X121359Y140396D01*
X121266Y140361D01*
X121172Y140329D01*
X121077Y140301D01*
X120981Y140276D01*
X120883Y140255D01*
X120785Y140238D01*
X120687Y140225D01*
X120588Y140216D01*
X120488Y140210D01*
X120389Y140208D01*
X120245Y140210D01*
X120100Y140216D01*
X119956Y140225D01*
X119813Y140238D01*
X119669Y140255D01*
X119526Y140276D01*
X119384Y140301D01*
X119243Y140329D01*
X119102Y140361D01*
X118962Y140397D01*
X118823Y140436D01*
X118685Y140479D01*
X118549Y140526D01*
X118413Y140576D01*
X118279Y140630D01*
X118147Y140687D01*
X118016Y140748D01*
X117887Y140812D01*
X117759Y140880D01*
X117633Y140950D01*
X117509Y141025D01*
X117388Y141102D01*
X117268Y141183D01*
X117150Y141266D01*
X117035Y141353D01*
X116922Y141443D01*
X116811Y141536D01*
X116703Y141631D01*
X116597Y141730D01*
X116494Y141831D01*
X116819Y149296D02*
X116821Y149395D01*
X116827Y149495D01*
X116836Y149594D01*
X116849Y149692D01*
X116866Y149790D01*
X116887Y149888D01*
X116912Y149984D01*
X116940Y150079D01*
X116972Y150173D01*
X117007Y150266D01*
X117046Y150358D01*
X117089Y150448D01*
X117134Y150536D01*
X117184Y150623D01*
X117236Y150707D01*
X117292Y150790D01*
X117350Y150870D01*
X117412Y150948D01*
X117477Y151023D01*
X117545Y151096D01*
X117615Y151166D01*
X117688Y151234D01*
X117763Y151299D01*
X117841Y151361D01*
X117921Y151419D01*
X118004Y151475D01*
X118088Y151527D01*
X118175Y151577D01*
X118263Y151622D01*
X118353Y151665D01*
X118445Y151704D01*
X118538Y151739D01*
X118632Y151771D01*
X118727Y151799D01*
X118824Y151824D01*
X118921Y151845D01*
X119019Y151862D01*
X119117Y151875D01*
X119216Y151884D01*
X119316Y151890D01*
X119415Y151892D01*
X119551Y151890D01*
X119687Y151884D01*
X119823Y151875D01*
X119959Y151862D01*
X120094Y151844D01*
X120228Y151824D01*
X120362Y151799D01*
X120496Y151771D01*
X120628Y151738D01*
X120759Y151703D01*
X120890Y151663D01*
X121019Y151620D01*
X121147Y151574D01*
X121273Y151523D01*
X121399Y151470D01*
X121522Y151412D01*
X121644Y151352D01*
X121764Y151288D01*
X121883Y151220D01*
X121999Y151150D01*
X122113Y151076D01*
X122226Y150999D01*
X122336Y150918D01*
X118117Y147024D02*
X118031Y147077D01*
X117947Y147134D01*
X117865Y147193D01*
X117785Y147256D01*
X117708Y147322D01*
X117633Y147390D01*
X117561Y147462D01*
X117492Y147536D01*
X117426Y147613D01*
X117363Y147692D01*
X117303Y147774D01*
X117246Y147858D01*
X117192Y147944D01*
X117142Y148032D01*
X117095Y148122D01*
X117051Y148213D01*
X117012Y148307D01*
X116975Y148401D01*
X116943Y148497D01*
X116914Y148595D01*
X116889Y148693D01*
X116868Y148792D01*
X116850Y148892D01*
X116837Y148992D01*
X116827Y149093D01*
X116821Y149195D01*
X116819Y149296D01*
X121687Y145076D02*
X121773Y145023D01*
X121857Y144966D01*
X121939Y144907D01*
X122019Y144844D01*
X122096Y144778D01*
X122171Y144710D01*
X122243Y144638D01*
X122312Y144564D01*
X122378Y144487D01*
X122441Y144408D01*
X122501Y144326D01*
X122558Y144242D01*
X122612Y144156D01*
X122662Y144068D01*
X122709Y143978D01*
X122753Y143887D01*
X122792Y143793D01*
X122829Y143699D01*
X122861Y143603D01*
X122890Y143505D01*
X122915Y143407D01*
X122936Y143308D01*
X122954Y143208D01*
X122967Y143108D01*
X122977Y143007D01*
X122983Y142905D01*
X122985Y142804D01*
X121687Y145076D02*
X118117Y147024D01*
X127120Y151892D02*
X129716Y140208D01*
X132313Y147997D01*
X134909Y140208D01*
X137506Y151892D01*
D10*
X490220Y27940D02*
X492760Y25400D01*
X490220Y27940D02*
X490220Y124460D01*
X492760Y127000D01*
X492760Y25400D02*
X521970Y25400D01*
X521970Y127000D02*
X492760Y127000D01*
D17*
X496316Y122428D03*
D18*
X527050Y120015D03*
D19*
X529590Y101600D03*
D20*
X527050Y88900D03*
D19*
X529590Y76200D03*
D20*
X527050Y63500D03*
D19*
X529590Y50800D03*
D18*
X527050Y32385D03*
D12*
X498920Y138430D02*
X498920Y146685D01*
X498920Y138430D02*
X498922Y138319D01*
X498928Y138209D01*
X498937Y138098D01*
X498951Y137988D01*
X498968Y137879D01*
X498989Y137770D01*
X499014Y137662D01*
X499043Y137555D01*
X499075Y137449D01*
X499111Y137344D01*
X499151Y137241D01*
X499194Y137139D01*
X499241Y137038D01*
X499292Y136939D01*
X499345Y136843D01*
X499402Y136748D01*
X499463Y136655D01*
X499526Y136564D01*
X499593Y136475D01*
X499663Y136389D01*
X499736Y136306D01*
X499811Y136224D01*
X499889Y136146D01*
X499971Y136071D01*
X500054Y135998D01*
X500140Y135928D01*
X500229Y135861D01*
X500320Y135798D01*
X500413Y135737D01*
X500508Y135680D01*
X500604Y135627D01*
X500703Y135576D01*
X500804Y135529D01*
X500906Y135486D01*
X501009Y135446D01*
X501114Y135410D01*
X501220Y135378D01*
X501327Y135349D01*
X501435Y135324D01*
X501544Y135303D01*
X501653Y135286D01*
X501763Y135272D01*
X501874Y135263D01*
X501984Y135257D01*
X502095Y135255D01*
X502206Y135257D01*
X502316Y135263D01*
X502427Y135272D01*
X502537Y135286D01*
X502646Y135303D01*
X502755Y135324D01*
X502863Y135349D01*
X502970Y135378D01*
X503076Y135410D01*
X503181Y135446D01*
X503284Y135486D01*
X503386Y135529D01*
X503487Y135576D01*
X503586Y135627D01*
X503682Y135680D01*
X503777Y135737D01*
X503870Y135798D01*
X503961Y135861D01*
X504050Y135928D01*
X504136Y135998D01*
X504219Y136071D01*
X504301Y136146D01*
X504379Y136224D01*
X504454Y136306D01*
X504527Y136389D01*
X504597Y136475D01*
X504664Y136564D01*
X504727Y136655D01*
X504788Y136748D01*
X504845Y136842D01*
X504898Y136939D01*
X504949Y137038D01*
X504996Y137139D01*
X505039Y137241D01*
X505079Y137344D01*
X505115Y137449D01*
X505147Y137555D01*
X505176Y137662D01*
X505201Y137770D01*
X505222Y137879D01*
X505239Y137988D01*
X505253Y138098D01*
X505262Y138209D01*
X505268Y138319D01*
X505270Y138430D01*
X505270Y146685D01*
X510731Y144145D02*
X513906Y146685D01*
X513906Y135255D01*
X510731Y135255D02*
X517081Y135255D01*
D10*
X599440Y127000D02*
X601980Y124460D01*
X601980Y27940D01*
X599440Y25400D01*
X599440Y127000D02*
X570230Y127000D01*
X570230Y25400D02*
X599440Y25400D01*
D17*
X595884Y29972D03*
D18*
X565150Y32385D03*
D19*
X562610Y50800D03*
D20*
X565150Y63500D03*
D19*
X562610Y76200D03*
D20*
X565150Y88900D03*
D19*
X562610Y101600D03*
D18*
X565150Y120015D03*
D12*
X575120Y138430D02*
X575120Y146685D01*
X575120Y138430D02*
X575122Y138319D01*
X575128Y138209D01*
X575137Y138098D01*
X575151Y137988D01*
X575168Y137879D01*
X575189Y137770D01*
X575214Y137662D01*
X575243Y137555D01*
X575275Y137449D01*
X575311Y137344D01*
X575351Y137241D01*
X575394Y137139D01*
X575441Y137038D01*
X575492Y136939D01*
X575545Y136843D01*
X575602Y136748D01*
X575663Y136655D01*
X575726Y136564D01*
X575793Y136475D01*
X575863Y136389D01*
X575936Y136306D01*
X576011Y136224D01*
X576089Y136146D01*
X576171Y136071D01*
X576254Y135998D01*
X576340Y135928D01*
X576429Y135861D01*
X576520Y135798D01*
X576613Y135737D01*
X576708Y135680D01*
X576804Y135627D01*
X576903Y135576D01*
X577004Y135529D01*
X577106Y135486D01*
X577209Y135446D01*
X577314Y135410D01*
X577420Y135378D01*
X577527Y135349D01*
X577635Y135324D01*
X577744Y135303D01*
X577853Y135286D01*
X577963Y135272D01*
X578074Y135263D01*
X578184Y135257D01*
X578295Y135255D01*
X578406Y135257D01*
X578516Y135263D01*
X578627Y135272D01*
X578737Y135286D01*
X578846Y135303D01*
X578955Y135324D01*
X579063Y135349D01*
X579170Y135378D01*
X579276Y135410D01*
X579381Y135446D01*
X579484Y135486D01*
X579586Y135529D01*
X579687Y135576D01*
X579786Y135627D01*
X579883Y135680D01*
X579977Y135737D01*
X580070Y135798D01*
X580161Y135861D01*
X580250Y135928D01*
X580336Y135998D01*
X580419Y136071D01*
X580501Y136146D01*
X580579Y136224D01*
X580654Y136306D01*
X580727Y136389D01*
X580797Y136475D01*
X580864Y136564D01*
X580927Y136655D01*
X580988Y136748D01*
X581045Y136842D01*
X581098Y136939D01*
X581149Y137038D01*
X581196Y137139D01*
X581239Y137241D01*
X581279Y137344D01*
X581315Y137449D01*
X581347Y137555D01*
X581376Y137662D01*
X581401Y137770D01*
X581422Y137879D01*
X581439Y137988D01*
X581453Y138098D01*
X581462Y138209D01*
X581468Y138319D01*
X581470Y138430D01*
X581470Y146685D01*
X590423Y146686D02*
X590527Y146684D01*
X590632Y146678D01*
X590736Y146669D01*
X590839Y146656D01*
X590942Y146638D01*
X591044Y146618D01*
X591146Y146593D01*
X591246Y146565D01*
X591346Y146533D01*
X591444Y146497D01*
X591541Y146458D01*
X591636Y146416D01*
X591730Y146370D01*
X591822Y146320D01*
X591912Y146268D01*
X592000Y146212D01*
X592086Y146152D01*
X592170Y146090D01*
X592251Y146025D01*
X592330Y145957D01*
X592407Y145885D01*
X592480Y145812D01*
X592552Y145735D01*
X592620Y145656D01*
X592685Y145575D01*
X592747Y145491D01*
X592807Y145405D01*
X592863Y145317D01*
X592915Y145227D01*
X592965Y145135D01*
X593011Y145041D01*
X593053Y144946D01*
X593092Y144849D01*
X593128Y144751D01*
X593160Y144651D01*
X593188Y144551D01*
X593213Y144449D01*
X593233Y144347D01*
X593251Y144244D01*
X593264Y144141D01*
X593273Y144037D01*
X593279Y143932D01*
X593281Y143828D01*
X590423Y146685D02*
X590305Y146683D01*
X590186Y146677D01*
X590068Y146668D01*
X589951Y146655D01*
X589834Y146637D01*
X589717Y146617D01*
X589601Y146592D01*
X589486Y146564D01*
X589373Y146531D01*
X589260Y146496D01*
X589148Y146456D01*
X589038Y146414D01*
X588929Y146367D01*
X588821Y146317D01*
X588716Y146264D01*
X588612Y146207D01*
X588510Y146147D01*
X588410Y146084D01*
X588312Y146017D01*
X588216Y145948D01*
X588123Y145875D01*
X588032Y145799D01*
X587943Y145721D01*
X587857Y145639D01*
X587774Y145555D01*
X587693Y145469D01*
X587616Y145379D01*
X587541Y145288D01*
X587469Y145194D01*
X587400Y145097D01*
X587335Y144999D01*
X587272Y144898D01*
X587213Y144795D01*
X587157Y144691D01*
X587105Y144585D01*
X587056Y144477D01*
X587011Y144368D01*
X586969Y144257D01*
X586931Y144145D01*
X592328Y141606D02*
X592404Y141681D01*
X592479Y141760D01*
X592550Y141841D01*
X592619Y141925D01*
X592684Y142011D01*
X592746Y142099D01*
X592806Y142189D01*
X592862Y142281D01*
X592915Y142376D01*
X592964Y142472D01*
X593010Y142570D01*
X593053Y142669D01*
X593092Y142770D01*
X593127Y142872D01*
X593159Y142975D01*
X593187Y143079D01*
X593212Y143184D01*
X593233Y143291D01*
X593250Y143397D01*
X593263Y143504D01*
X593272Y143612D01*
X593278Y143720D01*
X593280Y143828D01*
X592328Y141605D02*
X586931Y135255D01*
X593281Y135255D01*
X444500Y139700D02*
X292100Y139700D01*
X444500Y139700D02*
X444500Y190500D01*
X292100Y190500D01*
X292100Y177800D01*
X292100Y152400D02*
X292100Y139700D01*
X292100Y152400D02*
X292407Y152558D01*
X292710Y152724D01*
X293009Y152897D01*
X293304Y153077D01*
X293594Y153265D01*
X293880Y153459D01*
X294161Y153660D01*
X294437Y153868D01*
X294707Y154083D01*
X294973Y154304D01*
X295233Y154532D01*
X295487Y154766D01*
X295736Y155005D01*
X295978Y155251D01*
X296215Y155503D01*
X296445Y155761D01*
X296669Y156024D01*
X296887Y156292D01*
X297098Y156566D01*
X297302Y156844D01*
X297500Y157128D01*
X297690Y157416D01*
X297874Y157709D01*
X298050Y158006D01*
X298219Y158307D01*
X298380Y158613D01*
X298534Y158922D01*
X298681Y159235D01*
X298820Y159551D01*
X298951Y159871D01*
X299074Y160193D01*
X299190Y160519D01*
X299297Y160847D01*
X299397Y161178D01*
X299488Y161512D01*
X299571Y161847D01*
X299646Y162184D01*
X299713Y162523D01*
X299772Y162864D01*
X299822Y163205D01*
X299864Y163548D01*
X299898Y163892D01*
X299923Y164237D01*
X299940Y164582D01*
X299948Y164927D01*
X299948Y165273D01*
X299940Y165618D01*
X299923Y165963D01*
X299898Y166308D01*
X299864Y166652D01*
X299822Y166995D01*
X299772Y167336D01*
X299713Y167677D01*
X299646Y168016D01*
X299571Y168353D01*
X299488Y168688D01*
X299397Y169022D01*
X299297Y169353D01*
X299190Y169681D01*
X299074Y170007D01*
X298951Y170329D01*
X298820Y170649D01*
X298681Y170965D01*
X298534Y171278D01*
X298380Y171587D01*
X298219Y171893D01*
X298050Y172194D01*
X297874Y172491D01*
X297690Y172784D01*
X297500Y173072D01*
X297302Y173356D01*
X297098Y173634D01*
X296887Y173908D01*
X296669Y174176D01*
X296445Y174439D01*
X296215Y174697D01*
X295978Y174949D01*
X295736Y175195D01*
X295487Y175434D01*
X295233Y175668D01*
X294973Y175896D01*
X294707Y176117D01*
X294437Y176332D01*
X294161Y176540D01*
X293880Y176741D01*
X293594Y176935D01*
X293304Y177123D01*
X293009Y177303D01*
X292710Y177476D01*
X292407Y177642D01*
X292100Y177800D01*
D11*
X359149Y224734D02*
X359149Y233172D01*
X359149Y224734D02*
X359151Y224621D01*
X359157Y224508D01*
X359167Y224395D01*
X359181Y224282D01*
X359198Y224170D01*
X359220Y224059D01*
X359245Y223949D01*
X359275Y223839D01*
X359308Y223731D01*
X359345Y223624D01*
X359385Y223518D01*
X359430Y223414D01*
X359478Y223311D01*
X359529Y223210D01*
X359584Y223111D01*
X359642Y223014D01*
X359704Y222919D01*
X359769Y222826D01*
X359837Y222736D01*
X359908Y222648D01*
X359983Y222562D01*
X360060Y222479D01*
X360140Y222399D01*
X360223Y222322D01*
X360309Y222247D01*
X360397Y222176D01*
X360487Y222108D01*
X360580Y222043D01*
X360675Y221981D01*
X360772Y221923D01*
X360871Y221868D01*
X360972Y221817D01*
X361075Y221769D01*
X361179Y221724D01*
X361285Y221684D01*
X361392Y221647D01*
X361500Y221614D01*
X361610Y221584D01*
X361720Y221559D01*
X361831Y221537D01*
X361943Y221520D01*
X362056Y221506D01*
X362169Y221496D01*
X362282Y221490D01*
X362395Y221488D01*
X362508Y221490D01*
X362621Y221496D01*
X362734Y221506D01*
X362847Y221520D01*
X362959Y221537D01*
X363070Y221559D01*
X363180Y221584D01*
X363290Y221614D01*
X363398Y221647D01*
X363505Y221684D01*
X363611Y221724D01*
X363715Y221769D01*
X363818Y221817D01*
X363919Y221868D01*
X364018Y221923D01*
X364115Y221981D01*
X364210Y222043D01*
X364303Y222108D01*
X364393Y222176D01*
X364481Y222247D01*
X364567Y222322D01*
X364650Y222399D01*
X364730Y222479D01*
X364807Y222562D01*
X364882Y222648D01*
X364953Y222736D01*
X365021Y222826D01*
X365086Y222919D01*
X365148Y223014D01*
X365206Y223111D01*
X365261Y223210D01*
X365312Y223311D01*
X365360Y223414D01*
X365405Y223518D01*
X365445Y223624D01*
X365482Y223731D01*
X365515Y223839D01*
X365545Y223949D01*
X365570Y224059D01*
X365592Y224170D01*
X365609Y224282D01*
X365623Y224395D01*
X365633Y224508D01*
X365639Y224621D01*
X365641Y224734D01*
X365640Y224734D02*
X365640Y233172D01*
X370960Y221488D02*
X374205Y221488D01*
X374318Y221490D01*
X374431Y221496D01*
X374544Y221506D01*
X374657Y221520D01*
X374769Y221537D01*
X374880Y221559D01*
X374990Y221584D01*
X375100Y221614D01*
X375208Y221647D01*
X375315Y221684D01*
X375421Y221724D01*
X375525Y221769D01*
X375628Y221817D01*
X375729Y221868D01*
X375828Y221923D01*
X375925Y221981D01*
X376020Y222043D01*
X376113Y222108D01*
X376203Y222176D01*
X376291Y222247D01*
X376377Y222322D01*
X376460Y222399D01*
X376540Y222479D01*
X376617Y222562D01*
X376692Y222648D01*
X376763Y222736D01*
X376831Y222826D01*
X376896Y222919D01*
X376958Y223014D01*
X377016Y223111D01*
X377071Y223210D01*
X377122Y223311D01*
X377170Y223414D01*
X377215Y223518D01*
X377255Y223624D01*
X377292Y223731D01*
X377325Y223839D01*
X377355Y223949D01*
X377380Y224059D01*
X377402Y224170D01*
X377419Y224282D01*
X377433Y224395D01*
X377443Y224508D01*
X377449Y224621D01*
X377451Y224734D01*
X377449Y224847D01*
X377443Y224960D01*
X377433Y225073D01*
X377419Y225186D01*
X377402Y225298D01*
X377380Y225409D01*
X377355Y225519D01*
X377325Y225629D01*
X377292Y225737D01*
X377255Y225844D01*
X377215Y225950D01*
X377170Y226054D01*
X377122Y226157D01*
X377071Y226258D01*
X377016Y226357D01*
X376958Y226454D01*
X376896Y226549D01*
X376831Y226642D01*
X376763Y226732D01*
X376692Y226820D01*
X376617Y226906D01*
X376540Y226989D01*
X376460Y227069D01*
X376377Y227146D01*
X376291Y227221D01*
X376203Y227292D01*
X376113Y227360D01*
X376020Y227425D01*
X375925Y227487D01*
X375828Y227545D01*
X375729Y227600D01*
X375628Y227651D01*
X375525Y227699D01*
X375421Y227744D01*
X375315Y227784D01*
X375208Y227821D01*
X375100Y227854D01*
X374990Y227884D01*
X374880Y227909D01*
X374769Y227931D01*
X374657Y227948D01*
X374544Y227962D01*
X374431Y227972D01*
X374318Y227978D01*
X374205Y227980D01*
X374855Y233172D02*
X370960Y233172D01*
X374855Y233172D02*
X374956Y233170D01*
X375056Y233164D01*
X375156Y233154D01*
X375256Y233141D01*
X375355Y233123D01*
X375454Y233102D01*
X375551Y233077D01*
X375648Y233048D01*
X375743Y233015D01*
X375837Y232979D01*
X375929Y232939D01*
X376020Y232896D01*
X376109Y232849D01*
X376196Y232799D01*
X376282Y232745D01*
X376365Y232688D01*
X376445Y232628D01*
X376524Y232565D01*
X376600Y232498D01*
X376673Y232429D01*
X376743Y232357D01*
X376811Y232283D01*
X376876Y232206D01*
X376937Y232126D01*
X376996Y232044D01*
X377051Y231960D01*
X377103Y231874D01*
X377152Y231786D01*
X377197Y231696D01*
X377239Y231604D01*
X377277Y231511D01*
X377311Y231416D01*
X377342Y231321D01*
X377369Y231224D01*
X377392Y231126D01*
X377412Y231027D01*
X377427Y230927D01*
X377439Y230827D01*
X377447Y230727D01*
X377451Y230626D01*
X377451Y230526D01*
X377447Y230425D01*
X377439Y230325D01*
X377427Y230225D01*
X377412Y230125D01*
X377392Y230026D01*
X377369Y229928D01*
X377342Y229831D01*
X377311Y229736D01*
X377277Y229641D01*
X377239Y229548D01*
X377197Y229456D01*
X377152Y229366D01*
X377103Y229278D01*
X377051Y229192D01*
X376996Y229108D01*
X376937Y229026D01*
X376876Y228946D01*
X376811Y228869D01*
X376743Y228795D01*
X376673Y228723D01*
X376600Y228654D01*
X376524Y228587D01*
X376445Y228524D01*
X376365Y228464D01*
X376282Y228407D01*
X376196Y228353D01*
X376109Y228303D01*
X376020Y228256D01*
X375929Y228213D01*
X375837Y228173D01*
X375743Y228137D01*
X375648Y228104D01*
X375551Y228075D01*
X375454Y228050D01*
X375355Y228029D01*
X375256Y228011D01*
X375156Y227998D01*
X375056Y227988D01*
X374956Y227982D01*
X374855Y227980D01*
X374855Y227979D02*
X372258Y227979D01*
D10*
X139700Y266700D02*
X622300Y266700D01*
X622300Y546100D01*
X139700Y546100D01*
X139700Y266700D01*
X330200Y317500D02*
X330200Y495300D01*
X76200Y495300D01*
X76200Y317500D01*
X330200Y317500D01*
X172522Y369062D02*
X160782Y369062D01*
X172522Y369062D02*
X172655Y369064D01*
X172787Y369070D01*
X172919Y369080D01*
X173051Y369093D01*
X173183Y369111D01*
X173313Y369132D01*
X173444Y369157D01*
X173573Y369186D01*
X173701Y369219D01*
X173829Y369255D01*
X173955Y369295D01*
X174080Y369339D01*
X174204Y369387D01*
X174326Y369438D01*
X174447Y369493D01*
X174566Y369551D01*
X174684Y369613D01*
X174799Y369678D01*
X174913Y369747D01*
X175024Y369818D01*
X175133Y369894D01*
X175240Y369972D01*
X175345Y370053D01*
X175447Y370138D01*
X175547Y370225D01*
X175644Y370315D01*
X175739Y370408D01*
X175830Y370504D01*
X175919Y370602D01*
X176005Y370703D01*
X176088Y370807D01*
X176168Y370913D01*
X176244Y371021D01*
X176318Y371131D01*
X176388Y371244D01*
X176455Y371358D01*
X176518Y371475D01*
X176578Y371593D01*
X176635Y371713D01*
X176688Y371835D01*
X176737Y371958D01*
X176783Y372082D01*
X176825Y372208D01*
X176863Y372335D01*
X176898Y372463D01*
X176929Y372592D01*
X176956Y372721D01*
X176979Y372852D01*
X176999Y372983D01*
X177014Y373115D01*
X177026Y373247D01*
X177034Y373379D01*
X177038Y373512D01*
X177038Y373644D01*
X177034Y373777D01*
X177026Y373909D01*
X177014Y374041D01*
X176999Y374173D01*
X176979Y374304D01*
X176956Y374435D01*
X176929Y374564D01*
X176898Y374693D01*
X176863Y374821D01*
X176825Y374948D01*
X176783Y375074D01*
X176737Y375198D01*
X176688Y375321D01*
X176635Y375443D01*
X176578Y375563D01*
X176518Y375681D01*
X176455Y375798D01*
X176388Y375912D01*
X176318Y376025D01*
X176244Y376135D01*
X176168Y376243D01*
X176088Y376349D01*
X176005Y376453D01*
X175919Y376554D01*
X175830Y376652D01*
X175739Y376748D01*
X175644Y376841D01*
X175547Y376931D01*
X175447Y377018D01*
X175345Y377103D01*
X175240Y377184D01*
X175133Y377262D01*
X175024Y377338D01*
X174913Y377409D01*
X174799Y377478D01*
X174684Y377543D01*
X174566Y377605D01*
X174447Y377663D01*
X174326Y377718D01*
X174204Y377769D01*
X174080Y377817D01*
X173955Y377861D01*
X173829Y377901D01*
X173701Y377937D01*
X173573Y377970D01*
X173444Y377999D01*
X173313Y378024D01*
X173183Y378045D01*
X173051Y378063D01*
X172919Y378076D01*
X172787Y378086D01*
X172655Y378092D01*
X172522Y378094D01*
X172522Y378093D02*
X160782Y378093D01*
X160782Y388827D02*
X173426Y385214D01*
X173426Y394245D01*
X169813Y391536D02*
X177038Y391536D01*
X73660Y212090D02*
X73660Y205740D01*
X73660Y212090D02*
X78740Y212090D01*
X78740Y205740D01*
X85090Y205740D01*
X85090Y200660D01*
X78740Y200660D01*
X78740Y194310D01*
X73660Y194310D01*
X73660Y200660D01*
X67310Y200660D01*
X67310Y205740D01*
X73660Y205740D01*
X85090Y241300D02*
X110490Y241300D01*
X67310Y194310D02*
X62230Y189230D01*
X85090Y194310D02*
X90170Y189230D01*
X62230Y203200D02*
X57150Y203200D01*
X90170Y203200D02*
X95250Y203200D01*
X66040Y213360D02*
X63500Y215900D01*
X86360Y213360D02*
X88900Y215900D01*
X92710Y165100D02*
X59690Y165100D01*
X110490Y165100D02*
X110612Y165102D01*
X110734Y165108D01*
X110856Y165118D01*
X110977Y165131D01*
X111098Y165149D01*
X111218Y165170D01*
X111338Y165196D01*
X111456Y165225D01*
X111574Y165257D01*
X111691Y165294D01*
X111806Y165334D01*
X111920Y165378D01*
X112032Y165426D01*
X112143Y165477D01*
X112252Y165532D01*
X112360Y165590D01*
X112465Y165652D01*
X112568Y165717D01*
X112670Y165785D01*
X112769Y165857D01*
X112865Y165931D01*
X112960Y166009D01*
X113051Y166090D01*
X113141Y166173D01*
X113227Y166259D01*
X113310Y166349D01*
X113391Y166440D01*
X113469Y166535D01*
X113543Y166631D01*
X113615Y166730D01*
X113683Y166832D01*
X113748Y166935D01*
X113810Y167040D01*
X113868Y167148D01*
X113923Y167257D01*
X113974Y167368D01*
X114022Y167480D01*
X114066Y167594D01*
X114106Y167709D01*
X114143Y167826D01*
X114175Y167944D01*
X114204Y168062D01*
X114230Y168182D01*
X114251Y168302D01*
X114269Y168423D01*
X114282Y168544D01*
X114292Y168666D01*
X114298Y168788D01*
X114300Y168910D01*
X114300Y237490D02*
X114298Y237612D01*
X114292Y237734D01*
X114282Y237856D01*
X114269Y237977D01*
X114251Y238098D01*
X114230Y238218D01*
X114204Y238338D01*
X114175Y238456D01*
X114143Y238574D01*
X114106Y238691D01*
X114066Y238806D01*
X114022Y238920D01*
X113974Y239032D01*
X113923Y239143D01*
X113868Y239252D01*
X113810Y239360D01*
X113748Y239465D01*
X113683Y239568D01*
X113615Y239670D01*
X113543Y239769D01*
X113469Y239865D01*
X113391Y239960D01*
X113310Y240051D01*
X113227Y240141D01*
X113141Y240227D01*
X113051Y240310D01*
X112960Y240391D01*
X112865Y240469D01*
X112769Y240543D01*
X112670Y240615D01*
X112568Y240683D01*
X112465Y240748D01*
X112360Y240810D01*
X112252Y240868D01*
X112143Y240923D01*
X112032Y240974D01*
X111920Y241022D01*
X111806Y241066D01*
X111691Y241106D01*
X111574Y241143D01*
X111456Y241175D01*
X111338Y241204D01*
X111218Y241230D01*
X111098Y241251D01*
X110977Y241269D01*
X110856Y241282D01*
X110734Y241292D01*
X110612Y241298D01*
X110490Y241300D01*
X41910Y241300D02*
X41788Y241298D01*
X41666Y241292D01*
X41544Y241282D01*
X41423Y241269D01*
X41302Y241251D01*
X41182Y241230D01*
X41062Y241204D01*
X40944Y241175D01*
X40826Y241143D01*
X40709Y241106D01*
X40594Y241066D01*
X40480Y241022D01*
X40368Y240974D01*
X40257Y240923D01*
X40148Y240868D01*
X40040Y240810D01*
X39935Y240748D01*
X39832Y240683D01*
X39730Y240615D01*
X39631Y240543D01*
X39535Y240469D01*
X39440Y240391D01*
X39349Y240310D01*
X39259Y240227D01*
X39173Y240141D01*
X39090Y240051D01*
X39009Y239960D01*
X38931Y239865D01*
X38857Y239769D01*
X38785Y239670D01*
X38717Y239568D01*
X38652Y239465D01*
X38590Y239360D01*
X38532Y239252D01*
X38477Y239143D01*
X38426Y239032D01*
X38378Y238920D01*
X38334Y238806D01*
X38294Y238691D01*
X38257Y238574D01*
X38225Y238456D01*
X38196Y238338D01*
X38170Y238218D01*
X38149Y238098D01*
X38131Y237977D01*
X38118Y237856D01*
X38108Y237734D01*
X38102Y237612D01*
X38100Y237490D01*
X38100Y168910D02*
X38102Y168788D01*
X38108Y168666D01*
X38118Y168544D01*
X38131Y168423D01*
X38149Y168302D01*
X38170Y168182D01*
X38196Y168062D01*
X38225Y167944D01*
X38257Y167826D01*
X38294Y167709D01*
X38334Y167594D01*
X38378Y167480D01*
X38426Y167368D01*
X38477Y167257D01*
X38532Y167148D01*
X38590Y167040D01*
X38652Y166935D01*
X38717Y166832D01*
X38785Y166730D01*
X38857Y166631D01*
X38931Y166535D01*
X39009Y166440D01*
X39090Y166349D01*
X39173Y166259D01*
X39259Y166173D01*
X39349Y166090D01*
X39440Y166009D01*
X39535Y165931D01*
X39631Y165857D01*
X39730Y165785D01*
X39832Y165717D01*
X39935Y165652D01*
X40040Y165590D01*
X40148Y165532D01*
X40257Y165477D01*
X40368Y165426D01*
X40480Y165378D01*
X40594Y165334D01*
X40709Y165294D01*
X40826Y165257D01*
X40944Y165225D01*
X41062Y165196D01*
X41182Y165170D01*
X41302Y165149D01*
X41423Y165131D01*
X41544Y165118D01*
X41666Y165108D01*
X41788Y165102D01*
X41910Y165100D01*
X41910Y241300D02*
X67310Y241300D01*
X114300Y237490D02*
X114300Y187960D01*
X38100Y187960D02*
X38100Y237490D01*
D12*
X70571Y254635D02*
X66761Y266065D01*
X74381Y266065D02*
X70571Y254635D01*
X79289Y254635D02*
X79289Y266065D01*
X82464Y266065D01*
X82575Y266063D01*
X82685Y266057D01*
X82796Y266048D01*
X82906Y266034D01*
X83015Y266017D01*
X83124Y265996D01*
X83232Y265971D01*
X83339Y265942D01*
X83445Y265910D01*
X83550Y265874D01*
X83653Y265834D01*
X83755Y265791D01*
X83856Y265744D01*
X83955Y265693D01*
X84052Y265640D01*
X84146Y265583D01*
X84239Y265522D01*
X84330Y265459D01*
X84419Y265392D01*
X84505Y265322D01*
X84588Y265249D01*
X84670Y265174D01*
X84748Y265096D01*
X84823Y265014D01*
X84896Y264931D01*
X84966Y264845D01*
X85033Y264756D01*
X85096Y264665D01*
X85157Y264572D01*
X85214Y264477D01*
X85267Y264381D01*
X85318Y264282D01*
X85365Y264181D01*
X85408Y264079D01*
X85448Y263976D01*
X85484Y263871D01*
X85516Y263765D01*
X85545Y263658D01*
X85570Y263550D01*
X85591Y263441D01*
X85608Y263332D01*
X85622Y263222D01*
X85631Y263111D01*
X85637Y263001D01*
X85639Y262890D01*
X85637Y262779D01*
X85631Y262669D01*
X85622Y262558D01*
X85608Y262448D01*
X85591Y262339D01*
X85570Y262230D01*
X85545Y262122D01*
X85516Y262015D01*
X85484Y261909D01*
X85448Y261804D01*
X85408Y261701D01*
X85365Y261599D01*
X85318Y261498D01*
X85267Y261399D01*
X85214Y261302D01*
X85157Y261208D01*
X85096Y261115D01*
X85033Y261024D01*
X84966Y260935D01*
X84896Y260849D01*
X84823Y260766D01*
X84748Y260684D01*
X84670Y260606D01*
X84588Y260531D01*
X84505Y260458D01*
X84419Y260388D01*
X84330Y260321D01*
X84239Y260258D01*
X84146Y260197D01*
X84051Y260140D01*
X83955Y260087D01*
X83856Y260036D01*
X83755Y259989D01*
X83653Y259946D01*
X83550Y259906D01*
X83445Y259870D01*
X83339Y259838D01*
X83232Y259809D01*
X83124Y259784D01*
X83015Y259763D01*
X82906Y259746D01*
X82796Y259732D01*
X82685Y259723D01*
X82575Y259717D01*
X82464Y259715D01*
X79289Y259715D01*
X83099Y259715D02*
X85639Y254635D01*
M02*
